Montserrat-SemiBoldItalic.ufo
<glyph name="percent" format="2">
  <advance width="852"/>
  <unicode hex="0025"/>
  <outline>
    <contour>
      <point x="90" y="0" type="line"/>
      <point x="182" y="0" type="line"/>
      <point x="794" y="700" type="line"/>
      <point x="703" y="700" type="line"/>
    </contour>
    <contour>
      <point x="225" y="324" type="curve" smooth="yes"/>
      <point x="346" y="324"/>
      <point x="418" y="429"/>
      <point x="418" y="552" type="curve" smooth="yes"/>
      <point x="418" y="649"/>
      <point x="362" y="706"/>
      <point x="275" y="706" type="curve" smooth="yes"/>
      <point x="155" y="706"/>
      <point x="82" y="601"/>
      <point x="82" y="478" type="curve" smooth="yes"/>
      <point x="82" y="381"/>
      <point x="138" y="324"/>
    </contour>
    <contour>
      <point x="231" y="388" type="curve" smooth="yes"/>
      <point x="185" y="388"/>
      <point x="155" y="420"/>
      <point x="155" y="483" type="curve" smooth="yes"/>
      <point x="155" y="555"/>
      <point x="192" y="642"/>
      <point x="269" y="642" type="curve" smooth="yes"/>
      <point x="315" y="642"/>
      <point x="345" y="610"/>
      <point x="345" y="547" type="curve" smooth="yes"/>
      <point x="345" y="475"/>
      <point x="308" y="388"/>
    </contour>
    <contour>
      <point x="610" y="-7" type="curve" smooth="yes"/>
      <point x="731" y="-7"/>
      <point x="803" y="98"/>
      <point x="803" y="221" type="curve" smooth="yes"/>
      <point x="803" y="318"/>
      <point x="747" y="375"/>
      <point x="660" y="375" type="curve" smooth="yes"/>
      <point x="540" y="375"/>
      <point x="467" y="270"/>
      <point x="467" y="147" type="curve" smooth="yes"/>
      <point x="467" y="50"/>
      <point x="523" y="-7"/>
    </contour>
    <contour>
      <point x="616" y="57" type="curve" smooth="yes"/>
      <point x="570" y="57"/>
      <point x="540" y="89"/>
      <point x="540" y="152" type="curve" smooth="yes"/>
      <point x="540" y="224"/>
      <point x="577" y="311"/>
      <point x="654" y="311" type="curve" smooth="yes"/>
      <point x="700" y="311"/>
      <point x="730" y="279"/>
      <point x="730" y="216" type="curve" smooth="yes"/>
      <point x="730" y="144"/>
      <point x="693" y="57"/>
    </contour>
  </outline>
</glyph>
<glyph name="parenleft" format="2">
  <advance width="342"/>
  <unicode hex="0028"/>
  <outline>
    <contour>
      <point x="122" y="-194" type="curve"/>
      <point x="223" y="-194" type="line"/>
      <point x="193" y="-101"/>
      <point x="179" y="-14"/>
      <point x="179" y="77" type="curve" smooth="yes"/>
      <point x="179" y="312"/>
      <point x="264" y="554"/>
      <point x="410" y="742" type="curve"/>
      <point x="298" y="742" type="line"/>
      <point x="158" y="575"/>
      <point x="73" y="325"/>
      <point x="73" y="83" type="curve" smooth="yes"/>
      <point x="73" y="-16"/>
      <point x="93" y="-123"/>
    </contour>
  </outline>
</glyph>
<glyph name="asterisk" format="2">
  <advance width="408"/>
  <unicode hex="002A"/>
  <outline>
    <contour>
      <point x="463" y="616" type="line"/>
      <point x="436" y="679" type="line"/>
      <point x="292" y="602" type="line"/>
      <point x="302" y="596" type="line"/>
      <point x="333" y="742" type="line"/>
      <point x="264" y="742" type="line"/>
      <point x="238" y="596" type="line"/>
      <point x="248" y="602" type="line"/>
      <point x="133" y="680" type="line"/>
      <point x="92" y="617" type="line"/>
      <point x="211" y="543" type="line"/>
      <point x="214" y="562" type="line"/>
      <point x="61" y="486" type="line"/>
      <point x="89" y="426" type="line"/>
      <point x="233" y="502" type="line"/>
      <point x="220" y="509" type="line"/>
      <point x="189" y="363" type="line"/>
      <point x="259" y="363" type="line"/>
      <point x="286" y="509" type="line"/>
      <point x="275" y="504" type="line"/>
      <point x="391" y="426" type="line"/>
      <point x="432" y="488" type="line"/>
      <point x="313" y="562" type="line"/>
      <point x="310" y="540" type="line"/>
    </contour>
  </outline>
</glyph>
<glyph name="plus" format="2">
  <advance width="587"/>
  <unicode hex="002B"/>
  <outline>
    <contour>
      <point x="218" y="128" type="line"/>
      <point x="314" y="128" type="line"/>
      <point x="402" y="572" type="line"/>
      <point x="306" y="572" type="line"/>
    </contour>
    <contour>
      <point x="74" y="305" type="line"/>
      <point x="529" y="305" type="line"/>
      <point x="546" y="395" type="line"/>
      <point x="92" y="395" type="line"/>
    </contour>
  </outline>
</glyph>
<glyph name="period" format="2">
  <advance width="235"/>
  <unicode hex="002E"/>
  <outline>
    <contour>
      <point x="75" y="-6" type="curve" smooth="yes"/>
      <point x="116" y="-6"/>
      <point x="153" y="26"/>
      <point x="153" y="74" type="curve" smooth="yes"/>
      <point x="153" y="116"/>
      <point x="123" y="146"/>
      <point x="83" y="146" type="curve" smooth="yes"/>
      <point x="40" y="146"/>
      <point x="4" y="113"/>
      <point x="4" y="65" type="curve" smooth="yes"/>
      <point x="4" y="24"/>
      <point x="35" y="-6"/>
    </contour>
  </outline>
</glyph>
<glyph name="zero" format="2">
  <advance width="669"/>
  <unicode hex="0030"/>
  <outline>
    <contour>
      <point x="294" y="-9" type="curve" smooth="yes"/>
      <point x="510" y="-9"/>
      <point x="649" y="204"/>
      <point x="649" y="450" type="curve" smooth="yes"/>
      <point x="649" y="613"/>
      <point x="558" y="709"/>
      <point x="409" y="709" type="curve" smooth="yes"/>
      <point x="192" y="709"/>
      <point x="53" y="496"/>
      <point x="53" y="250" type="curve" smooth="yes"/>
      <point x="53" y="87"/>
      <point x="144" y="-9"/>
    </contour>
    <contour>
      <point x="303" y="93" type="curve" smooth="yes"/>
      <point x="218" y="93"/>
      <point x="168" y="147"/>
      <point x="168" y="253" type="curve" smooth="yes"/>
      <point x="168" y="407"/>
      <point x="250" y="607"/>
      <point x="400" y="607" type="curve" smooth="yes"/>
      <point x="484" y="607"/>
      <point x="534" y="553"/>
      <point x="534" y="447" type="curve" smooth="yes"/>
      <point x="534" y="293"/>
      <point x="452" y="93"/>
    </contour>
  </outline>
</glyph>
<glyph name="three" format="2">
  <advance width="577"/>
  <unicode hex="0033"/>
  <outline>
    <contour>
      <point x="220" y="-9" type="curve" smooth="yes"/>
      <point x="402" y="-9"/>
      <point x="524" y="90"/>
      <point x="524" y="228" type="curve" smooth="yes"/>
      <point x="524" y="342"/>
      <point x="441" y="411"/>
      <point x="296" y="411" type="curve" smooth="yes"/>
      <point x="270" y="411" type="line"/>
      <point x="327" y="376" type="line"/>
      <point x="578" y="622" type="line"/>
      <point x="592" y="700" type="line"/>
      <point x="123" y="700" type="line"/>
      <point x="103" y="601" type="line"/>
      <point x="485" y="601" type="line"/>
      <point x="472" y="645" type="line"/>
      <point x="222" y="400" type="line"/>
      <point x="206" y="319" type="line"/>
      <point x="264" y="319" type="line" smooth="yes"/>
      <point x="361" y="319"/>
      <point x="409" y="287"/>
      <point x="409" y="222" type="curve" smooth="yes"/>
      <point x="409" y="142"/>
      <point x="343" y="93"/>
      <point x="227" y="93" type="curve" smooth="yes"/>
      <point x="142" y="93"/>
      <point x="71" y="123"/>
      <point x="31" y="166" type="curve"/>
      <point x="-28" y="77" type="line"/>
      <point x="24" y="23"/>
      <point x="114" y="-9"/>
    </contour>
  </outline>
</glyph>
<glyph name="six" format="2">
  <advance width="622"/>
  <unicode hex="0036"/>
  <outline>
    <contour>
      <point x="326" y="-9" type="curve" smooth="yes"/>
      <point x="475" y="-9"/>
      <point x="588" y="82"/>
      <point x="588" y="227" type="curve" smooth="yes"/>
      <point x="588" y="357"/>
      <point x="483" y="429"/>
      <point x="360" y="429" type="curve" smooth="yes"/>
      <point x="256" y="429"/>
      <point x="166" y="389"/>
      <point x="125" y="276" type="curve"/>
      <point x="171" y="258" type="line"/>
      <point x="171" y="273"/>
      <point x="172" y="288"/>
      <point x="174" y="329" type="curve" smooth="yes"/>
      <point x="181" y="467"/>
      <point x="266" y="611"/>
      <point x="448" y="611" type="curve" smooth="yes"/>
      <point x="499" y="611"/>
      <point x="546" y="602"/>
      <point x="583" y="577" type="curve"/>
      <point x="635" y="667" type="line"/>
      <point x="592" y="695"/>
      <point x="525" y="709"/>
      <point x="455" y="709" type="curve" smooth="yes"/>
      <point x="168" y="709"/>
      <point x="55" y="473"/>
      <point x="55" y="279" type="curve" smooth="yes"/>
      <point x="55" y="90"/>
      <point x="167" y="-9"/>
    </contour>
    <contour>
      <point x="323" y="84" type="curve" smooth="yes"/>
      <point x="228" y="84"/>
      <point x="176" y="143"/>
      <point x="176" y="205" type="curve" smooth="yes"/>
      <point x="176" y="281"/>
      <point x="238" y="336"/>
      <point x="334" y="336" type="curve" smooth="yes"/>
      <point x="417" y="336"/>
      <point x="474" y="294"/>
      <point x="474" y="220" type="curve" smooth="yes"/>
      <point x="474" y="135"/>
      <point x="411" y="84"/>
    </contour>
  </outline>
</glyph>
<glyph name="seven" format="2">
  <advance width="603"/>
  <unicode hex="0037"/>
  <outline>
    <contour>
      <point x="113" y="0" type="line"/>
      <point x="238" y="0" type="line"/>
      <point x="637" y="622" type="line"/>
      <point x="652" y="700" type="line"/>
      <point x="116" y="700" type="line"/>
      <point x="72" y="479" type="line"/>
      <point x="182" y="479" type="line"/>
      <point x="218" y="657" type="line"/>
      <point x="149" y="601" type="line"/>
      <point x="556" y="601" type="line"/>
      <point x="532" y="653" type="line"/>
    </contour>
  </outline>
</glyph>
<glyph name="nine" format="2">
  <advance width="622"/>
  <unicode hex="0039"/>
  <outline>
    <contour>
      <point x="330" y="709" type="curve" smooth="yes"/>
      <point x="181" y="709"/>
      <point x="68" y="618"/>
      <point x="68" y="473" type="curve" smooth="yes"/>
      <point x="68" y="343"/>
      <point x="173" y="271"/>
      <point x="296" y="271" type="curve" smooth="yes"/>
      <point x="400" y="271"/>
      <point x="490" y="311"/>
      <point x="531" y="424" type="curve"/>
      <point x="485" y="442" type="line"/>
      <point x="485" y="427"/>
      <point x="484" y="412"/>
      <point x="482" y="371" type="curve" smooth="yes"/>
      <point x="475" y="233"/>
      <point x="390" y="89"/>
      <point x="208" y="89" type="curve" smooth="yes"/>
      <point x="157" y="89"/>
      <point x="110" y="98"/>
      <point x="73" y="123" type="curve"/>
      <point x="21" y="33" type="line"/>
      <point x="64" y="5"/>
      <point x="131" y="-9"/>
      <point x="201" y="-9" type="curve" smooth="yes"/>
      <point x="488" y="-9"/>
      <point x="601" y="227"/>
      <point x="601" y="421" type="curve" smooth="yes"/>
      <point x="601" y="610"/>
      <point x="489" y="709"/>
    </contour>
    <contour>
      <point x="333" y="616" type="curve" smooth="yes"/>
      <point x="428" y="616"/>
      <point x="480" y="557"/>
      <point x="480" y="495" type="curve" smooth="yes"/>
      <point x="480" y="419"/>
      <point x="418" y="364"/>
      <point x="322" y="364" type="curve" smooth="yes"/>
      <point x="239" y="364"/>
      <point x="182" y="406"/>
      <point x="182" y="480" type="curve" smooth="yes"/>
      <point x="182" y="565"/>
      <point x="245" y="616"/>
    </contour>
  </outline>
</glyph>
<glyph name="less" format="2">
  <advance width="586"/>
  <unicode hex="003C"/>
  <outline>
    <contour>
      <point x="582" y="577" type="line"/>
      <point x="93" y="399" type="line"/>
      <point x="73" y="301" type="line"/>
      <point x="492" y="123" type="line"/>
      <point x="510" y="212" type="line"/>
      <point x="121" y="371" type="line"/>
      <point x="111" y="319" type="line"/>
      <point x="562" y="478" type="line"/>
    </contour>
  </outline>
</glyph>
<glyph name="greater" format="2">
  <advance width="586"/>
  <unicode hex="003E"/>
  <outline>
    <contour>
      <point x="39" y="123" type="line"/>
      <point x="527" y="301" type="line"/>
      <point x="547" y="399" type="line"/>
      <point x="130" y="577" type="line"/>
      <point x="112" y="488" type="line"/>
      <point x="497" y="329" type="line"/>
      <point x="507" y="381" type="line"/>
      <point x="59" y="222" type="line"/>
    </contour>
  </outline>
</glyph>
<glyph name="at" format="2">
  <advance width="1034"/>
  <unicode hex="0040"/>
  <outline>
    <contour>
      <point x="445" y="-203" type="curve" smooth="yes"/>
      <point x="519" y="-203"/>
      <point x="600" y="-187"/>
      <point x="659" y="-160" type="curve"/>
      <point x="643" y="-87" type="line"/>
      <point x="586" y="-114"/>
      <point x="519" y="-127"/>
      <point x="451" y="-127" type="curve" smooth="yes"/>
      <point x="237" y="-127"/>
      <point x="122" y="-2"/>
      <point x="122" y="182" type="curve" smooth="yes"/>
      <point x="122" y="433"/>
      <point x="300" y="633"/>
      <point x="576" y="633" type="curve" smooth="yes"/>
      <point x="803" y="633"/>
      <point x="919" y="518"/>
      <point x="919" y="339" type="curve" smooth="yes"/>
      <point x="919" y="219"/>
      <point x="869" y="80"/>
      <point x="790" y="80" type="curve" smooth="yes"/>
      <point x="753" y="80"/>
      <point x="737" y="101"/>
      <point x="746" y="148" type="curve" smooth="yes"/>
      <point x="816" y="499" type="line"/>
      <point x="717" y="499" type="line"/>
      <point x="692" y="374" type="line"/>
      <point x="681" y="248" type="line"/>
      <point x="659" y="189" type="line"/>
      <point x="646" y="132" type="line" smooth="yes"/>
      <point x="627" y="47"/>
      <point x="675" y="-6"/>
      <point x="763" y="-6" type="curve" smooth="yes"/>
      <point x="898" y="-6"/>
      <point x="994" y="160"/>
      <point x="994" y="343" type="curve" smooth="yes"/>
      <point x="994" y="561"/>
      <point x="846" y="708"/>
      <point x="586" y="708" type="curve" smooth="yes"/>
      <point x="257" y="708"/>
      <point x="39" y="475"/>
      <point x="39" y="176" type="curve" smooth="yes"/>
      <point x="39" y="-48"/>
      <point x="190" y="-203"/>
    </contour>
    <contour>
      <point x="463" y="-6" type="curve" smooth="yes"/>
      <point x="642" y="-6"/>
      <point x="733" y="130"/>
      <point x="732" y="295" type="curve" smooth="yes"/>
      <point x="731" y="428"/>
      <point x="657" y="504"/>
      <point x="527" y="504" type="curve" smooth="yes"/>
      <point x="362" y="504"/>
      <point x="247" y="372"/>
      <point x="247" y="208" type="curve" smooth="yes"/>
      <point x="247" y="77"/>
      <point x="339" y="-6"/>
    </contour>
    <contour>
      <point x="486" y="82" type="curve" smooth="yes"/>
      <point x="400" y="82"/>
      <point x="348" y="129"/>
      <point x="348" y="215" type="curve" smooth="yes"/>
      <point x="348" y="335"/>
      <point x="425" y="416"/>
      <point x="531" y="416" type="curve" smooth="yes"/>
      <point x="619" y="416"/>
      <point x="673" y="369"/>
      <point x="673" y="284" type="curve" smooth="yes"/>
      <point x="673" y="170"/>
      <point x="596" y="82"/>
    </contour>
  </outline>
</glyph>
<glyph name="B" format="2">
  <advance width="759"/>
  <unicode hex="0042"/>
  <anchor x="324" y="0" name="bottom"/>
  <anchor x="464" y="700" name="top"/>
  <outline>
    <contour>
      <point x="47" y="0" type="line"/>
      <point x="390" y="0" type="line" smooth="yes"/>
      <point x="573" y="0"/>
      <point x="697" y="73"/>
      <point x="697" y="220" type="curve" smooth="yes"/>
      <point x="697" y="320"/>
      <point x="628" y="374"/>
      <point x="528" y="374" type="curve"/>
      <point x="504" y="342" type="line"/>
      <point x="616" y="342"/>
      <point x="727" y="412"/>
      <point x="727" y="544" type="curve" smooth="yes"/>
      <point x="727" y="646"/>
      <point x="645" y="700"/>
      <point x="503" y="700" type="curve" smooth="yes"/>
      <point x="187" y="700" type="line"/>
    </contour>
    <contour>
      <point x="180" y="93" type="line"/>
      <point x="282" y="607" type="line"/>
      <point x="478" y="607" type="line" smooth="yes"/>
      <point x="560" y="607"/>
      <point x="608" y="582"/>
      <point x="608" y="525" type="curve" smooth="yes"/>
      <point x="608" y="442"/>
      <point x="539" y="401"/>
      <point x="435" y="401" type="curve" smooth="yes"/>
      <point x="222" y="401" type="line"/>
      <point x="204" y="308" type="line"/>
      <point x="447" y="308" type="line" smooth="yes"/>
      <point x="534" y="308"/>
      <point x="583" y="285"/>
      <point x="583" y="219" type="curve" smooth="yes"/>
      <point x="583" y="136"/>
      <point x="515" y="93"/>
      <point x="398" y="93" type="curve" smooth="yes"/>
    </contour>
  </outline>
</glyph>
<glyph name="E" format="2">
  <advance width="670"/>
  <unicode hex="0045"/>
  <anchor x="308" y="0" name="bottom"/>
  <anchor x="563" y="0" name="ogonek"/>
  <anchor x="438" y="700" name="top"/>
  <anchor x="106" y="700" name="topleft"/>
  <outline>
    <contour>
      <point x="233" y="404" type="line"/>
      <point x="214" y="307" type="line"/>
      <point x="568" y="307" type="line"/>
      <point x="587" y="404" type="line"/>
    </contour>
    <contour>
      <point x="181" y="99" type="line"/>
      <point x="281" y="601" type="line"/>
      <point x="669" y="601" type="line"/>
      <point x="689" y="700" type="line"/>
      <point x="187" y="700" type="line"/>
      <point x="47" y="0" type="line"/>
      <point x="563" y="0" type="line"/>
      <point x="583" y="99" type="line"/>
    </contour>
  </outline>
</glyph>
<glyph name="F" format="2">
  <advance width="636"/>
  <unicode hex="0046"/>
  <outline>
    <contour>
      <point x="226" y="374" type="line"/>
      <point x="206" y="275" type="line"/>
      <point x="561" y="275" type="line"/>
      <point x="581" y="374" type="line"/>
    </contour>
    <contour>
      <point x="161" y="0" type="line"/>
      <point x="281" y="601" type="line"/>
      <point x="669" y="601" type="line"/>
      <point x="689" y="700" type="line"/>
      <point x="187" y="700" type="line"/>
      <point x="47" y="0" type="line"/>
    </contour>
  </outline>
</glyph>
<glyph name="H" format="2">
  <advance width="811"/>
  <unicode hex="0048"/>
  <anchor x="352" y="0" name="bottom"/>
  <anchor x="463" y="556" name="center"/>
  <anchor x="492" y="700" name="top"/>
  <outline>
    <contour>
      <point x="684" y="700" type="line"/>
      <point x="544" y="0" type="line"/>
      <point x="658" y="0" type="line"/>
      <point x="798" y="700" type="line"/>
    </contour>
    <contour>
      <point x="161" y="0" type="line"/>
      <point x="301" y="700" type="line"/>
      <point x="187" y="700" type="line"/>
      <point x="47" y="0" type="line"/>
    </contour>
    <contour>
      <point x="615" y="306" type="line"/>
      <point x="635" y="405" type="line"/>
      <point x="233" y="405" type="line"/>
      <point x="214" y="306" type="line"/>
    </contour>
  </outline>
</glyph>
<glyph name="K" format="2">
  <advance width="724"/>
  <unicode hex="004B"/>
  <anchor x="323" y="0" name="bottom"/>
  <anchor x="463" y="700" name="top"/>
  <outline>
    <contour>
      <point x="186" y="171" type="line"/>
      <point x="354" y="316" type="line"/>
      <point x="426" y="375" type="line"/>
      <point x="802" y="700" type="line"/>
      <point x="654" y="700" type="line"/>
      <point x="200" y="308" type="line"/>
    </contour>
    <contour>
      <point x="47" y="0" type="line"/>
      <point x="161" y="0" type="line"/>
      <point x="301" y="700" type="line"/>
      <point x="187" y="700" type="line"/>
    </contour>
    <contour>
      <point x="547" y="0" type="line"/>
      <point x="675" y="0" type="line"/>
      <point x="402" y="404" type="line"/>
      <point x="326" y="326" type="line"/>
    </contour>
  </outline>
</glyph>
<glyph name="L" format="2">
  <advance width="596"/>
  <unicode hex="004C"/>
  <anchor x="302" y="0" name="bottom"/>
  <anchor x="180" y="379" name="center"/>
  <anchor x="482" y="399" name="dot"/>
  <anchor x="245" y="700" name="top"/>
  <anchor x="524" y="700" name="topright"/>
  <outline>
    <contour>
      <point x="47" y="0" type="line"/>
      <point x="534" y="0" type="line"/>
      <point x="554" y="99" type="line"/>
      <point x="181" y="99" type="line"/>
      <point x="301" y="700" type="line"/>
      <point x="187" y="700" type="line"/>
    </contour>
  </outline>
</glyph>
<glyph name="M" format="2">
  <advance width="955"/>
  <unicode hex="004D"/>
  <anchor x="425" y="0" name="bottom"/>
  <anchor x="565" y="700" name="top"/>
  <outline>
    <contour>
      <point x="47" y="0" type="line"/>
      <point x="157" y="0" type="line"/>
      <point x="262" y="526" type="line"/>
      <point x="239" y="530" type="line"/>
      <point x="422" y="82" type="line"/>
      <point x="474" y="82" type="line"/>
      <point x="826" y="528" type="line"/>
      <point x="798" y="530" type="line"/>
      <point x="692" y="0" type="line"/>
      <point x="802" y="0" type="line"/>
      <point x="942" y="700" type="line"/>
      <point x="843" y="700" type="line"/>
      <point x="438" y="180" type="line"/>
      <point x="487" y="179" type="line"/>
      <point x="280" y="700" type="line"/>
      <point x="187" y="700" type="line"/>
    </contour>
  </outline>
</glyph>
<glyph name="R" format="2">
  <advance width="729"/>
  <unicode hex="0052"/>
  <anchor x="318" y="0" name="bottom"/>
  <anchor x="458" y="700" name="top"/>
  <outline>
    <contour>
      <point x="47" y="0" type="line"/>
      <point x="162" y="0" type="line"/>
      <point x="214" y="262" type="line"/>
      <point x="155" y="209" type="line"/>
      <point x="384" y="209" type="line" smooth="yes"/>
      <point x="588" y="209"/>
      <point x="715" y="315"/>
      <point x="715" y="492" type="curve" smooth="yes"/>
      <point x="715" y="623"/>
      <point x="619" y="700"/>
      <point x="453" y="700" type="curve" smooth="yes"/>
      <point x="187" y="700" type="line"/>
    </contour>
    <contour>
      <point x="512" y="0" type="line"/>
      <point x="634" y="0" type="line"/>
      <point x="491" y="254" type="line"/>
      <point x="369" y="254" type="line"/>
    </contour>
    <contour>
      <point x="211" y="249" type="line"/>
      <point x="294" y="659" type="line"/>
      <point x="235" y="601" type="line"/>
      <point x="442" y="601" type="line" smooth="yes"/>
      <point x="543" y="601"/>
      <point x="600" y="561"/>
      <point x="600" y="481" type="curve" smooth="yes"/>
      <point x="600" y="366"/>
      <point x="522" y="306"/>
      <point x="387" y="306" type="curve" smooth="yes"/>
      <point x="173" y="306" type="line"/>
    </contour>
  </outline>
</glyph>
<glyph name="U" format="2">
  <advance width="790"/>
  <unicode hex="0055"/>
  <anchor x="342" y="0" name="bottom"/>
  <anchor x="546" y="0" name="ogonek"/>
  <anchor x="482" y="700" name="top"/>
  <anchor x="745" y="700" name="topright"/>
  <outline>
    <contour>
      <point x="362" y="-9" type="curve" smooth="yes"/>
      <point x="546" y="-9"/>
      <point x="661" y="93"/>
      <point x="702" y="298" type="curve" smooth="yes"/>
      <point x="782" y="700" type="line"/>
      <point x="670" y="700" type="line"/>
      <point x="591" y="306" type="line" smooth="yes"/>
      <point x="561" y="158"/>
      <point x="490" y="93"/>
      <point x="373" y="93" type="curve" smooth="yes"/>
      <point x="247" y="93"/>
      <point x="188" y="163"/>
      <point x="216" y="305" type="curve" smooth="yes"/>
      <point x="295" y="700" type="line"/>
      <point x="181" y="700" type="line"/>
      <point x="102" y="304" type="line" smooth="yes"/>
      <point x="64" y="112"/>
      <point x="166" y="-9"/>
    </contour>
  </outline>
</glyph>
<glyph name="V" format="2">
  <advance width="720"/>
  <unicode hex="0056"/>
  <outline>
    <contour>
      <point x="251" y="0" type="line"/>
      <point x="363" y="0" type="line"/>
      <point x="810" y="700" type="line"/>
      <point x="691" y="700" type="line"/>
      <point x="280" y="61" type="line"/>
      <point x="352" y="61" type="line"/>
      <point x="202" y="700" type="line"/>
      <point x="84" y="700" type="line"/>
    </contour>
  </outline>
</glyph>
<glyph name="W" format="2">
  <advance width="1135"/>
  <unicode hex="0057"/>
  <anchor x="514" y="0" name="bottom"/>
  <anchor x="654" y="700" name="top"/>
  <outline>
    <contour>
      <point x="209" y="0" type="line"/>
      <point x="331" y="0" type="line"/>
      <point x="651" y="583" type="line"/>
      <point x="617" y="583" type="line"/>
      <point x="698" y="0" type="line"/>
      <point x="820" y="0" type="line"/>
      <point x="1193" y="700" type="line"/>
      <point x="1079" y="700" type="line"/>
      <point x="736" y="62" type="line"/>
      <point x="792" y="62" type="line"/>
      <point x="707" y="700" type="line"/>
      <point x="601" y="700" type="line"/>
      <point x="255" y="62" type="line"/>
      <point x="313" y="62" type="line"/>
      <point x="229" y="700" type="line"/>
      <point x="116" y="700" type="line"/>
    </contour>
  </outline>
</glyph>
<glyph name="underscore" format="2">
  <advance width="500"/>
  <unicode hex="005F"/>
  <outline>
    <contour>
      <point x="-67" y="-70" type="line"/>
      <point x="433" y="-70" type="line"/>
      <point x="447" y="0" type="line"/>
      <point x="-53" y="0" type="line"/>
    </contour>
  </outline>
</glyph>
<glyph name="a" format="2">
  <advance width="684"/>
  <unicode hex="0061"/>
  <anchor x="286" y="0" name="bottom"/>
  <anchor x="544" y="0" name="ogonek"/>
  <anchor x="391" y="532" name="top"/>
  <outline>
    <contour>
      <point x="273" y="-6" type="curve" smooth="yes"/>
      <point x="449" y="-6"/>
      <point x="555" y="129"/>
      <point x="555" y="330" type="curve" smooth="yes"/>
      <point x="555" y="464"/>
      <point x="473" y="538"/>
      <point x="338" y="538" type="curve" smooth="yes"/>
      <point x="165" y="538"/>
      <point x="36" y="408"/>
      <point x="36" y="226" type="curve" smooth="yes"/>
      <point x="36" y="80"/>
      <point x="138" y="-6"/>
    </contour>
    <contour>
      <point x="297" y="90" type="curve" smooth="yes"/>
      <point x="201" y="90"/>
      <point x="147" y="143"/>
      <point x="147" y="231" type="curve" smooth="yes"/>
      <point x="147" y="355"/>
      <point x="230" y="442"/>
      <point x="343" y="442" type="curve" smooth="yes"/>
      <point x="439" y="442"/>
      <point x="493" y="389"/>
      <point x="493" y="301" type="curve" smooth="yes"/>
      <point x="493" y="177"/>
      <point x="410" y="90"/>
    </contour>
    <contour>
      <point x="439" y="0" type="line"/>
      <point x="544" y="0" type="line"/>
      <point x="650" y="532" type="line"/>
      <point x="540" y="532" type="line"/>
      <point x="513" y="397" type="line"/>
      <point x="498" y="262" type="line"/>
      <point x="465" y="129" type="line"/>
    </contour>
  </outline>
</glyph>
<glyph name="b" format="2">
  <advance width="684"/>
  <unicode hex="0062"/>
  <outline>
    <contour>
      <point x="34" y="0" type="line"/>
      <point x="139" y="0" type="line"/>
      <point x="169" y="150" type="line"/>
      <point x="187" y="270" type="line"/>
      <point x="224" y="401" type="line"/>
      <point x="292" y="742" type="line"/>
      <point x="182" y="742" type="line"/>
    </contour>
    <contour>
      <point x="346" y="-6" type="curve" smooth="yes"/>
      <point x="519" y="-6"/>
      <point x="648" y="124"/>
      <point x="648" y="306" type="curve" smooth="yes"/>
      <point x="648" y="452"/>
      <point x="546" y="538"/>
      <point x="411" y="538" type="curve" smooth="yes"/>
      <point x="235" y="538"/>
      <point x="129" y="403"/>
      <point x="129" y="202" type="curve" smooth="yes"/>
      <point x="129" y="68"/>
      <point x="211" y="-6"/>
    </contour>
    <contour>
      <point x="341" y="90" type="curve" smooth="yes"/>
      <point x="245" y="90"/>
      <point x="191" y="143"/>
      <point x="191" y="231" type="curve" smooth="yes"/>
      <point x="191" y="355"/>
      <point x="274" y="442"/>
      <point x="387" y="442" type="curve" smooth="yes"/>
      <point x="483" y="442"/>
      <point x="537" y="389"/>
      <point x="537" y="301" type="curve" smooth="yes"/>
      <point x="537" y="177"/>
      <point x="454" y="90"/>
    </contour>
  </outline>
</glyph>
<glyph name="g" format="2">
  <advance width="692"/>
  <unicode hex="0067"/>
  <anchor x="385" y="532" name="top"/>
  <outline>
    <contour>
      <point x="244" y="-200" type="curve" smooth="yes"/>
      <point x="422" y="-200"/>
      <point x="528" y="-119"/>
      <point x="567" y="77" type="curve" smooth="yes"/>
      <point x="658" y="532" type="line"/>
      <point x="553" y="532" type="line"/>
      <point x="526" y="395" type="line"/>
      <point x="509" y="281" type="line"/>
      <point x="477" y="175" type="line"/>
      <point x="454" y="59" type="line" smooth="yes"/>
      <point x="432" y="-49"/>
      <point x="373" y="-103"/>
      <point x="252" y="-103" type="curve" smooth="yes"/>
      <point x="170" y="-103"/>
      <point x="98" y="-78"/>
      <point x="57" y="-42" type="curve"/>
      <point x="-3" y="-127" type="line"/>
      <point x="57" y="-175"/>
      <point x="142" y="-200"/>
    </contour>
    <contour>
      <point x="278" y="23" type="curve" smooth="yes"/>
      <point x="458" y="23"/>
      <point x="561" y="163"/>
      <point x="561" y="340" type="curve" smooth="yes"/>
      <point x="561" y="479"/>
      <point x="459" y="538"/>
      <point x="343" y="538" type="curve" smooth="yes"/>
      <point x="165" y="538"/>
      <point x="39" y="409"/>
      <point x="39" y="242" type="curve" smooth="yes"/>
      <point x="39" y="106"/>
      <point x="137" y="23"/>
    </contour>
    <contour>
      <point x="300" y="119" type="curve" smooth="yes"/>
      <point x="206" y="119"/>
      <point x="150" y="168"/>
      <point x="150" y="248" type="curve" smooth="yes"/>
      <point x="150" y="361"/>
      <point x="232" y="442"/>
      <point x="346" y="442" type="curve" smooth="yes"/>
      <point x="441" y="442"/>
      <point x="496" y="393"/>
      <point x="496" y="313" type="curve" smooth="yes"/>
      <point x="496" y="200"/>
      <point x="414" y="119"/>
    </contour>
  </outline>
</glyph>
<glyph name="k" format="2">
  <advance width="615"/>
  <unicode hex="006B"/>
  <anchor x="262" y="0" name="bottom"/>
  <anchor x="237" y="742" name="top"/>
  <anchor x="312" y="532" name="topright"/>
  <outline>
    <contour>
      <point x="152" y="130" type="line"/>
      <point x="308" y="252" type="line"/>
      <point x="366" y="295" type="line"/>
      <point x="666" y="532" type="line"/>
      <point x="512" y="532" type="line"/>
      <point x="175" y="265" type="line"/>
    </contour>
    <contour>
      <point x="34" y="0" type="line"/>
      <point x="144" y="0" type="line"/>
      <point x="292" y="742" type="line"/>
      <point x="182" y="742" type="line"/>
    </contour>
    <contour>
      <point x="443" y="0" type="line"/>
      <point x="570" y="0" type="line"/>
      <point x="364" y="334" type="line"/>
      <point x="289" y="249" type="line"/>
    </contour>
  </outline>
</glyph>
<glyph name="q" format="2">
  <advance width="684"/>
  <unicode hex="0071"/>
  <anchor x="245" y="0" name="bottom"/>
  <anchor x="373" y="532" name="top"/>
  <outline>
    <contour>
      <point x="273" y="-6" type="curve" smooth="yes"/>
      <point x="449" y="-6"/>
      <point x="555" y="129"/>
      <point x="555" y="330" type="curve" smooth="yes"/>
      <point x="555" y="464"/>
      <point x="473" y="538"/>
      <point x="338" y="538" type="curve" smooth="yes"/>
      <point x="165" y="538"/>
      <point x="36" y="408"/>
      <point x="36" y="226" type="curve" smooth="yes"/>
      <point x="36" y="80"/>
      <point x="138" y="-6"/>
    </contour>
    <contour>
      <point x="297" y="90" type="curve" smooth="yes"/>
      <point x="201" y="90"/>
      <point x="147" y="143"/>
      <point x="147" y="231" type="curve" smooth="yes"/>
      <point x="147" y="355"/>
      <point x="230" y="442"/>
      <point x="343" y="442" type="curve" smooth="yes"/>
      <point x="439" y="442"/>
      <point x="493" y="389"/>
      <point x="493" y="301" type="curve" smooth="yes"/>
      <point x="493" y="177"/>
      <point x="410" y="90"/>
    </contour>
    <contour>
      <point x="395" y="-194" type="line"/>
      <point x="505" y="-194" type="line"/>
      <point x="650" y="532" type="line"/>
      <point x="545" y="532" type="line"/>
      <point x="515" y="382" type="line"/>
      <point x="497" y="262" type="line"/>
      <point x="460" y="131" type="line"/>
    </contour>
  </outline>
</glyph>
<glyph name="s" format="2">
  <advance width="508"/>
  <unicode hex="0073"/>
  <anchor x="198" y="0" name="bottom"/>
  <anchor x="304" y="532" name="top"/>
  <outline>
    <contour>
      <point x="209" y="-6" type="curve" smooth="yes"/>
      <point x="356" y="-6"/>
      <point x="458" y="56"/>
      <point x="458" y="170" type="curve" smooth="yes"/>
      <point x="458" y="347"/>
      <point x="167" y="276"/>
      <point x="167" y="374" type="curve" smooth="yes"/>
      <point x="167" y="414"/>
      <point x="209" y="444"/>
      <point x="294" y="444" type="curve" smooth="yes"/>
      <point x="347" y="444"/>
      <point x="406" y="433"/>
      <point x="451" y="403" type="curve"/>
      <point x="493" y="491" type="line"/>
      <point x="449" y="520"/>
      <point x="375" y="538"/>
      <point x="304" y="538" type="curve" smooth="yes"/>
      <point x="155" y="538"/>
      <point x="58" y="469"/>
      <point x="58" y="362" type="curve" smooth="yes"/>
      <point x="58" y="181"/>
      <point x="349" y="251"/>
      <point x="349" y="157" type="curve" smooth="yes"/>
      <point x="349" y="114"/>
      <point x="307" y="88"/>
      <point x="220" y="88" type="curve" smooth="yes"/>
      <point x="147" y="88"/>
      <point x="76" y="109"/>
      <point x="35" y="140" type="curve"/>
      <point x="-14" y="53" type="line"/>
      <point x="30" y="19"/>
      <point x="117" y="-6"/>
    </contour>
  </outline>
</glyph>
<glyph name="t" format="2">
  <advance width="419"/>
  <unicode hex="0074"/>
  <anchor x="202" y="0" name="bottom"/>
  <anchor x="191" y="284" name="center"/>
  <anchor x="233" y="649" name="top"/>
  <anchor x="387" y="742" name="topright"/>
  <outline>
    <contour>
      <point x="225" y="-6" type="curve" smooth="yes"/>
      <point x="268" y="-6"/>
      <point x="314" y="1"/>
      <point x="351" y="26" type="curve"/>
      <point x="330" y="109" type="line"/>
      <point x="308" y="94"/>
      <point x="281" y="86"/>
      <point x="257" y="86" type="curve" smooth="yes"/>
      <point x="201" y="86"/>
      <point x="183" y="122"/>
      <point x="193" y="174" type="curve" smooth="yes"/>
      <point x="288" y="649" type="line"/>
      <point x="178" y="649" type="line"/>
      <point x="83" y="173" type="line" smooth="yes"/>
      <point x="61" y="62"/>
      <point x="126" y="-6"/>
    </contour>
    <contour>
      <point x="48" y="442" type="line"/>
      <point x="395" y="442" type="line"/>
      <point x="413" y="532" type="line"/>
      <point x="66" y="532" type="line"/>
    </contour>
  </outline>
</glyph>
<glyph name="v" format="2">
  <advance width="568"/>
  <unicode hex="0076"/>
  <anchor x="231" y="0" name="bottom"/>
  <anchor x="337" y="532" name="top"/>
  <outline>
    <contour>
      <point x="175" y="0" type="line"/>
      <point x="288" y="0" type="line"/>
      <point x="624" y="532" type="line"/>
      <point x="513" y="532" type="line"/>
      <point x="213" y="57" type="line"/>
      <point x="268" y="57" type="line"/>
      <point x="159" y="532" type="line"/>
      <point x="50" y="532" type="line"/>
    </contour>
  </outline>
</glyph>
<glyph name="w" format="2">
  <advance width="913"/>
  <unicode hex="0077"/>
  <anchor x="410" y="0" name="bottom"/>
  <anchor x="509" y="532" name="top"/>
  <outline>
    <contour>
      <point x="155" y="0" type="line"/>
      <point x="261" y="0" type="line"/>
      <point x="506" y="427" type="line"/>
      <point x="473" y="427" type="line"/>
      <point x="558" y="0" type="line"/>
      <point x="666" y="0" type="line"/>
      <point x="964" y="532" type="line"/>
      <point x="860" y="532" type="line"/>
      <point x="592" y="57" type="line"/>
      <point x="643" y="57" type="line"/>
      <point x="555" y="532" type="line"/>
      <point x="461" y="532" type="line"/>
      <point x="190" y="57" type="line"/>
      <point x="241" y="57" type="line"/>
      <point x="155" y="532" type="line"/>
      <point x="55" y="532" type="line"/>
    </contour>
  </outline>
</glyph>
<glyph name="x" format="2">
  <advance width="562"/>
  <unicode hex="0078"/>
  <outline>
    <contour>
      <point x="-43" y="0" type="line"/>
      <point x="85" y="0" type="line"/>
      <point x="301" y="227" type="line"/>
      <point x="251" y="228" type="line"/>
      <point x="378" y="0" type="line"/>
      <point x="494" y="0" type="line"/>
      <point x="322" y="301" type="line"/>
      <point x="313" y="239" type="line"/>
      <point x="596" y="532" type="line"/>
      <point x="472" y="532" type="line"/>
      <point x="264" y="315" type="line"/>
      <point x="315" y="314" type="line"/>
      <point x="193" y="532" type="line"/>
      <point x="79" y="532" type="line"/>
      <point x="241" y="247" type="line"/>
      <point x="253" y="304" type="line"/>
    </contour>
  </outline>
</glyph>
<glyph name="asciitilde" format="2">
  <advance width="586"/>
  <unicode hex="007E"/>
  <outline>
    <contour>
      <point x="410" y="261" type="curve" smooth="yes"/>
      <point x="480" y="261"/>
      <point x="546" y="316"/>
      <point x="563" y="433" type="curve"/>
      <point x="492" y="433" type="line"/>
      <point x="481" y="380"/>
      <point x="450" y="345"/>
      <point x="406" y="345" type="curve" smooth="yes"/>
      <point x="340" y="345"/>
      <point x="320" y="440"/>
      <point x="212" y="440" type="curve" smooth="yes"/>
      <point x="142" y="440"/>
      <point x="74" y="386"/>
      <point x="58" y="269" type="curve"/>
      <point x="129" y="269" type="line"/>
      <point x="140" y="322"/>
      <point x="171" y="356"/>
      <point x="215" y="356" type="curve" smooth="yes"/>
      <point x="281" y="356"/>
      <point x="302" y="261"/>
    </contour>
  </outline>
</glyph>
<glyph name="currency" format="2">
  <advance width="700"/>
  <unicode hex="00A4"/>
  <outline>
    <contour>
      <point x="154" y="457" type="line"/>
      <point x="217" y="525" type="line"/>
      <point x="102" y="639" type="line"/>
      <point x="40" y="571" type="line"/>
    </contour>
    <contour>
      <point x="565" y="457" type="line"/>
      <point x="680" y="571" type="line"/>
      <point x="617" y="639" type="line"/>
      <point x="502" y="525" type="line"/>
    </contour>
    <contour>
      <point x="617" y="-4" type="line"/>
      <point x="680" y="64" type="line"/>
      <point x="565" y="178" type="line"/>
      <point x="502" y="110" type="line"/>
    </contour>
    <contour>
      <point x="102" y="-4" type="line"/>
      <point x="217" y="110" type="line"/>
      <point x="154" y="178" type="line"/>
      <point x="40" y="64" type="line"/>
    </contour>
    <contour>
      <point x="360" y="57" type="curve" smooth="yes"/>
      <point x="509" y="57"/>
      <point x="630" y="175"/>
      <point x="630" y="319" type="curve" smooth="yes"/>
      <point x="630" y="465"/>
      <point x="509" y="583"/>
      <point x="360" y="583" type="curve" smooth="yes"/>
      <point x="212" y="583"/>
      <point x="91" y="465"/>
      <point x="91" y="319" type="curve" smooth="yes"/>
      <point x="91" y="175"/>
      <point x="212" y="57"/>
    </contour>
    <contour>
      <point x="360" y="147" type="curve" smooth="yes"/>
      <point x="261" y="147"/>
      <point x="180" y="225"/>
      <point x="180" y="319" type="curve" smooth="yes"/>
      <point x="180" y="415"/>
      <point x="261" y="493"/>
      <point x="360" y="493" type="curve" smooth="yes"/>
      <point x="459" y="493"/>
      <point x="542" y="415"/>
      <point x="542" y="319" type="curve" smooth="yes"/>
      <point x="542" y="225"/>
      <point x="459" y="147"/>
    </contour>
  </outline>
</glyph>
<glyph name="brokenbar" format="2">
  <advance width="301"/>
  <unicode hex="00A6"/>
  <outline>
    <contour>
      <point x="125" y="392" type="line"/>
      <point x="226" y="392" type="line"/>
      <point x="296" y="742" type="line"/>
      <point x="195" y="742" type="line"/>
    </contour>
    <contour>
      <point x="8" y="-194" type="line"/>
      <point x="109" y="-194" type="line"/>
      <point x="179" y="156" type="line"/>
      <point x="78" y="156" type="line"/>
    </contour>
  </outline>
</glyph>
<glyph name="section" format="2">
  <advance width="505"/>
  <unicode hex="00A7"/>
  <outline>
    <contour>
      <point x="344" y="147" type="line"/>
      <point x="419" y="172"/>
      <point x="480" y="231"/>
      <point x="480" y="309" type="curve" smooth="yes"/>
      <point x="480" y="493"/>
      <point x="207" y="427"/>
      <point x="207" y="534" type="curve" smooth="yes"/>
      <point x="207" y="579"/>
      <point x="257" y="619"/>
      <point x="355" y="619" type="curve" smooth="yes"/>
      <point x="409" y="619"/>
      <point x="466" y="606"/>
      <point x="510" y="575" type="curve"/>
      <point x="554" y="657" type="line"/>
      <point x="508" y="690"/>
      <point x="429" y="706"/>
      <point x="363" y="706" type="curve" smooth="yes"/>
      <point x="215" y="706"/>
      <point x="109" y="637"/>
      <point x="109" y="529" type="curve" smooth="yes"/>
      <point x="109" y="344"/>
      <point x="384" y="414"/>
      <point x="384" y="299" type="curve" smooth="yes"/>
      <point x="384" y="253"/>
      <point x="344" y="216"/>
      <point x="274" y="200" type="curve"/>
    </contour>
    <contour>
      <point x="164" y="-106" type="curve" smooth="yes"/>
      <point x="309" y="-106"/>
      <point x="411" y="-35"/>
      <point x="411" y="72" type="curve" smooth="yes"/>
      <point x="411" y="254"/>
      <point x="135" y="191"/>
      <point x="135" y="301" type="curve" smooth="yes"/>
      <point x="135" y="345"/>
      <point x="173" y="383"/>
      <point x="242" y="400" type="curve"/>
      <point x="173" y="453" type="line"/>
      <point x="97" y="427"/>
      <point x="39" y="364"/>
      <point x="39" y="291" type="curve" smooth="yes"/>
      <point x="39" y="113"/>
      <point x="313" y="172"/>
      <point x="313" y="67" type="curve" smooth="yes"/>
      <point x="313" y="20"/>
      <point x="263" y="-18"/>
      <point x="178" y="-18" type="curve" smooth="yes"/>
      <point x="109" y="-18"/>
      <point x="57" y="1"/>
      <point x="10" y="39" type="curve"/>
      <point x="-34" y="-43" type="line"/>
      <point x="12" y="-83"/>
      <point x="86" y="-106"/>
    </contour>
  </outline>
</glyph>
<glyph name="ordfeminine" format="2">
  <advance width="407"/>
  <unicode hex="00AA"/>
  <outline>
    <contour>
      <point x="304" y="427" type="line"/>
      <point x="377" y="427" type="line"/>
      <point x="413" y="607" type="line" smooth="yes"/>
      <point x="432" y="702"/>
      <point x="379" y="748"/>
      <point x="278" y="748" type="curve" smooth="yes"/>
      <point x="225" y="748"/>
      <point x="168" y="733"/>
      <point x="132" y="708" type="curve"/>
      <point x="153" y="656" type="line"/>
      <point x="182" y="676"/>
      <point x="226" y="688"/>
      <point x="265" y="688" type="curve" smooth="yes"/>
      <point x="319" y="688"/>
      <point x="347" y="662"/>
      <point x="337" y="615" type="curve" smooth="yes"/>
      <point x="314" y="504" type="line"/>
      <point x="317" y="492" type="line"/>
    </contour>
    <contour>
      <point x="201" y="423" type="curve" smooth="yes"/>
      <point x="271" y="423"/>
      <point x="302" y="450"/>
      <point x="326" y="478" type="curve"/>
      <point x="321" y="521" type="line"/>
      <point x="296" y="491"/>
      <point x="264" y="477"/>
      <point x="221" y="477" type="curve" smooth="yes"/>
      <point x="181" y="477"/>
      <point x="160" y="491"/>
      <point x="160" y="515" type="curve" smooth="yes"/>
      <point x="160" y="547"/>
      <point x="188" y="563"/>
      <point x="239" y="563" type="curve" smooth="yes"/>
      <point x="337" y="563" type="line"/>
      <point x="345" y="612" type="line"/>
      <point x="236" y="612" type="line" smooth="yes"/>
      <point x="148" y="612"/>
      <point x="85" y="577"/>
      <point x="85" y="507" type="curve" smooth="yes"/>
      <point x="85" y="462"/>
      <point x="126" y="423"/>
    </contour>
  </outline>
</glyph>
<glyph name="logicalnot" format="2">
  <advance width="588"/>
  <unicode hex="00AC"/>
  <outline>
    <contour>
      <point x="546" y="396" type="line"/>
      <point x="92" y="396" type="line"/>
      <point x="74" y="306" type="line"/>
      <point x="434" y="306" type="line"/>
      <point x="398" y="128" type="line"/>
      <point x="494" y="128" type="line"/>
    </contour>
  </outline>
</glyph>
<glyph name="registered" format="2">
  <advance width="798"/>
  <unicode hex="00AE"/>
  <outline>
    <contour>
      <point x="415" y="-3" type="curve" smooth="yes"/>
      <point x="614" y="-3"/>
      <point x="769" y="153"/>
      <point x="769" y="352" type="curve" smooth="yes"/>
      <point x="769" y="551"/>
      <point x="618" y="703"/>
      <point x="417" y="703" type="curve" smooth="yes"/>
      <point x="216" y="703"/>
      <point x="63" y="547"/>
      <point x="63" y="350" type="curve" smooth="yes"/>
      <point x="63" y="153"/>
      <point x="216" y="-3"/>
    </contour>
    <contour>
      <point x="528" y="152" type="line"/>
      <point x="605" y="152" type="line"/>
      <point x="506" y="304" type="line"/>
      <point x="429" y="304" type="line"/>
    </contour>
    <contour>
      <point x="415" y="47" type="curve" smooth="yes"/>
      <point x="243" y="47"/>
      <point x="115" y="180"/>
      <point x="115" y="350" type="curve" smooth="yes"/>
      <point x="115" y="520"/>
      <point x="243" y="653"/>
      <point x="417" y="653" type="curve" smooth="yes"/>
      <point x="590" y="653"/>
      <point x="717" y="523"/>
      <point x="717" y="352" type="curve" smooth="yes"/>
      <point x="717" y="181"/>
      <point x="586" y="47"/>
    </contour>
    <contour>
      <point x="271" y="152" type="line"/>
      <point x="348" y="152" type="line"/>
      <point x="348" y="275" type="line"/>
      <point x="433" y="275" type="line" smooth="yes"/>
      <point x="535" y="275"/>
      <point x="597" y="325"/>
      <point x="597" y="412" type="curve" smooth="yes"/>
      <point x="597" y="495"/>
      <point x="535" y="548"/>
      <point x="433" y="548" type="curve" smooth="yes"/>
      <point x="271" y="548" type="line"/>
    </contour>
    <contour>
      <point x="347" y="338" type="line"/>
      <point x="347" y="485" type="line"/>
      <point x="428" y="485" type="line" smooth="yes"/>
      <point x="488" y="485"/>
      <point x="523" y="459"/>
      <point x="523" y="412" type="curve" smooth="yes"/>
      <point x="523" y="365"/>
      <point x="488" y="338"/>
      <point x="428" y="338" type="curve" smooth="yes"/>
    </contour>
  </outline>
</glyph>
<glyph name="plusminus" format="2">
  <advance width="586"/>
  <unicode hex="00B1"/>
  <outline>
    <contour>
      <point x="13" y="0" type="line"/>
      <point x="467" y="0" type="line"/>
      <point x="485" y="92" type="line"/>
      <point x="31" y="92" type="line"/>
    </contour>
    <contour>
      <point x="229" y="191" type="line"/>
      <point x="325" y="191" type="line"/>
      <point x="411" y="623" type="line"/>
      <point x="315" y="623" type="line"/>
    </contour>
    <contour>
      <point x="84" y="362" type="line"/>
      <point x="538" y="362" type="line"/>
      <point x="556" y="452" type="line"/>
      <point x="102" y="452" type="line"/>
    </contour>
  </outline>
</glyph>
<glyph name="questiondown" format="2">
  <advance width="577"/>
  <unicode hex="00BF"/>
  <outline>
    <contour>
      <point x="235" y="-163" type="curve" smooth="yes"/>
      <point x="355" y="-163"/>
      <point x="450" y="-122"/>
      <point x="508" y="-52" type="curve"/>
      <point x="435" y="13" type="line"/>
      <point x="390" y="-38"/>
      <point x="331" y="-66"/>
      <point x="253" y="-66" type="curve" smooth="yes"/>
      <point x="174" y="-66"/>
      <point x="131" y="-33"/>
      <point x="131" y="13" type="curve" smooth="yes"/>
      <point x="131" y="131"/>
      <point x="334" y="152"/>
      <point x="363" y="305" type="curve"/>
      <point x="248" y="305" type="line"/>
      <point x="213" y="183"/>
      <point x="16" y="167"/>
      <point x="16" y="-4" type="curve" smooth="yes"/>
      <point x="16" y="-100"/>
      <point x="101" y="-163"/>
    </contour>
    <contour>
      <point x="335" y="396" type="curve" smooth="yes"/>
      <point x="377" y="396"/>
      <point x="410" y="428"/>
      <point x="410" y="472" type="curve" smooth="yes"/>
      <point x="410" y="508"/>
      <point x="381" y="538"/>
      <point x="341" y="538" type="curve" smooth="yes"/>
      <point x="299" y="538"/>
      <point x="266" y="505"/>
      <point x="266" y="462" type="curve" smooth="yes"/>
      <point x="266" y="425"/>
      <point x="295" y="396"/>
    </contour>
  </outline>
</glyph>
<glyph name="Thorn" format="2">
  <advance width="724"/>
  <unicode hex="00DE"/>
  <anchor x="309" y="0" name="bottom"/>
  <anchor x="449" y="700" name="top"/>
  <outline>
    <contour>
      <point x="161" y="123" type="line"/>
      <point x="366" y="123" type="line" smooth="yes"/>
      <point x="570" y="123"/>
      <point x="697" y="230"/>
      <point x="697" y="408" type="curve" smooth="yes"/>
      <point x="697" y="540"/>
      <point x="602" y="616"/>
      <point x="438" y="616" type="curve" smooth="yes"/>
      <point x="258" y="616" type="line"/>
      <point x="240" y="517" type="line"/>
      <point x="424" y="517" type="line" smooth="yes"/>
      <point x="525" y="517"/>
      <point x="582" y="477"/>
      <point x="582" y="397" type="curve" smooth="yes"/>
      <point x="582" y="282"/>
      <point x="504" y="222"/>
      <point x="369" y="222" type="curve" smooth="yes"/>
      <point x="179" y="222" type="line"/>
    </contour>
    <contour>
      <point x="47" y="0" type="line"/>
      <point x="161" y="0" type="line"/>
      <point x="301" y="700" type="line"/>
      <point x="187" y="700" type="line"/>
    </contour>
  </outline>
</glyph>
<glyph name="germandbls" format="2">
  <advance width="680"/>
  <unicode hex="00DF"/>
  <outline>
    <contour>
      <point x="355" y="-6" type="curve" smooth="yes"/>
      <point x="513" y="-6"/>
      <point x="628" y="86"/>
      <point x="628" y="231" type="curve" smooth="yes"/>
      <point x="628" y="339"/>
      <point x="544" y="399"/>
      <point x="431" y="399" type="curve"/>
      <point x="396" y="350" type="line"/>
      <point x="535" y="350"/>
      <point x="636" y="447"/>
      <point x="636" y="573" type="curve" smooth="yes"/>
      <point x="636" y="681"/>
      <point x="555" y="748"/>
      <point x="427" y="748" type="curve" smooth="yes"/>
      <point x="279" y="748"/>
      <point x="167" y="671"/>
      <point x="132" y="495" type="curve" smooth="yes"/>
      <point x="33" y="0" type="line"/>
      <point x="143" y="0" type="line"/>
      <point x="244" y="504" type="line" smooth="yes"/>
      <point x="265" y="609"/>
      <point x="331" y="653"/>
      <point x="419" y="653" type="curve" smooth="yes"/>
      <point x="491" y="653"/>
      <point x="530" y="619"/>
      <point x="530" y="562" type="curve" smooth="yes"/>
      <point x="530" y="472"/>
      <point x="457" y="416"/>
      <point x="352" y="415" type="curve"/>
      <point x="333" y="322" type="line"/>
      <point x="388" y="322" type="line" smooth="yes"/>
      <point x="466" y="322"/>
      <point x="517" y="291"/>
      <point x="517" y="226" type="curve" smooth="yes"/>
      <point x="517" y="139"/>
      <point x="451" y="89"/>
      <point x="355" y="89" type="curve" smooth="yes"/>
      <point x="319" y="89"/>
      <point x="287" y="94"/>
      <point x="261" y="104" type="curve"/>
      <point x="232" y="13" type="line"/>
      <point x="258" y="2"/>
      <point x="308" y="-6"/>
    </contour>
  </outline>
</glyph>
<glyph name="eth" format="2">
  <advance width="644"/>
  <unicode hex="00F0"/>
  <outline>
    <contour>
      <point x="269" y="-9" type="curve" smooth="yes"/>
      <point x="496" y="-9"/>
      <point x="627" y="201"/>
      <point x="627" y="444" type="curve" smooth="yes"/>
      <point x="627" y="627"/>
      <point x="503" y="729"/>
      <point x="324" y="729" type="curve" smooth="yes"/>
      <point x="273" y="729"/>
      <point x="222" y="723"/>
      <point x="178" y="710" type="curve"/>
      <point x="177" y="617" type="line"/>
      <point x="217" y="630"/>
      <point x="269" y="637"/>
      <point x="313" y="637" type="curve" smooth="yes"/>
      <point x="441" y="637"/>
      <point x="516" y="573"/>
      <point x="516" y="445" type="curve" smooth="yes"/>
      <point x="516" y="385"/>
      <point x="503" y="307"/>
      <point x="477" y="255" type="curve"/>
      <point x="529" y="287" type="line"/>
      <point x="514" y="383"/>
      <point x="428" y="441"/>
      <point x="316" y="441" type="curve" smooth="yes"/>
      <point x="149" y="441"/>
      <point x="31" y="340"/>
      <point x="31" y="193" type="curve" smooth="yes"/>
      <point x="31" y="72"/>
      <point x="131" y="-9"/>
    </contour>
    <contour>
      <point x="277" y="84" type="curve" smooth="yes"/>
      <point x="191" y="84"/>
      <point x="140" y="129"/>
      <point x="140" y="201" type="curve" smooth="yes"/>
      <point x="140" y="290"/>
      <point x="212" y="349"/>
      <point x="320" y="349" type="curve" smooth="yes"/>
      <point x="405" y="349"/>
      <point x="457" y="304"/>
      <point x="457" y="232" type="curve" smooth="yes"/>
      <point x="457" y="145"/>
      <point x="373" y="84"/>
    </contour>
    <contour>
      <point x="212" y="473" type="line"/>
      <point x="657" y="643" type="line"/>
      <point x="630" y="716" type="line"/>
      <point x="185" y="546" type="line"/>
    </contour>
  </outline>
</glyph>
<glyph name="eogonek" format="2">
  <advance width="615"/>
  <unicode hex="0119"/>
  <anchor x="356" y="531" name="top"/>
  <outline>
    <contour>
      <point x="349" y="-226" type="curve" smooth="yes"/>
      <point x="386" y="-226"/>
      <point x="416" y="-217"/>
      <point x="442" y="-203" type="curve"/>
      <point x="430" y="-147" type="line"/>
      <point x="411" y="-157"/>
      <point x="388" y="-163"/>
      <point x="366" y="-163" type="curve" smooth="yes"/>
      <point x="337" y="-163"/>
      <point x="317" y="-148"/>
      <point x="317" y="-118" type="curve" smooth="yes"/>
      <point x="317" y="-75"/>
      <point x="358" y="-22"/>
      <point x="466" y="36" type="curve" smooth="yes"/>
      <point x="476" y="42"/>
      <point x="495" y="54"/>
      <point x="510" y="68" type="curve"/>
      <point x="464" y="148" type="line"/>
      <point x="426" y="110"/>
      <point x="368" y="90"/>
      <point x="304" y="90" type="curve" smooth="yes"/>
      <point x="194" y="90"/>
      <point x="144" y="141"/>
      <point x="144" y="232" type="curve" smooth="yes"/>
      <point x="144" y="361"/>
      <point x="219" y="446"/>
      <point x="334" y="446" type="curve" smooth="yes"/>
      <point x="431" y="446"/>
      <point x="492" y="388"/>
      <point x="476" y="283" type="curve"/>
      <point x="521" y="310" type="line"/>
      <point x="129" y="310" type="line"/>
      <point x="116" y="231" type="line"/>
      <point x="573" y="231" type="line"/>
      <point x="578" y="254"/>
      <point x="581" y="279"/>
      <point x="581" y="305" type="curve" smooth="yes"/>
      <point x="581" y="451"/>
      <point x="484" y="538"/>
      <point x="339" y="538" type="curve" smooth="yes"/>
      <point x="164" y="538"/>
      <point x="36" y="407"/>
      <point x="36" y="226" type="curve" smooth="yes"/>
      <point x="36" y="86"/>
      <point x="135" y="-6"/>
      <point x="294" y="-6" type="curve" smooth="yes"/>
      <point x="314" y="-6"/>
      <point x="336" y="-4"/>
      <point x="370" y="1" type="curve"/>
      <point x="346" y="17" type="line"/>
      <point x="276" y="-23"/>
      <point x="241" y="-75"/>
      <point x="241" y="-134" type="curve" smooth="yes"/>
      <point x="241" y="-193"/>
      <point x="286" y="-226"/>
    </contour>
  </outline>
</glyph>
<glyph name="Eng" format="2">
  <advance width="811"/>
  <unicode hex="014A"/>
  <outline>
    <contour>
      <point x="47" y="0" type="line"/>
      <point x="161" y="0" type="line"/>
      <point x="272" y="555" type="line"/>
      <point x="237" y="560" type="line"/>
      <point x="564" y="0" type="line"/>
      <point x="608" y="140" type="line"/>
      <point x="281" y="700" type="line"/>
      <point x="187" y="700" type="line"/>
    </contour>
    <contour>
      <point x="414" y="-200" type="curve" smooth="yes"/>
      <point x="547" y="-200"/>
      <point x="629" y="-144"/>
      <point x="667" y="46" type="curve" smooth="yes"/>
      <point x="798" y="700" type="line"/>
      <point x="684" y="700" type="line"/>
      <point x="549" y="24" type="line" smooth="yes"/>
      <point x="531" y="-67"/>
      <point x="489" y="-102"/>
      <point x="417" y="-102" type="curve" smooth="yes"/>
      <point x="365" y="-102"/>
      <point x="322" y="-79"/>
      <point x="296" y="-43" type="curve"/>
      <point x="232" y="-122" type="line"/>
      <point x="267" y="-170"/>
      <point x="339" y="-200"/>
    </contour>
  </outline>
</glyph>
<glyph name="Uogonek" format="2">
  <advance width="790"/>
  <unicode hex="0172"/>
  <outline>
    <contour>
      <point x="373" y="93" type="curve" smooth="yes"/>
      <point x="301" y="93"/>
      <point x="251" y="117"/>
      <point x="226" y="164" type="curve" smooth="yes"/>
      <point x="208" y="199"/>
      <point x="204" y="247"/>
      <point x="216" y="308" type="curve"/>
      <point x="295" y="700" type="line"/>
      <point x="181" y="700" type="line"/>
      <point x="102" y="304" type="line"/>
      <point x="90" y="245"/>
      <point x="92" y="193"/>
      <point x="105" y="149" type="curve" smooth="yes"/>
      <point x="131" y="66"/>
      <point x="197" y="12"/>
      <point x="288" y="-3" type="curve"/>
      <point x="293" y="-4"/>
      <point x="294" y="-4"/>
      <point x="299" y="-5" type="curve"/>
      <point x="243" y="-40"/>
      <point x="214" y="-85"/>
      <point x="214" y="-134" type="curve"/>
      <point x="214" y="-193"/>
      <point x="261" y="-226"/>
      <point x="326" y="-226" type="curve" smooth="yes"/>
      <point x="364" y="-226"/>
      <point x="395" y="-217"/>
      <point x="422" y="-203" type="curve"/>
      <point x="409" y="-147" type="line"/>
      <point x="390" y="-157"/>
      <point x="366" y="-163"/>
      <point x="343" y="-163" type="curve" smooth="yes"/>
      <point x="313" y="-163"/>
      <point x="293" y="-148"/>
      <point x="293" y="-120" type="curve" smooth="yes"/>
      <point x="293" y="-77"/>
      <point x="344" y="-25"/>
      <point x="458" y="2" type="curve" smooth="yes"/>
      <point x="587" y="33"/>
      <point x="669" y="132"/>
      <point x="702" y="298" type="curve"/>
      <point x="782" y="700" type="line"/>
      <point x="670" y="700" type="line"/>
      <point x="591" y="306" type="line"/>
      <point x="581" y="255"/>
      <point x="566" y="215"/>
      <point x="546" y="183" type="curve" smooth="yes"/>
      <point x="507" y="121"/>
      <point x="450" y="93"/>
    </contour>
  </outline>
</glyph>
<glyph name="longs" format="2">
  <advance width="311"/>
  <unicode hex="017F"/>
  <outline>
    <contour>
      <point x="59" y="0" type="line"/>
      <point x="169" y="0" type="line"/>
      <point x="282" y="565" type="line" smooth="yes"/>
      <point x="295" y="628"/>
      <point x="324" y="658"/>
      <point x="379" y="658" type="curve" smooth="yes"/>
      <point x="407" y="658"/>
      <point x="430" y="650"/>
      <point x="448" y="635" type="curve"/>
      <point x="493" y="716" type="line"/>
      <point x="466" y="737"/>
      <point x="424" y="748"/>
      <point x="379" y="748" type="curve" smooth="yes"/>
      <point x="265" y="748"/>
      <point x="196" y="683"/>
      <point x="174" y="574" type="curve" smooth="yes"/>
    </contour>
    <contour>
      <point x="58" y="442" type="line"/>
      <point x="209" y="442" type="line"/>
      <point x="227" y="532" type="line"/>
      <point x="76" y="532" type="line"/>
    </contour>
  </outline>
</glyph>
<glyph name="Schwa" format="2">
  <advance width="817"/>
  <unicode hex="018F"/>
  <anchor x="357" y="0" name="bottom"/>
  <anchor x="497" y="700" name="top"/>
  <outline>
    <contour>
      <point x="378" y="-9" type="curve" smooth="yes"/>
      <point x="629" y="-9"/>
      <point x="793" y="177"/>
      <point x="793" y="412" type="curve" smooth="yes"/>
      <point x="793" y="588"/>
      <point x="675" y="709"/>
      <point x="464" y="709" type="curve" smooth="yes"/>
      <point x="351" y="709"/>
      <point x="247" y="675"/>
      <point x="176" y="612" type="curve"/>
      <point x="232" y="528" type="line"/>
      <point x="289" y="579"/>
      <point x="371" y="607"/>
      <point x="455" y="607" type="curve" smooth="yes"/>
      <point x="604" y="607"/>
      <point x="678" y="525"/>
      <point x="678" y="405" type="curve" smooth="yes"/>
      <point x="678" y="236"/>
      <point x="565" y="90"/>
      <point x="389" y="90" type="curve" smooth="yes"/>
      <point x="246" y="90"/>
      <point x="167" y="165"/>
      <point x="167" y="295" type="curve" smooth="yes"/>
      <point x="167" y="315"/>
      <point x="169" y="321"/>
      <point x="171" y="342" type="curve"/>
      <point x="129" y="289" type="line"/>
      <point x="676" y="289" type="line"/>
      <point x="695" y="386" type="line"/>
      <point x="68" y="386" type="line"/>
      <point x="58" y="341"/>
      <point x="55" y="316"/>
      <point x="55" y="288" type="curve" smooth="yes"/>
      <point x="55" y="112"/>
      <point x="177" y="-9"/>
    </contour>
  </outline>
</glyph>
<glyph name="ohorn" format="2">
  <advance width="640"/>
  <unicode hex="01A1"/>
  <anchor x="265" y="0" name="bottom"/>
  <anchor x="370" y="532" name="top"/>
  <outline>
    <contour>
      <point x="290" y="-6" type="curve" smooth="yes"/>
      <point x="473" y="-6"/>
      <point x="604" y="127"/>
      <point x="604" y="306" type="curve" smooth="yes"/>
      <point x="604" y="391"/>
      <point x="568" y="451"/>
      <point x="512" y="490" type="curve"/>
      <point x="433" y="460" type="line"/>
      <point x="459" y="457"/>
      <point x="480" y="455"/>
      <point x="508" y="455" type="curve" smooth="yes"/>
      <point x="596" y="455"/>
      <point x="656" y="507"/>
      <point x="656" y="594" type="curve" smooth="yes"/>
      <point x="656" y="629"/>
      <point x="645" y="661"/>
      <point x="627" y="686" type="curve"/>
      <point x="559" y="660" type="line"/>
      <point x="570" y="643"/>
      <point x="579" y="622"/>
      <point x="579" y="598" type="curve" smooth="yes"/>
      <point x="579" y="555"/>
      <point x="546" y="531"/>
      <point x="506" y="531" type="curve" smooth="yes"/>
      <point x="456" y="531"/>
      <point x="428" y="538"/>
      <point x="350" y="538" type="curve" smooth="yes"/>
      <point x="167" y="538"/>
      <point x="36" y="405"/>
      <point x="36" y="226" type="curve" smooth="yes"/>
      <point x="36" y="86"/>
      <point x="136" y="-6"/>
    </contour>
    <contour>
      <point x="297" y="90" type="curve" smooth="yes"/>
      <point x="201" y="90"/>
      <point x="147" y="143"/>
      <point x="147" y="231" type="curve" smooth="yes"/>
      <point x="147" y="355"/>
      <point x="230" y="442"/>
      <point x="343" y="442" type="curve" smooth="yes"/>
      <point x="439" y="442"/>
      <point x="493" y="389"/>
      <point x="493" y="301" type="curve" smooth="yes"/>
      <point x="493" y="177"/>
      <point x="410" y="90"/>
    </contour>
  </outline>
</glyph>
<glyph name="jdotless" format="2">
  <advance width="289"/>
  <unicode hex="0237"/>
  <anchor x="199" y="532" name="top"/>
  <outline>
    <contour>
      <point x="-58" y="-200" type="curve" smooth="yes"/>
      <point x="54" y="-200"/>
      <point x="120" y="-139"/>
      <point x="144" y="-17" type="curve" smooth="yes"/>
      <point x="254" y="532" type="line"/>
      <point x="144" y="532" type="line"/>
      <point x="34" y="-18" type="line" smooth="yes"/>
      <point x="21" y="-81"/>
      <point x="-7" y="-108"/>
      <point x="-57" y="-108" type="curve" smooth="yes"/>
      <point x="-85" y="-108"/>
      <point x="-112" y="-100"/>
      <point x="-131" y="-85" type="curve"/>
      <point x="-178" y="-169" type="line"/>
      <point x="-148" y="-190"/>
      <point x="-107" y="-200"/>
    </contour>
  </outline>
</glyph>
<glyph name="schwa" format="2">
  <advance width="615"/>
  <unicode hex="0259"/>
  <outline>
    <contour>
      <point x="321" y="538" type="curve" smooth="yes"/>
      <point x="240" y="538"/>
      <point x="159" y="513"/>
      <point x="105" y="464" type="curve"/>
      <point x="151" y="384" type="line"/>
      <point x="189" y="420"/>
      <point x="247" y="442"/>
      <point x="311" y="442" type="curve" smooth="yes"/>
      <point x="421" y="442"/>
      <point x="471" y="391"/>
      <point x="471" y="300" type="curve" smooth="yes"/>
      <point x="471" y="171"/>
      <point x="396" y="86"/>
      <point x="281" y="86" type="curve" smooth="yes"/>
      <point x="184" y="86"/>
      <point x="123" y="144"/>
      <point x="139" y="249" type="curve"/>
      <point x="94" y="222" type="line"/>
      <point x="486" y="222" type="line"/>
      <point x="499" y="301" type="line"/>
      <point x="42" y="301" type="line"/>
      <point x="37" y="278"/>
      <point x="34" y="253"/>
      <point x="34" y="227" type="curve" smooth="yes"/>
      <point x="34" y="81"/>
      <point x="131" y="-6"/>
      <point x="276" y="-6" type="curve" smooth="yes"/>
      <point x="451" y="-6"/>
      <point x="579" y="125"/>
      <point x="579" y="306" type="curve" smooth="yes"/>
      <point x="579" y="446"/>
      <point x="480" y="538"/>
    </contour>
  </outline>
</glyph>
<glyph name="firsttonechinese" format="2">
  <advance width="600"/>
  <unicode hex="02C9"/>
  <outline>
    <contour>
      <point x="207" y="640" type="line"/>
      <point x="544" y="640" type="line"/>
      <point x="557" y="708" type="line"/>
      <point x="220" y="708" type="line"/>
    </contour>
  </outline>
</glyph>
<glyph name="secondtonechinese" format="2">
  <advance width="600"/>
  <unicode hex="02CA"/>
  <outline>
    <contour>
      <point x="285" y="607" type="line"/>
      <point x="391" y="607" type="line"/>
      <point x="576" y="741" type="line"/>
      <point x="436" y="741" type="line"/>
    </contour>
  </outline>
</glyph>
<glyph name="fourthtonechinese" format="2">
  <advance width="600"/>
  <unicode hex="02CB"/>
  <anchor x="353" y="532" name="_top"/>
  <anchor x="388" y="709" name="top"/>
  <outline>
    <contour>
      <point x="347" y="607" type="line"/>
      <point x="449" y="607" type="line"/>
      <point x="339" y="741" type="line"/>
      <point x="203" y="741" type="line"/>
    </contour>
  </outline>
</glyph>
<glyph name="verticallinelowmod" format="2">
  <advance width="177"/>
  <unicode hex="02CC"/>
  <outline>
    <contour>
      <point x="-47" y="-222" type="line"/>
      <point x="29" y="-222" type="line"/>
      <point x="67" y="-30" type="line"/>
      <point x="-9" y="-30" type="line"/>
    </contour>
  </outline>
</glyph>
<glyph name="macroncomb" format="2">
  <unicode hex="0304"/>
  <anchor x="353" y="532" name="_top"/>
  <anchor x="382" y="679" name="top"/>
  <outline>
    <contour>
      <point x="207" y="640" type="line"/>
      <point x="543" y="640" type="line"/>
      <point x="556" y="708" type="line"/>
      <point x="219" y="708" type="line"/>
    </contour>
  </outline>
</glyph>
<glyph name="brevecomb" format="2">
  <unicode hex="0306"/>
  <anchor x="353" y="532" name="_top"/>
  <anchor x="386" y="699" name="top"/>
  <outline>
    <contour>
      <point x="378" y="601" type="curve" smooth="yes"/>
      <point x="473" y="601"/>
      <point x="547" y="654"/>
      <point x="562" y="741" type="curve"/>
      <point x="486" y="741" type="line"/>
      <point x="478" y="693"/>
      <point x="437" y="663"/>
      <point x="384" y="663" type="curve" smooth="yes"/>
      <point x="330" y="663"/>
      <point x="296" y="693"/>
      <point x="298" y="741" type="curve"/>
      <point x="226" y="741" type="line"/>
      <point x="219" y="655"/>
      <point x="287" y="601"/>
    </contour>
  </outline>
</glyph>
<glyph name="dotaccentcomb" format="2">
  <unicode hex="0307"/>
  <anchor x="384" y="687" name="_center"/>
  <anchor x="353" y="532" name="_top"/>
  <anchor x="388" y="713" name="top"/>
  <outline>
    <contour>
      <point x="380" y="622" type="curve" smooth="yes"/>
      <point x="418" y="622"/>
      <point x="449" y="651"/>
      <point x="449" y="694" type="curve" smooth="yes"/>
      <point x="449" y="727"/>
      <point x="424" y="752"/>
      <point x="389" y="752" type="curve" smooth="yes"/>
      <point x="350" y="752"/>
      <point x="319" y="722"/>
      <point x="319" y="679" type="curve" smooth="yes"/>
      <point x="319" y="646"/>
      <point x="344" y="622"/>
    </contour>
  </outline>
</glyph>
<glyph name="dieresiscomb" format="2">
  <unicode hex="0308"/>
  <anchor x="353" y="532" name="_top"/>
  <anchor x="383" y="683" name="top"/>
  <outline>
    <contour>
      <point x="473" y="621" type="curve" smooth="yes"/>
      <point x="505" y="621"/>
      <point x="533" y="646"/>
      <point x="533" y="682" type="curve" smooth="yes"/>
      <point x="533" y="713"/>
      <point x="509" y="733"/>
      <point x="480" y="733" type="curve" smooth="yes"/>
      <point x="448" y="733"/>
      <point x="421" y="708"/>
      <point x="421" y="671" type="curve" smooth="yes"/>
      <point x="421" y="641"/>
      <point x="444" y="621"/>
    </contour>
    <contour>
      <point x="284" y="621" type="curve" smooth="yes"/>
      <point x="315" y="621"/>
      <point x="343" y="646"/>
      <point x="343" y="682" type="curve" smooth="yes"/>
      <point x="343" y="713"/>
      <point x="320" y="733"/>
      <point x="290" y="733" type="curve" smooth="yes"/>
      <point x="259" y="733"/>
      <point x="231" y="708"/>
      <point x="231" y="671" type="curve" smooth="yes"/>
      <point x="231" y="641"/>
      <point x="254" y="621"/>
    </contour>
  </outline>
</glyph>
<glyph name="hookabovecomb" format="2">
  <unicode hex="0309"/>
  <anchor x="353" y="532" name="_top"/>
  <anchor x="402" y="779" name="top"/>
  <outline>
    <contour>
      <point x="394" y="595" type="line"/>
      <point x="462" y="626"/>
      <point x="496" y="670"/>
      <point x="496" y="727" type="curve" smooth="yes"/>
      <point x="496" y="779"/>
      <point x="458" y="812"/>
      <point x="399" y="812" type="curve" smooth="yes"/>
      <point x="365" y="812"/>
      <point x="328" y="803"/>
      <point x="300" y="784" type="curve"/>
      <point x="321" y="732" type="line"/>
      <point x="342" y="746"/>
      <point x="362" y="752"/>
      <point x="382" y="752" type="curve" smooth="yes"/>
      <point x="410" y="752"/>
      <point x="428" y="736"/>
      <point x="428" y="712" type="curve" smooth="yes"/>
      <point x="428" y="683"/>
      <point x="409" y="659"/>
      <point x="364" y="640" type="curve"/>
    </contour>
  </outline>
</glyph>
<glyph name="ringcomb" format="2">
  <unicode hex="030A"/>
  <anchor x="353" y="532" name="_top"/>
  <anchor x="401" y="773" name="top"/>
  <outline>
    <contour>
      <point x="387" y="594" type="curve" smooth="yes"/>
      <point x="452" y="594"/>
      <point x="501" y="643"/>
      <point x="501" y="705" type="curve" smooth="yes"/>
      <point x="501" y="767"/>
      <point x="452" y="818"/>
      <point x="387" y="818" type="curve" smooth="yes"/>
      <point x="323" y="818"/>
      <point x="274" y="767"/>
      <point x="274" y="705" type="curve" smooth="yes"/>
      <point x="274" y="643"/>
      <point x="323" y="594"/>
    </contour>
    <contour>
      <point x="387" y="640" type="curve" smooth="yes"/>
      <point x="350" y="640"/>
      <point x="323" y="668"/>
      <point x="323" y="705" type="curve" smooth="yes"/>
      <point x="323" y="743"/>
      <point x="351" y="771"/>
      <point x="387" y="771" type="curve" smooth="yes"/>
      <point x="424" y="771"/>
      <point x="452" y="742"/>
      <point x="452" y="705" type="curve" smooth="yes"/>
      <point x="452" y="668"/>
      <point x="425" y="640"/>
    </contour>
  </outline>
</glyph>
<glyph name="hungarumlautcomb" format="2">
  <unicode hex="030B"/>
  <anchor x="353" y="532" name="_top"/>
  <anchor x="388" y="709" name="top"/>
  <outline>
    <contour>
      <point x="413" y="607" type="line"/>
      <point x="505" y="607" type="line"/>
      <point x="629" y="741" type="line"/>
      <point x="512" y="741" type="line"/>
    </contour>
    <contour>
      <point x="231" y="607" type="line"/>
      <point x="325" y="607" type="line"/>
      <point x="448" y="741" type="line"/>
      <point x="331" y="741" type="line"/>
    </contour>
  </outline>
</glyph>
<glyph name="caroncomb" format="2">
  <unicode hex="030C"/>
  <anchor x="353" y="532" name="_top"/>
  <anchor x="386" y="699" name="top"/>
  <outline>
    <contour>
      <point x="323" y="607" type="line"/>
      <point x="425" y="607" type="line"/>
      <point x="576" y="741" type="line"/>
      <point x="477" y="741" type="line"/>
      <point x="328" y="628" type="line"/>
      <point x="422" y="628" type="line"/>
      <point x="299" y="741" type="line"/>
      <point x="205" y="741" type="line"/>
    </contour>
  </outline>
</glyph>
<glyph name="breveinvertedcomb" format="2">
  <unicode hex="0311"/>
  <anchor x="353" y="532" name="_top"/>
  <anchor x="386" y="699" name="top"/>
  <outline>
    <contour>
      <point x="200" y="607" type="curve"/>
      <point x="276" y="607" type="line"/>
      <point x="284" y="655"/>
      <point x="325" y="686"/>
      <point x="378" y="686" type="curve" smooth="yes"/>
      <point x="432" y="686"/>
      <point x="467" y="655"/>
      <point x="464" y="607" type="curve"/>
      <point x="536" y="607" type="line"/>
      <point x="542" y="693"/>
      <point x="475" y="748"/>
      <point x="384" y="748" type="curve" smooth="yes"/>
      <point x="290" y="748"/>
      <point x="216" y="694"/>
    </contour>
  </outline>
</glyph>
<glyph name="horncomb" format="2">
  <unicode hex="031B"/>
  <anchor x="353" y="532" name="_topright"/>
  <outline>
    <contour>
      <point x="334" y="450" type="line"/>
      <point x="353" y="450" type="line" smooth="yes"/>
      <point x="441" y="450"/>
      <point x="494" y="507"/>
      <point x="494" y="593" type="curve" smooth="yes"/>
      <point x="494" y="629"/>
      <point x="482" y="661"/>
      <point x="465" y="685" type="curve"/>
      <point x="396" y="659" type="line"/>
      <point x="408" y="643"/>
      <point x="416" y="621"/>
      <point x="416" y="597" type="curve" smooth="yes"/>
      <point x="416" y="560"/>
      <point x="394" y="532"/>
      <point x="353" y="532" type="curve" smooth="yes"/>
      <point x="334" y="532" type="line"/>
    </contour>
  </outline>
</glyph>
<glyph name="dotbelowcomb" format="2">
  <unicode hex="0323"/>
  <anchor x="247" y="0" name="_bottom"/>
  <anchor x="218" y="-151" name="bottom"/>
  <outline>
    <contour>
      <point x="212" y="-200" type="curve" smooth="yes"/>
      <point x="248" y="-200"/>
      <point x="274" y="-175"/>
      <point x="274" y="-137" type="curve" smooth="yes"/>
      <point x="274" y="-108"/>
      <point x="252" y="-88"/>
      <point x="224" y="-88" type="curve" smooth="yes"/>
      <point x="190" y="-88"/>
      <point x="162" y="-116"/>
      <point x="162" y="-150" type="curve" smooth="yes"/>
      <point x="162" y="-180"/>
      <point x="182" y="-200"/>
    </contour>
  </outline>
</glyph>
<glyph name="dieresisbelowcomb" format="2">
  <unicode hex="0324"/>
  <anchor x="247" y="0" name="_bottom"/>
  <anchor x="217" y="-154" name="bottom"/>
  <outline>
    <contour>
      <point x="304" y="-196" type="curve" smooth="yes"/>
      <point x="336" y="-196"/>
      <point x="361" y="-173"/>
      <point x="361" y="-136" type="curve" smooth="yes"/>
      <point x="361" y="-109"/>
      <point x="338" y="-88"/>
      <point x="311" y="-88" type="curve" smooth="yes"/>
      <point x="280" y="-88"/>
      <point x="253" y="-113"/>
      <point x="253" y="-147" type="curve" smooth="yes"/>
      <point x="253" y="-175"/>
      <point x="275" y="-196"/>
    </contour>
    <contour>
      <point x="126" y="-196" type="curve" smooth="yes"/>
      <point x="158" y="-196"/>
      <point x="184" y="-173"/>
      <point x="184" y="-136" type="curve" smooth="yes"/>
      <point x="184" y="-109"/>
      <point x="161" y="-88"/>
      <point x="133" y="-88" type="curve" smooth="yes"/>
      <point x="102" y="-88"/>
      <point x="76" y="-113"/>
      <point x="76" y="-147" type="curve" smooth="yes"/>
      <point x="76" y="-175"/>
      <point x="97" y="-196"/>
    </contour>
  </outline>
</glyph>
<glyph name="commaaccentcomb" format="2">
  <unicode hex="0326"/>
  <anchor x="247" y="0" name="_bottom"/>
  <anchor x="218" y="-151" name="bottom"/>
  <outline>
    <contour>
      <point x="152" y="-264" type="line"/>
      <point x="205" y="-264" type="line"/>
      <point x="251" y="-192" type="line" smooth="yes"/>
      <point x="269" y="-164"/>
      <point x="275" y="-152"/>
      <point x="275" y="-133" type="curve" smooth="yes"/>
      <point x="275" y="-108"/>
      <point x="257" y="-88"/>
      <point x="221" y="-88" type="curve" smooth="yes"/>
      <point x="184" y="-88"/>
      <point x="163" y="-112"/>
      <point x="163" y="-144" type="curve" smooth="yes"/>
      <point x="163" y="-168"/>
      <point x="182" y="-187"/>
      <point x="215" y="-187" type="curve"/>
      <point x="208" y="-146" type="line"/>
    </contour>
  </outline>
</glyph>
<glyph name="cedillacomb" format="2">
  <unicode hex="0327"/>
  <anchor x="247" y="0" name="_bottom"/>
  <outline>
    <contour>
      <point x="181" y="-226" type="curve" smooth="yes"/>
      <point x="268" y="-226"/>
      <point x="327" y="-187"/>
      <point x="327" y="-121" type="curve" smooth="yes"/>
      <point x="327" y="-82"/>
      <point x="302" y="-55"/>
      <point x="255" y="-48" type="curve"/>
      <point x="279" y="7" type="line"/>
      <point x="218" y="7" type="line"/>
      <point x="172" y="-94" type="line"/>
      <point x="201" y="-94" type="line" smooth="yes"/>
      <point x="235" y="-94"/>
      <point x="250" y="-105"/>
      <point x="250" y="-126" type="curve" smooth="yes"/>
      <point x="250" y="-149"/>
      <point x="231" y="-166"/>
      <point x="189" y="-166" type="curve" smooth="yes"/>
      <point x="163" y="-166"/>
      <point x="141" y="-161"/>
      <point x="120" y="-150" type="curve"/>
      <point x="92" y="-205" type="line"/>
      <point x="116" y="-219"/>
      <point x="145" y="-226"/>
    </contour>
  </outline>
</glyph>
<glyph name="ogonekcomb" format="2">
  <unicode hex="0328"/>
  <anchor x="248" y="0" name="_ogonek"/>
  <outline>
    <contour>
      <point x="139" y="-226" type="curve" smooth="yes"/>
      <point x="177" y="-226"/>
      <point x="208" y="-217"/>
      <point x="235" y="-203" type="curve"/>
      <point x="222" y="-147" type="line"/>
      <point x="203" y="-157"/>
      <point x="179" y="-163"/>
      <point x="156" y="-163" type="curve" smooth="yes"/>
      <point x="126" y="-163"/>
      <point x="106" y="-148"/>
      <point x="106" y="-120" type="curve" smooth="yes"/>
      <point x="106" y="-77"/>
      <point x="155" y="-35"/>
      <point x="248" y="0" type="curve"/>
      <point x="199" y="39" type="line"/>
      <point x="88" y="-5"/>
      <point x="27" y="-63"/>
      <point x="27" y="-134" type="curve" smooth="yes"/>
      <point x="27" y="-193"/>
      <point x="74" y="-226"/>
    </contour>
  </outline>
</glyph>
<glyph name="brevebelowcomb" format="2">
  <unicode hex="032E"/>
  <anchor x="247" y="0" name="_bottom"/>
  <anchor x="215" y="-162" name="bottom"/>
  <outline>
    <contour>
      <point x="218" y="-211" type="curve" smooth="yes"/>
      <point x="308" y="-211"/>
      <point x="384" y="-163"/>
      <point x="398" y="-79" type="curve"/>
      <point x="323" y="-79" type="line"/>
      <point x="315" y="-126"/>
      <point x="274" y="-152"/>
      <point x="221" y="-152" type="curve" smooth="yes"/>
      <point x="166" y="-152"/>
      <point x="133" y="-125"/>
      <point x="135" y="-79" type="curve"/>
      <point x="63" y="-79" type="line"/>
      <point x="56" y="-156"/>
      <point x="123" y="-211"/>
    </contour>
  </outline>
</glyph>
<glyph name="strokeshortcomb" format="2">
  <unicode hex="0335"/>
  <anchor x="335" y="437" name="_center"/>
  <outline>
    <contour>
      <point x="127" y="399" type="line"/>
      <point x="528" y="399" type="line"/>
      <point x="542" y="476" type="line"/>
      <point x="142" y="476" type="line"/>
    </contour>
  </outline>
</glyph>
<glyph name="strokelongcomb" format="2">
  <unicode hex="0336"/>
  <anchor x="478" y="437" name="_center"/>
  <outline>
    <contour>
      <point x="63" y="392" type="line"/>
      <point x="877" y="392" type="line"/>
      <point x="893" y="482" type="line"/>
      <point x="79" y="482" type="line"/>
    </contour>
  </outline>
</glyph>
<glyph name="slashshortcomb" format="2">
  <unicode hex="0337"/>
  <anchor x="242" y="389" name="_center"/>
  <outline>
    <contour>
      <point x="103" y="248" type="line"/>
      <point x="425" y="461" type="line"/>
      <point x="381" y="530" type="line"/>
      <point x="59" y="316" type="line"/>
    </contour>
  </outline>
</glyph>
<glyph name="Delta" format="2">
  <advance width="740"/>
  <unicode hex="0394"/>
  <outline>
    <contour>
      <point x="513" y="700" type="line"/>
      <point x="400" y="700" type="line"/>
      <point x="-56" y="0" type="line"/>
      <point x="690" y="0" type="line"/>
    </contour>
    <contour>
      <point x="94" y="43" type="line"/>
      <point x="471" y="639" type="line"/>
      <point x="425" y="639" type="line"/>
      <point x="566" y="43" type="line"/>
      <point x="604" y="99" type="line"/>
      <point x="63" y="99" type="line"/>
    </contour>
  </outline>
</glyph>
<glyph name="Omega" format="2">
  <advance width="896"/>
  <unicode hex="03A9"/>
  <outline>
    <contour>
      <point x="-42" y="0" type="line"/>
      <point x="309" y="0" type="line"/>
      <point x="327" y="92" type="line"/>
      <point x="242" y="145"/>
      <point x="203" y="215"/>
      <point x="203" y="317" type="curve" smooth="yes"/>
      <point x="203" y="488"/>
      <point x="315" y="607"/>
      <point x="502" y="607" type="curve" smooth="yes"/>
      <point x="640" y="607"/>
      <point x="732" y="538"/>
      <point x="732" y="410" type="curve" smooth="yes"/>
      <point x="732" y="252"/>
      <point x="627" y="142"/>
      <point x="501" y="92" type="curve"/>
      <point x="483" y="0" type="line"/>
      <point x="834" y="0" type="line"/>
      <point x="852" y="99" type="line"/>
      <point x="675" y="99" type="line"/>
      <point x="765" y="157"/>
      <point x="848" y="269"/>
      <point x="848" y="419" type="curve" smooth="yes"/>
      <point x="848" y="603"/>
      <point x="702" y="709"/>
      <point x="510" y="709" type="curve" smooth="yes"/>
      <point x="266" y="709"/>
      <point x="91" y="555"/>
      <point x="91" y="324" type="curve" smooth="yes"/>
      <point x="91" y="231"/>
      <point x="114" y="161"/>
      <point x="174" y="99" type="curve"/>
      <point x="-24" y="99" type="line"/>
    </contour>
  </outline>
</glyph>
<glyph name="pi" format="2">
  <advance width="725"/>
  <unicode hex="03C0"/>
  <outline>
    <contour>
      <point x="31" y="259" type="curve"/>
      <point x="120" y="284" type="line"/>
      <point x="111" y="302"/>
      <point x="105" y="323"/>
      <point x="105" y="343" type="curve" smooth="yes"/>
      <point x="105" y="404"/>
      <point x="144" y="442"/>
      <point x="221" y="442" type="curve" smooth="yes"/>
      <point x="750" y="442" type="line"/>
      <point x="768" y="532" type="line"/>
      <point x="236" y="532" type="line" smooth="yes"/>
      <point x="88" y="532"/>
      <point x="9" y="455"/>
      <point x="9" y="341" type="curve" smooth="yes"/>
      <point x="9" y="311"/>
      <point x="16" y="281"/>
    </contour>
    <contour>
      <point x="118" y="0" type="line"/>
      <point x="228" y="0" type="line"/>
      <point x="374" y="464" type="line"/>
      <point x="264" y="464" type="line"/>
    </contour>
    <contour>
      <point x="411" y="0" type="line"/>
      <point x="521" y="0" type="line"/>
      <point x="614" y="464" type="line"/>
      <point x="504" y="464" type="line"/>
    </contour>
  </outline>
</glyph>
<glyph name="Dje-cy" format="2">
  <advance width="837"/>
  <unicode hex="0402"/>
  <outline>
    <contour>
      <point x="198" y="0" type="line"/>
      <point x="311" y="0" type="line"/>
      <point x="435" y="630" type="line"/>
      <point x="402" y="601" type="line"/>
      <point x="691" y="601" type="line"/>
      <point x="711" y="700" type="line"/>
      <point x="102" y="700" type="line"/>
      <point x="82" y="601" type="line"/>
      <point x="343" y="601" type="line"/>
      <point x="322" y="630" type="line"/>
    </contour>
    <contour>
      <point x="433" y="4" type="line"/>
      <point x="621" y="-43"/>
      <point x="795" y="73"/>
      <point x="795" y="246" type="curve" smooth="yes"/>
      <point x="795" y="415"/>
      <point x="611" y="477"/>
      <point x="367" y="389" type="curve"/>
      <point x="349" y="284" type="line"/>
      <point x="550" y="363"/>
      <point x="681" y="343"/>
      <point x="681" y="238" type="curve" smooth="yes"/>
      <point x="681" y="139"/>
      <point x="566" y="66"/>
      <point x="457" y="97" type="curve"/>
    </contour>
  </outline>
</glyph>
<glyph name="I-cy" format="2">
  <advance width="314"/>
  <unicode hex="0406"/>
  <anchor x="104" y="0" name="bottom"/>
  <anchor x="161" y="0" name="ogonek"/>
  <anchor x="244" y="700" name="top"/>
  <anchor x="107" y="699" name="topleft"/>
  <outline>
    <contour>
      <point x="47" y="0" type="line"/>
      <point x="161" y="0" type="line"/>
      <point x="301" y="700" type="line"/>
      <point x="187" y="700" type="line"/>
    </contour>
  </outline>
</glyph>
<glyph name="Nje-cy" format="2">
  <advance width="1180"/>
  <unicode hex="040A"/>
  <outline>
    <contour>
      <point x="51" y="0" type="line"/>
      <point x="164" y="0" type="line"/>
      <point x="229" y="326" type="line"/>
      <point x="599" y="326" type="line"/>
      <point x="534" y="0" type="line"/>
      <point x="647" y="0" type="line"/>
      <point x="787" y="700" type="line"/>
      <point x="674" y="700" type="line"/>
      <point x="619" y="425" type="line"/>
      <point x="249" y="425" type="line"/>
      <point x="304" y="700" type="line"/>
      <point x="191" y="700" type="line"/>
    </contour>
    <contour>
      <point x="659" y="61" type="line"/>
      <point x="721" y="368" type="line"/>
      <point x="688" y="338" type="line"/>
      <point x="888" y="338" type="line" smooth="yes"/>
      <point x="974" y="338"/>
      <point x="1021" y="303"/>
      <point x="1021" y="239" type="curve" smooth="yes"/>
      <point x="1021" y="148"/>
      <point x="951" y="90"/>
      <point x="838" y="90" type="curve" smooth="yes"/>
      <point x="638" y="90" type="line"/>
    </contour>
    <contour>
      <point x="534" y="0" type="line"/>
      <point x="831" y="0" type="line" smooth="yes"/>
      <point x="1018" y="0"/>
      <point x="1140" y="102"/>
      <point x="1140" y="261" type="curve" smooth="yes"/>
      <point x="1140" y="367"/>
      <point x="1066" y="429"/>
      <point x="932" y="429" type="curve" smooth="yes"/>
      <point x="706" y="429" type="line"/>
      <point x="726" y="395" type="line"/>
      <point x="787" y="700" type="line"/>
      <point x="674" y="700" type="line"/>
    </contour>
  </outline>
</glyph>
<glyph name="Dzhe-cy" format="2">
  <advance width="807"/>
  <unicode hex="040F"/>
  <outline>
    <contour>
      <point x="790" y="700" type="line"/>
      <point x="676" y="700" type="line"/>
      <point x="556" y="99" type="line"/>
      <point x="184" y="99" type="line"/>
      <point x="304" y="700" type="line"/>
      <point x="191" y="700" type="line"/>
      <point x="51" y="0" type="line"/>
      <point x="297" y="0" type="line"/>
      <point x="266" y="-156" type="line"/>
      <point x="372" y="-156" type="line"/>
      <point x="403" y="0" type="line"/>
      <point x="650" y="0" type="line"/>
    </contour>
  </outline>
</glyph>
<glyph name="Ge-cy" format="2">
  <advance width="585"/>
  <unicode hex="0413"/>
  <anchor x="51" y="0" name="bottomleft"/>
  <anchor x="439" y="0" name="bottomright"/>
  <anchor x="416" y="700" name="top"/>
  <outline>
    <contour>
      <point x="51" y="0" type="line"/>
      <point x="164" y="0" type="line"/>
      <point x="287" y="629" type="line"/>
      <point x="254" y="601" type="line"/>
      <point x="637" y="601" type="line"/>
      <point x="658" y="700" type="line"/>
      <point x="191" y="700" type="line"/>
    </contour>
  </outline>
</glyph>
<glyph name="Ze-cy" format="2">
  <advance width="646"/>
  <unicode hex="0417"/>
  <anchor x="262" y="0" name="bottom"/>
  <anchor x="406" y="700" name="top"/>
  <outline>
    <contour>
      <point x="249" y="-9" type="curve" smooth="yes"/>
      <point x="419" y="-9"/>
      <point x="580" y="80"/>
      <point x="580" y="217" type="curve" smooth="yes"/>
      <point x="580" y="315"/>
      <point x="502" y="378"/>
      <point x="383" y="378" type="curve"/>
      <point x="373" y="348" type="line"/>
      <point x="512" y="348"/>
      <point x="615" y="427"/>
      <point x="615" y="534" type="curve" smooth="yes"/>
      <point x="615" y="643"/>
      <point x="505" y="709"/>
      <point x="365" y="709" type="curve" smooth="yes"/>
      <point x="290" y="709"/>
      <point x="208" y="690"/>
      <point x="128" y="651" type="curve"/>
      <point x="145" y="557" type="line"/>
      <point x="216" y="594"/>
      <point x="288" y="611"/>
      <point x="348" y="611" type="curve" smooth="yes"/>
      <point x="434" y="611"/>
      <point x="495" y="577"/>
      <point x="495" y="514" type="curve" smooth="yes"/>
      <point x="495" y="451"/>
      <point x="439" y="407"/>
      <point x="347" y="407" type="curve" smooth="yes"/>
      <point x="190" y="407" type="line"/>
      <point x="172" y="315" type="line"/>
      <point x="334" y="315" type="line" smooth="yes"/>
      <point x="422" y="315"/>
      <point x="466" y="284"/>
      <point x="466" y="227" type="curve" smooth="yes"/>
      <point x="466" y="142"/>
      <point x="362" y="92"/>
      <point x="250" y="92" type="curve" smooth="yes"/>
      <point x="177" y="92"/>
      <point x="101" y="113"/>
      <point x="46" y="160" type="curve"/>
      <point x="-9" y="75" type="line"/>
      <point x="63" y="17"/>
      <point x="157" y="-9"/>
    </contour>
  </outline>
</glyph>
<glyph name="Em-cy" format="2">
  <advance width="963"/>
  <unicode hex="041C"/>
  <anchor x="429" y="0" name="bottom"/>
  <anchor x="696" y="0" name="bottomleft"/>
  <anchor x="569" y="700" name="top"/>
  <outline>
    <contour>
      <point x="51" y="0" type="line"/>
      <point x="161" y="0" type="line"/>
      <point x="266" y="526" type="line"/>
      <point x="243" y="530" type="line"/>
      <point x="426" y="82" type="line"/>
      <point x="478" y="82" type="line"/>
      <point x="830" y="528" type="line"/>
      <point x="802" y="530" type="line"/>
      <point x="696" y="0" type="line"/>
      <point x="806" y="0" type="line"/>
      <point x="946" y="700" type="line"/>
      <point x="847" y="700" type="line"/>
      <point x="442" y="180" type="line"/>
      <point x="491" y="179" type="line"/>
      <point x="284" y="700" type="line"/>
      <point x="191" y="700" type="line"/>
    </contour>
  </outline>
</glyph>
<glyph name="Pe-cy" format="2">
  <advance width="819"/>
  <unicode hex="041F"/>
  <anchor x="549" y="0" name="bottomleft"/>
  <outline>
    <contour>
      <point x="51" y="0" type="line"/>
      <point x="164" y="0" type="line"/>
      <point x="288" y="630" type="line"/>
      <point x="255" y="601" type="line"/>
      <point x="694" y="601" type="line"/>
      <point x="673" y="630" type="line"/>
      <point x="549" y="0" type="line"/>
      <point x="662" y="0" type="line"/>
      <point x="802" y="700" type="line"/>
      <point x="191" y="700" type="line"/>
    </contour>
  </outline>
</glyph>
<glyph name="Te-cy" format="2">
  <advance width="612"/>
  <unicode hex="0422"/>
  <anchor x="255" y="0" name="bottom"/>
  <anchor x="196" y="0" name="bottomleft"/>
  <anchor x="322" y="336" name="center"/>
  <anchor x="395" y="700" name="top"/>
  <outline>
    <contour>
      <point x="196" y="0" type="line"/>
      <point x="309" y="0" type="line"/>
      <point x="433" y="630" type="line"/>
      <point x="400" y="601" type="line"/>
      <point x="665" y="601" type="line"/>
      <point x="685" y="700" type="line"/>
      <point x="101" y="700" type="line"/>
      <point x="81" y="601" type="line"/>
      <point x="342" y="601" type="line"/>
      <point x="320" y="630" type="line"/>
    </contour>
  </outline>
</glyph>
<glyph name="U-cy" format="2">
  <advance width="699"/>
  <unicode hex="0423"/>
  <anchor x="431" y="700" name="top"/>
  <outline>
    <contour>
      <point x="69" y="103" type="curve"/>
      <point x="29" y="14" type="line"/>
      <point x="137" y="-36"/>
      <point x="258" y="-8"/>
      <point x="356" y="125" type="curve" smooth="yes"/>
      <point x="778" y="700" type="line"/>
      <point x="662" y="700" type="line"/>
      <point x="314" y="220" type="line"/>
      <point x="300" y="207" type="line"/>
      <point x="256" y="157" type="line" smooth="yes"/>
      <point x="197" y="90"/>
      <point x="136" y="78"/>
    </contour>
    <contour>
      <point x="297" y="118" type="line"/>
      <point x="375" y="209" type="line"/>
      <point x="221" y="700" type="line"/>
      <point x="102" y="700" type="line"/>
    </contour>
  </outline>
</glyph>
<glyph name="Ha-cy" format="2">
  <advance width="677"/>
  <unicode hex="0425"/>
  <anchor x="478" y="0" name="bottomleft"/>
  <outline>
    <contour>
      <point x="120" y="700" type="line"/>
      <point x="288" y="359" type="line"/>
      <point x="-40" y="0" type="line"/>
      <point x="95" y="0" type="line"/>
      <point x="341" y="266" type="line"/>
      <point x="478" y="0" type="line"/>
      <point x="610" y="0" type="line"/>
      <point x="430" y="364" type="line"/>
      <point x="734" y="700" type="line"/>
      <point x="597" y="700" type="line"/>
      <point x="373" y="456" type="line"/>
      <point x="249" y="700" type="line"/>
    </contour>
  </outline>
</glyph>
<glyph name="Tse-cy" format="2">
  <advance width="831"/>
  <unicode hex="0426"/>
  <outline>
    <contour>
      <point x="51" y="0" type="line"/>
      <point x="650" y="0" type="line"/>
      <point x="790" y="700" type="line"/>
      <point x="676" y="700" type="line"/>
      <point x="556" y="99" type="line"/>
      <point x="184" y="99" type="line"/>
      <point x="304" y="700" type="line"/>
      <point x="191" y="700" type="line"/>
    </contour>
    <contour>
      <point x="619" y="-156" type="line"/>
      <point x="725" y="-156" type="line"/>
      <point x="776" y="99" type="line"/>
      <point x="556" y="99" type="line"/>
      <point x="536" y="0" type="line"/>
      <point x="674" y="0" type="line"/>
      <point x="654" y="29" type="line"/>
    </contour>
  </outline>
</glyph>
<glyph name="Che-cy" format="2">
  <advance width="739"/>
  <unicode hex="0427"/>
  <anchor x="469" y="0" name="bottomleft"/>
  <anchor x="666" y="0" name="bottomright"/>
  <anchor x="430" y="700" name="top"/>
  <outline>
    <contour>
      <point x="546" y="276" type="curve"/>
      <point x="557" y="381" type="line"/>
      <point x="487" y="349"/>
      <point x="413" y="331"/>
      <point x="343" y="331" type="curve" smooth="yes"/>
      <point x="236" y="331"/>
      <point x="187" y="382"/>
      <point x="207" y="484" type="curve" smooth="yes"/>
      <point x="251" y="700" type="line"/>
      <point x="138" y="700" type="line"/>
      <point x="94" y="479" type="line" smooth="yes"/>
      <point x="62" y="322"/>
      <point x="147" y="230"/>
      <point x="326" y="230" type="curve" smooth="yes"/>
      <point x="388" y="230"/>
      <point x="463" y="244"/>
    </contour>
    <contour>
      <point x="469" y="0" type="line"/>
      <point x="582" y="0" type="line"/>
      <point x="722" y="700" type="line"/>
      <point x="609" y="700" type="line"/>
    </contour>
  </outline>
</glyph>
<glyph name="Hardsign-cy" format="2">
  <advance width="834"/>
  <unicode hex="042A"/>
  <outline>
    <contour>
      <point x="575" y="460" type="curve" smooth="yes"/>
      <point x="374" y="460" type="line"/>
      <point x="422" y="700" type="line"/>
      <point x="101" y="700" type="line"/>
      <point x="81" y="601" type="line"/>
      <point x="289" y="601" type="line"/>
      <point x="169" y="0" type="line"/>
      <point x="463" y="0" type="line" smooth="yes"/>
      <point x="671" y="0"/>
      <point x="795" y="104"/>
      <point x="795" y="284" type="curve" smooth="yes"/>
      <point x="795" y="400"/>
      <point x="718" y="460"/>
    </contour>
    <contour>
      <point x="477" y="90" type="curve" smooth="yes"/>
      <point x="300" y="90" type="line"/>
      <point x="356" y="370" type="line"/>
      <point x="533" y="370" type="line" smooth="yes"/>
      <point x="627" y="370"/>
      <point x="678" y="336"/>
      <point x="678" y="264" type="curve" smooth="yes"/>
      <point x="678" y="155"/>
      <point x="605" y="90"/>
    </contour>
  </outline>
</glyph>
<glyph name="Iu-cy" format="2">
  <advance width="1105"/>
  <unicode hex="042E"/>
  <outline>
    <contour>
      <point x="51" y="0" type="line"/>
      <point x="164" y="0" type="line"/>
      <point x="225" y="303" type="line"/>
      <point x="406" y="303" type="line"/>
      <point x="425" y="407" type="line"/>
      <point x="245" y="407" type="line"/>
      <point x="304" y="700" type="line"/>
      <point x="191" y="700" type="line"/>
    </contour>
    <contour>
      <point x="652" y="-9" type="curve" smooth="yes"/>
      <point x="882" y="-9"/>
      <point x="1077" y="181"/>
      <point x="1077" y="406" type="curve" smooth="yes"/>
      <point x="1077" y="585"/>
      <point x="952" y="709"/>
      <point x="767" y="709" type="curve" smooth="yes"/>
      <point x="537" y="709"/>
      <point x="343" y="519"/>
      <point x="343" y="294" type="curve" smooth="yes"/>
      <point x="343" y="112"/>
      <point x="469" y="-9"/>
    </contour>
    <contour>
      <point x="661" y="97" type="curve" smooth="yes"/>
      <point x="539" y="97"/>
      <point x="460" y="179"/>
      <point x="460" y="301" type="curve" smooth="yes"/>
      <point x="460" y="462"/>
      <point x="598" y="603"/>
      <point x="758" y="603" type="curve" smooth="yes"/>
      <point x="880" y="603"/>
      <point x="960" y="521"/>
      <point x="960" y="399" type="curve" smooth="yes"/>
      <point x="960" y="238"/>
      <point x="822" y="97"/>
    </contour>
  </outline>
</glyph>
<glyph name="Ia-cy" format="2">
  <advance width="733"/>
  <unicode hex="042F"/>
  <outline>
    <contour>
      <point x="463" y="0" type="line"/>
      <point x="576" y="0" type="line"/>
      <point x="716" y="700" type="line"/>
      <point x="430" y="700" type="line" smooth="yes"/>
      <point x="228" y="700"/>
      <point x="85" y="582"/>
      <point x="85" y="397" type="curve" smooth="yes"/>
      <point x="85" y="273"/>
      <point x="169" y="199"/>
      <point x="320" y="199" type="curve" smooth="yes"/>
      <point x="532" y="199" type="line"/>
      <point x="508" y="226" type="line"/>
    </contour>
    <contour>
      <point x="3" y="0" type="line"/>
      <point x="131" y="0" type="line"/>
      <point x="349" y="249" type="line"/>
      <point x="226" y="249" type="line"/>
    </contour>
    <contour>
      <point x="516" y="263" type="line"/>
      <point x="551" y="295" type="line"/>
      <point x="347" y="295" type="line" smooth="yes"/>
      <point x="251" y="295"/>
      <point x="203" y="339"/>
      <point x="203" y="414" type="curve" smooth="yes"/>
      <point x="203" y="532"/>
      <point x="280" y="601"/>
      <point x="414" y="601" type="curve" smooth="yes"/>
      <point x="612" y="601" type="line"/>
      <point x="589" y="633" type="line"/>
    </contour>
  </outline>
</glyph>
<glyph name="em-cy" format="2">
  <advance width="802"/>
  <unicode hex="043C"/>
  <anchor x="348" y="0" name="bottom"/>
  <anchor x="560" y="0" name="bottomleft"/>
  <anchor x="454" y="532" name="top"/>
  <outline>
    <contour>
      <point x="36" y="0" type="line"/>
      <point x="136" y="0" type="line"/>
      <point x="218" y="412" type="line"/>
      <point x="198" y="407" type="line"/>
      <point x="336" y="58" type="line"/>
      <point x="384" y="58" type="line"/>
      <point x="658" y="399" type="line"/>
      <point x="641" y="410" type="line"/>
      <point x="560" y="0" type="line"/>
      <point x="660" y="0" type="line"/>
      <point x="765" y="532" type="line"/>
      <point x="661" y="532" type="line"/>
      <point x="354" y="147" type="line"/>
      <point x="400" y="147" type="line"/>
      <point x="255" y="532" type="line"/>
      <point x="142" y="532" type="line"/>
    </contour>
  </outline>
</glyph>
<glyph name="ef-cy" format="2">
  <advance width="809"/>
  <unicode hex="0444"/>
  <outline>
    <contour>
      <point x="342" y="-7" type="curve"/>
      <point x="373" y="-7" type="line"/>
      <point x="615" y="-7"/>
      <point x="772" y="119"/>
      <point x="772" y="309" type="curve" smooth="yes"/>
      <point x="772" y="460"/>
      <point x="666" y="536"/>
      <point x="468" y="537" type="curve"/>
      <point x="444" y="537" type="line"/>
      <point x="195" y="537"/>
      <point x="35" y="412"/>
      <point x="35" y="221" type="curve" smooth="yes"/>
      <point x="35" y="70"/>
      <point x="141" y="-6"/>
    </contour>
    <contour>
      <point x="362" y="85" type="line"/>
      <point x="212" y="87"/>
      <point x="139" y="130"/>
      <point x="139" y="235" type="curve" smooth="yes"/>
      <point x="139" y="363"/>
      <point x="251" y="444"/>
      <point x="439" y="444" type="curve"/>
      <point x="451" y="444" type="line"/>
      <point x="601" y="444"/>
      <point x="668" y="398"/>
      <point x="668" y="297" type="curve" smooth="yes"/>
      <point x="668" y="167"/>
      <point x="556" y="85"/>
      <point x="372" y="85" type="curve"/>
    </contour>
    <contour>
      <point x="264" y="-194" type="line"/>
      <point x="361" y="-194" type="line"/>
      <point x="548" y="742" type="line"/>
      <point x="451" y="742" type="line"/>
    </contour>
  </outline>
</glyph>
<glyph name="tse-cy" format="2">
  <advance width="692"/>
  <unicode hex="0446"/>
  <outline>
    <contour>
      <point x="36" y="0" type="line"/>
      <point x="529" y="0" type="line"/>
      <point x="635" y="532" type="line"/>
      <point x="525" y="532" type="line"/>
      <point x="438" y="96" type="line"/>
      <point x="165" y="96" type="line"/>
      <point x="252" y="532" type="line"/>
      <point x="142" y="532" type="line"/>
    </contour>
    <contour>
      <point x="483" y="-121" type="line"/>
      <point x="586" y="-121" type="line"/>
      <point x="630" y="96" type="line"/>
      <point x="438" y="96" type="line"/>
      <point x="419" y="0" type="line"/>
      <point x="534" y="0" type="line"/>
      <point x="509" y="4" type="line"/>
    </contour>
  </outline>
</glyph>
<glyph name="che-cy" format="2">
  <advance width="614"/>
  <unicode hex="0447"/>
  <anchor x="362" y="0" name="bottomleft"/>
  <anchor x="540" y="0" name="bottomright"/>
  <anchor x="332" y="532" name="top"/>
  <outline>
    <contour>
      <point x="416" y="212" type="curve"/>
      <point x="426" y="300" type="line"/>
      <point x="371" y="277"/>
      <point x="316" y="262"/>
      <point x="263" y="262" type="curve" smooth="yes"/>
      <point x="191" y="262"/>
      <point x="154" y="291"/>
      <point x="168" y="364" type="curve" smooth="yes"/>
      <point x="202" y="532" type="line"/>
      <point x="92" y="532" type="line"/>
      <point x="59" y="365" type="line" smooth="yes"/>
      <point x="33" y="235"/>
      <point x="102" y="172"/>
      <point x="238" y="172" type="curve" smooth="yes"/>
      <point x="296" y="172"/>
      <point x="358" y="186"/>
    </contour>
    <contour>
      <point x="362" y="0" type="line"/>
      <point x="472" y="0" type="line"/>
      <point x="578" y="532" type="line"/>
      <point x="468" y="532" type="line"/>
    </contour>
  </outline>
</glyph>
<glyph name="sha-cy" format="2">
  <advance width="948"/>
  <unicode hex="0448"/>
  <anchor x="692" y="0" name="bottomleft"/>
  <outline>
    <contour>
      <point x="412" y="96" type="line"/>
      <point x="141" y="96" type="line"/>
      <point x="161" y="68" type="line"/>
      <point x="252" y="532" type="line"/>
      <point x="142" y="532" type="line"/>
      <point x="36" y="0" type="line"/>
      <point x="806" y="0" type="line"/>
      <point x="912" y="532" type="line"/>
      <point x="802" y="532" type="line"/>
      <point x="711" y="68" type="line"/>
      <point x="743" y="96" type="line"/>
      <point x="471" y="96" type="line"/>
      <point x="492" y="68" type="line"/>
      <point x="583" y="532" type="line"/>
      <point x="473" y="532" type="line"/>
      <point x="382" y="68" type="line"/>
    </contour>
  </outline>
</glyph>
<glyph name="softsign-cy" format="2">
  <advance width="581"/>
  <unicode hex="044C"/>
  <anchor x="36" y="0" name="#entry"/>
  <outline>
    <contour>
      <point x="355" y="356" type="curve" smooth="yes"/>
      <point x="217" y="356" type="line"/>
      <point x="252" y="532" type="line"/>
      <point x="143" y="532" type="line"/>
      <point x="36" y="0" type="line"/>
      <point x="282" y="0" type="line" smooth="yes"/>
      <point x="437" y="0"/>
      <point x="538" y="82"/>
      <point x="538" y="208" type="curve" smooth="yes"/>
      <point x="538" y="306"/>
      <point x="476" y="356"/>
    </contour>
    <contour>
      <point x="282" y="82" type="curve" smooth="yes"/>
      <point x="163" y="82" type="line"/>
      <point x="201" y="275" type="line"/>
      <point x="322" y="275" type="line" smooth="yes"/>
      <point x="394" y="275"/>
      <point x="428" y="250"/>
      <point x="428" y="198" type="curve" smooth="yes"/>
      <point x="428" y="128"/>
      <point x="369" y="82"/>
    </contour>
  </outline>
</glyph>
<glyph name="iu-cy" format="2">
  <advance width="891"/>
  <unicode hex="044E"/>
  <outline>
    <contour>
      <point x="36" y="0" type="line"/>
      <point x="146" y="0" type="line"/>
      <point x="190" y="219" type="line"/>
      <point x="349" y="219" type="line"/>
      <point x="369" y="320" type="line"/>
      <point x="210" y="320" type="line"/>
      <point x="252" y="532" type="line"/>
      <point x="142" y="532" type="line"/>
    </contour>
    <contour>
      <point x="539" y="-6" type="curve" smooth="yes"/>
      <point x="720" y="-6"/>
      <point x="849" y="128"/>
      <point x="849" y="307" type="curve" smooth="yes"/>
      <point x="849" y="447"/>
      <point x="751" y="538"/>
      <point x="600" y="538" type="curve" smooth="yes"/>
      <point x="420" y="538"/>
      <point x="290" y="404"/>
      <point x="290" y="225" type="curve" smooth="yes"/>
      <point x="290" y="86"/>
      <point x="388" y="-6"/>
    </contour>
    <contour>
      <point x="547" y="90" type="curve" smooth="yes"/>
      <point x="453" y="90"/>
      <point x="401" y="143"/>
      <point x="401" y="230" type="curve" smooth="yes"/>
      <point x="401" y="355"/>
      <point x="482" y="442"/>
      <point x="593" y="442" type="curve" smooth="yes"/>
      <point x="686" y="442"/>
      <point x="738" y="389"/>
      <point x="738" y="302" type="curve" smooth="yes"/>
      <point x="738" y="177"/>
      <point x="657" y="90"/>
    </contour>
  </outline>
</glyph>
<glyph name="ia-cy" format="2">
  <advance width="616"/>
  <unicode hex="044F"/>
  <outline>
    <contour>
      <point x="376" y="0" type="line"/>
      <point x="474" y="0" type="line"/>
      <point x="580" y="532" type="line"/>
      <point x="338" y="532" type="line" smooth="yes"/>
      <point x="167" y="532"/>
      <point x="62" y="454"/>
      <point x="62" y="323" type="curve" smooth="yes"/>
      <point x="62" y="225"/>
      <point x="133" y="159"/>
      <point x="263" y="159" type="curve" smooth="yes"/>
      <point x="426" y="159" type="line"/>
      <point x="412" y="187" type="line"/>
    </contour>
    <contour>
      <point x="-8" y="0" type="line"/>
      <point x="115" y="0" type="line"/>
      <point x="290" y="204" type="line"/>
      <point x="177" y="204" type="line"/>
    </contour>
    <contour>
      <point x="419" y="217" type="line"/>
      <point x="440" y="246" type="line"/>
      <point x="282" y="246" type="line" smooth="yes"/>
      <point x="211" y="246"/>
      <point x="175" y="272"/>
      <point x="175" y="325" type="curve" smooth="yes"/>
      <point x="175" y="398"/>
      <point x="231" y="438"/>
      <point x="329" y="438" type="curve" smooth="yes"/>
      <point x="481" y="438" type="line"/>
      <point x="470" y="473" type="line"/>
    </contour>
  </outline>
</glyph>
<glyph name="e-cy" format="2">
  <advance width="583"/>
  <unicode hex="0454"/>
  <outline>
    <contour>
      <point x="414" y="303" type="line"/>
      <point x="120" y="303" type="line"/>
      <point x="104" y="222" type="line"/>
      <point x="397" y="222" type="line"/>
    </contour>
    <contour>
      <point x="290" y="-6" type="curve" smooth="yes"/>
      <point x="380" y="-6"/>
      <point x="467" y="27"/>
      <point x="525" y="82" type="curve"/>
      <point x="471" y="143" type="line"/>
      <point x="422" y="100"/>
      <point x="366" y="80"/>
      <point x="306" y="80" type="curve" smooth="yes"/>
      <point x="205" y="80"/>
      <point x="144" y="137"/>
      <point x="144" y="231" type="curve" smooth="yes"/>
      <point x="144" y="352"/>
      <point x="248" y="452"/>
      <point x="377" y="452" type="curve" smooth="yes"/>
      <point x="436" y="452"/>
      <point x="489" y="431"/>
      <point x="522" y="392" type="curve"/>
      <point x="592" y="448" type="line"/>
      <point x="550" y="507"/>
      <point x="475" y="540"/>
      <point x="382" y="540" type="curve" smooth="yes"/>
      <point x="191" y="540"/>
      <point x="37" y="401"/>
      <point x="37" y="227" type="curve" smooth="yes"/>
      <point x="37" y="87"/>
      <point x="139" y="-6"/>
    </contour>
  </outline>
</glyph>
<glyph name="nje-cy" format="2">
  <advance width="954"/>
  <unicode hex="045A"/>
  <outline>
    <contour>
      <point x="523" y="235" type="line"/>
      <point x="542" y="330" type="line"/>
      <point x="212" y="330" type="line"/>
      <point x="252" y="532" type="line"/>
      <point x="142" y="532" type="line"/>
      <point x="36" y="0" type="line"/>
      <point x="146" y="0" type="line"/>
      <point x="193" y="235" type="line"/>
    </contour>
    <contour>
      <point x="732" y="330" type="curve" smooth="yes"/>
      <point x="598" y="330" type="line"/>
      <point x="638" y="532" type="line"/>
      <point x="529" y="532" type="line"/>
      <point x="423" y="0" type="line"/>
      <point x="664" y="0" type="line" smooth="yes"/>
      <point x="815" y="0"/>
      <point x="911" y="72"/>
      <point x="911" y="184" type="curve" smooth="yes"/>
      <point x="911" y="276"/>
      <point x="846" y="330"/>
    </contour>
    <contour>
      <point x="663" y="80" type="curve" smooth="yes"/>
      <point x="548" y="80" type="line"/>
      <point x="580" y="241" type="line"/>
      <point x="708" y="241" type="line" smooth="yes"/>
      <point x="771" y="241"/>
      <point x="801" y="220"/>
      <point x="801" y="175" type="curve" smooth="yes"/>
      <point x="801" y="115"/>
      <point x="749" y="80"/>
    </contour>
  </outline>
</glyph>
<glyph name="Yat-cy" format="2">
  <advance width="815"/>
  <unicode hex="0462"/>
  <anchor x="339" y="585" name="center"/>
  <outline>
    <contour>
      <point x="151" y="0" type="line"/>
      <point x="454" y="0" type="line" smooth="yes"/>
      <point x="631" y="0"/>
      <point x="742" y="80"/>
      <point x="771" y="224" type="curve" smooth="yes"/>
      <point x="800" y="374"/>
      <point x="713" y="455"/>
      <point x="547" y="455" type="curve" smooth="yes"/>
      <point x="355" y="455" type="line"/>
      <point x="412" y="742" type="line"/>
      <point x="299" y="742" type="line"/>
    </contour>
    <contour>
      <point x="282" y="90" type="line"/>
      <point x="338" y="365" type="line"/>
      <point x="515" y="365" type="line" smooth="yes"/>
      <point x="609" y="365"/>
      <point x="661" y="332"/>
      <point x="661" y="260" type="curve" smooth="yes"/>
      <point x="661" y="154"/>
      <point x="586" y="90"/>
      <point x="459" y="90" type="curve" smooth="yes"/>
    </contour>
    <contour>
      <point x="76" y="550" type="line"/>
      <point x="584" y="550" type="line"/>
      <point x="601" y="635" type="line"/>
      <point x="93" y="635" type="line"/>
    </contour>
  </outline>
</glyph>
<glyph name="Izhitsa-cy" format="2">
  <advance width="765"/>
  <unicode hex="0474"/>
  <outline>
    <contour>
      <point x="246" y="0" type="line"/>
      <point x="359" y="0" type="line"/>
      <point x="631" y="476" type="line" smooth="yes"/>
      <point x="687" y="574"/>
      <point x="732" y="609"/>
      <point x="810" y="589" type="curve"/>
      <point x="836" y="699" type="line"/>
      <point x="707" y="732"/>
      <point x="630" y="690"/>
      <point x="553" y="555" type="curve" smooth="yes"/>
      <point x="332" y="166" type="line"/>
      <point x="220" y="700" type="line"/>
      <point x="99" y="700" type="line"/>
    </contour>
  </outline>
</glyph>
<glyph name="Semisoftsign-cy" format="2">
  <advance width="745"/>
  <unicode hex="048C"/>
  <outline>
    <contour>
      <point x="77" y="0" type="line"/>
      <point x="372" y="0" type="line" smooth="yes"/>
      <point x="574" y="0"/>
      <point x="705" y="107"/>
      <point x="705" y="271" type="curve" smooth="yes"/>
      <point x="705" y="397"/>
      <point x="628" y="460"/>
      <point x="473" y="460" type="curve" smooth="yes"/>
      <point x="282" y="460" type="line"/>
      <point x="338" y="742" type="line"/>
      <point x="225" y="742" type="line"/>
    </contour>
    <contour>
      <point x="208" y="90" type="line"/>
      <point x="264" y="370" type="line"/>
      <point x="446" y="370" type="line" smooth="yes"/>
      <point x="544" y="370"/>
      <point x="587" y="336"/>
      <point x="587" y="259" type="curve" smooth="yes"/>
      <point x="587" y="155"/>
      <point x="509" y="90"/>
      <point x="385" y="90" type="curve" smooth="yes"/>
    </contour>
    <contour>
      <point x="88" y="550" type="line"/>
      <point x="510" y="550" type="line"/>
      <point x="527" y="635" type="line"/>
      <point x="105" y="635" type="line"/>
    </contour>
  </outline>
</glyph>
<glyph name="Ghestroke-cy" format="2">
  <advance width="625"/>
  <unicode hex="0492"/>
  <outline>
    <contour>
      <point x="24" y="280" type="line"/>
      <point x="530" y="280" type="line"/>
      <point x="546" y="365" type="line"/>
      <point x="40" y="365" type="line"/>
    </contour>
    <component base="Ge-cy" xOffset="33"/>
  </outline>
</glyph>
<glyph name="Ghemiddlehook-cy" format="2">
  <advance width="703"/>
  <unicode hex="0494"/>
  <outline>
    <contour>
      <point x="51" y="0" type="line"/>
      <point x="165" y="0" type="line"/>
      <point x="289" y="630" type="line"/>
      <point x="255" y="601" type="line"/>
      <point x="658" y="601" type="line"/>
      <point x="678" y="700" type="line"/>
      <point x="191" y="700" type="line"/>
    </contour>
    <contour>
      <point x="243" y="-138" type="line"/>
      <point x="450" y="-181"/>
      <point x="638" y="-17"/>
      <point x="638" y="193" type="curve" smooth="yes"/>
      <point x="638" y="406"/>
      <point x="420" y="445"/>
      <point x="209" y="345" type="curve"/>
      <point x="204" y="250" type="line"/>
      <point x="354" y="338"/>
      <point x="527" y="327"/>
      <point x="527" y="183" type="curve" smooth="yes"/>
      <point x="527" y="50"/>
      <point x="410" y="-76"/>
      <point x="269" y="-48" type="curve"/>
    </contour>
  </outline>
</glyph>
<glyph name="ghemiddlehook-cy" format="2">
  <advance width="610"/>
  <unicode hex="0495"/>
  <outline>
    <contour>
      <point x="37" y="0" type="line"/>
      <point x="146" y="0" type="line"/>
      <point x="240" y="470" type="line"/>
      <point x="207" y="436" type="line"/>
      <point x="522" y="436" type="line"/>
      <point x="541" y="532" type="line"/>
      <point x="142" y="532" type="line"/>
    </contour>
    <contour>
      <point x="169" y="-194" type="line"/>
      <point x="374" y="-236"/>
      <point x="550" y="-100"/>
      <point x="550" y="91" type="curve" smooth="yes"/>
      <point x="550" y="278"/>
      <point x="379" y="339"/>
      <point x="162" y="239" type="curve"/>
      <point x="155" y="149" type="line"/>
      <point x="309" y="232"/>
      <point x="436" y="200"/>
      <point x="436" y="75" type="curve" smooth="yes"/>
      <point x="436" y="-44"/>
      <point x="327" y="-123"/>
      <point x="198" y="-99" type="curve"/>
    </contour>
  </outline>
</glyph>
<glyph name="kastroke-cy" format="2">
  <advance width="605"/>
  <unicode hex="049F"/>
  <anchor x="269" y="0" name="bottom"/>
  <anchor x="375" y="532" name="top"/>
  <outline>
    <contour>
      <point x="64" y="597" type="line"/>
      <point x="414" y="597" type="line"/>
      <point x="429" y="674" type="line"/>
      <point x="80" y="676" type="line"/>
    </contour>
    <contour>
      <point x="418" y="0" type="line"/>
      <point x="546" y="0" type="line"/>
      <point x="367" y="301" type="line"/>
      <point x="276" y="259" type="line"/>
    </contour>
    <contour>
      <point x="35" y="0" type="line"/>
      <point x="145" y="0" type="line"/>
      <point x="293" y="742" type="line"/>
      <point x="183" y="742" type="line"/>
    </contour>
    <contour>
      <point x="157" y="221" type="line"/>
      <point x="334" y="221" type="line"/>
      <point x="352" y="312" type="line"/>
      <point x="174" y="312" type="line"/>
    </contour>
    <contour>
      <point x="371" y="253" type="line"/>
      <point x="643" y="532" type="line"/>
      <point x="521" y="532" type="line"/>
      <point x="266" y="267" type="line"/>
    </contour>
  </outline>
</glyph>
<glyph name="Kabashkir-cy" format="2">
  <advance width="855"/>
  <unicode hex="04A0"/>
  <anchor x="447" y="0" name="bottom"/>
  <anchor x="587" y="701" name="top"/>
  <outline>
    <contour>
      <point x="81" y="601" type="line"/>
      <point x="402" y="601" type="line"/>
      <point x="422" y="700" type="line"/>
      <point x="101" y="700" type="line"/>
    </contour>
    <contour>
      <point x="654" y="0" type="line"/>
      <point x="786" y="0" type="line"/>
      <point x="602" y="401" type="line"/>
      <point x="502" y="343" type="line"/>
    </contour>
    <contour>
      <point x="169" y="0" type="line"/>
      <point x="282" y="0" type="line"/>
      <point x="422" y="700" type="line"/>
      <point x="309" y="700" type="line"/>
    </contour>
    <contour>
      <point x="307" y="301" type="line"/>
      <point x="563" y="301" type="line"/>
      <point x="583" y="402" type="line"/>
      <point x="327" y="402" type="line"/>
    </contour>
    <contour>
      <point x="604" y="337" type="line"/>
      <point x="911" y="700" type="line"/>
      <point x="786" y="700" type="line"/>
      <point x="499" y="352" type="line"/>
    </contour>
  </outline>
</glyph>
<glyph name="kabashkir-cy" format="2">
  <advance width="678"/>
  <unicode hex="04A1"/>
  <anchor x="345" y="0" name="bottom"/>
  <anchor x="451" y="532" name="top"/>
  <outline>
    <contour>
      <point x="40" y="438" type="line"/>
      <point x="307" y="438" type="line"/>
      <point x="326" y="532" type="line"/>
      <point x="59" y="532" type="line"/>
    </contour>
    <contour>
      <point x="493" y="0" type="line"/>
      <point x="620" y="0" type="line"/>
      <point x="441" y="301" type="line"/>
      <point x="350" y="259" type="line"/>
    </contour>
    <contour>
      <point x="109" y="0" type="line"/>
      <point x="219" y="0" type="line"/>
      <point x="326" y="532" type="line"/>
      <point x="216" y="532" type="line"/>
    </contour>
    <contour>
      <point x="231" y="219" type="line"/>
      <point x="409" y="219" type="line"/>
      <point x="426" y="312" type="line"/>
      <point x="248" y="312" type="line"/>
    </contour>
    <contour>
      <point x="445" y="253" type="line"/>
      <point x="716" y="532" type="line"/>
      <point x="595" y="532" type="line"/>
      <point x="341" y="267" type="line"/>
    </contour>
  </outline>
</glyph>
<glyph name="Pemiddlehook-cy" format="2">
  <advance width="1200"/>
  <unicode hex="04A6"/>
  <outline>
    <contour>
      <point x="740" y="-138" type="line"/>
      <point x="947" y="-181"/>
      <point x="1135" y="-17"/>
      <point x="1135" y="193" type="curve" smooth="yes"/>
      <point x="1135" y="406"/>
      <point x="917" y="445"/>
      <point x="706" y="345" type="curve"/>
      <point x="701" y="250" type="line"/>
      <point x="851" y="338"/>
      <point x="1024" y="327"/>
      <point x="1024" y="183" type="curve" smooth="yes"/>
      <point x="1024" y="50"/>
      <point x="907" y="-76"/>
      <point x="766" y="-48" type="curve"/>
    </contour>
    <component base="Pe-cy"/>
  </outline>
</glyph>
<glyph name="pemiddlehook-cy" format="2">
  <advance width="1001"/>
  <unicode hex="04A7"/>
  <outline>
    <contour>
      <point x="560" y="-194" type="line"/>
      <point x="765" y="-236"/>
      <point x="941" y="-100"/>
      <point x="941" y="91" type="curve" smooth="yes"/>
      <point x="941" y="278"/>
      <point x="770" y="339"/>
      <point x="553" y="239" type="curve"/>
      <point x="546" y="149" type="line"/>
      <point x="700" y="232"/>
      <point x="827" y="200"/>
      <point x="827" y="75" type="curve" smooth="yes"/>
      <point x="827" y="-44"/>
      <point x="718" y="-123"/>
      <point x="589" y="-99" type="curve"/>
    </contour>
    <component base="pe-cy"/>
  </outline>
</glyph>
<glyph name="tedescender-cy" format="2">
  <advance width="504"/>
  <unicode hex="04AD"/>
  <anchor x="201" y="0" name="bottom"/>
  <anchor x="144" y="0" name="bottomleft"/>
  <anchor x="251" y="250" name="center"/>
  <anchor x="307" y="532" name="top"/>
  <outline>
    <contour>
      <point x="144" y="0" type="line"/>
      <point x="254" y="0" type="line"/>
      <point x="345" y="464" type="line"/>
      <point x="313" y="436" type="line"/>
      <point x="532" y="436" type="line"/>
      <point x="551" y="532" type="line"/>
      <point x="59" y="532" type="line"/>
      <point x="40" y="436" type="line"/>
      <point x="255" y="436" type="line"/>
      <point x="235" y="464" type="line"/>
    </contour>
    <contour>
      <point x="211" y="-111" type="line"/>
      <point x="314" y="-111" type="line"/>
      <point x="356" y="96" type="line"/>
      <point x="164" y="96" type="line"/>
      <point x="144" y="0" type="line"/>
      <point x="259" y="0" type="line"/>
      <point x="239" y="28" type="line"/>
    </contour>
  </outline>
</glyph>
<glyph name="ustrait-cy" format="2">
  <advance width="582"/>
  <unicode hex="04AF"/>
  <anchor x="239" y="5" name="center"/>
  <outline>
    <contour>
      <point x="303" y="49" type="line"/>
      <point x="193" y="49" type="line"/>
      <point x="143" y="-194" type="line"/>
      <point x="253" y="-194" type="line"/>
    </contour>
    <contour>
      <point x="192" y="-46" type="line"/>
      <point x="267" y="-46" type="line"/>
      <point x="631" y="532" type="line"/>
      <point x="520" y="532" type="line"/>
      <point x="220" y="52" type="line"/>
      <point x="275" y="52" type="line"/>
      <point x="166" y="532" type="line"/>
      <point x="57" y="532" type="line"/>
    </contour>
  </outline>
</glyph>
<glyph name="Ustraitstroke-cy" format="2">
  <advance width="676"/>
  <unicode hex="04B0"/>
  <outline>
    <contour>
      <point x="105.2616" y="197" type="line"/>
      <point x="538.6624" y="197" type="line"/>
      <point x="553.7936" y="274" type="line"/>
      <point x="121.4736" y="274" type="line"/>
    </contour>
    <component base="Ustrait-cy"/>
  </outline>
</glyph>
<glyph name="ustraitstroke-cy" format="2">
  <advance width="582"/>
  <unicode hex="04B1"/>
  <outline>
    <contour>
      <point x="10.0683" y="-33" type="line"/>
      <point x="452.3312" y="-33" type="line"/>
      <point x="467.7718" y="44" type="line"/>
      <point x="26.6118" y="44" type="line"/>
    </contour>
    <component base="ustrait-cy"/>
  </outline>
</glyph>
<glyph name="Tetse-cy" format="2">
  <advance width="979"/>
  <unicode hex="04B4"/>
  <anchor x="253" y="0" name="bottom"/>
  <anchor x="320" y="336" name="center"/>
  <anchor x="393" y="700" name="top"/>
  <outline>
    <contour>
      <point x="198" y="0" type="line"/>
      <point x="311" y="0" type="line"/>
      <point x="435" y="630" type="line"/>
      <point x="401" y="601" type="line"/>
      <point x="635" y="601" type="line"/>
      <point x="655" y="700" type="line"/>
      <point x="102" y="700" type="line"/>
      <point x="82" y="601" type="line"/>
      <point x="343" y="601" type="line"/>
      <point x="322" y="630" type="line"/>
    </contour>
    <component base="Tse-cy" xOffset="147"/>
  </outline>
</glyph>
<glyph name="Cheverticalstroke-cy" format="2">
  <advance width="739"/>
  <unicode hex="04B8"/>
  <outline>
    <contour>
      <point x="256" y="96" type="line"/>
      <point x="341" y="96" type="line"/>
      <point x="415" y="467" type="line"/>
      <point x="330" y="467" type="line"/>
    </contour>
    <component base="Che-cy"/>
  </outline>
</glyph>
<glyph name="Cheabkhasian-cy" format="2">
  <advance width="998"/>
  <unicode hex="04BC"/>
  <anchor x="564" y="0" name="bottom"/>
  <anchor x="687" y="703" name="top"/>
  <outline>
    <contour>
      <point x="580" y="-9" type="curve" smooth="yes"/>
      <point x="682" y="-9"/>
      <point x="781" y="24"/>
      <point x="868" y="89" type="curve"/>
      <point x="810" y="172" type="line"/>
      <point x="740" y="119"/>
      <point x="664" y="92"/>
      <point x="588" y="92" type="curve" smooth="yes"/>
      <point x="450" y="92"/>
      <point x="363" y="180"/>
      <point x="363" y="311" type="curve" smooth="yes"/>
      <point x="363" y="473"/>
      <point x="497" y="609"/>
      <point x="661" y="609" type="curve" smooth="yes"/>
      <point x="808" y="609"/>
      <point x="895" y="499"/>
      <point x="864" y="354" type="curve"/>
      <point x="896" y="392" type="line"/>
      <point x="246" y="392" type="line" smooth="yes"/>
      <point x="165" y="392"/>
      <point x="156" y="468"/>
      <point x="227" y="552" type="curve"/>
      <point x="121" y="580" type="line"/>
      <point x="19" y="433"/>
      <point x="67" y="296"/>
      <point x="221" y="295" type="curve" smooth="yes"/>
      <point x="959" y="291" type="line"/>
      <point x="1030" y="526"/>
      <point x="905" y="709"/>
      <point x="673" y="709" type="curve" smooth="yes"/>
      <point x="440" y="709"/>
      <point x="250" y="525"/>
      <point x="250" y="302" type="curve" smooth="yes"/>
      <point x="250" y="117"/>
      <point x="381" y="-9"/>
    </contour>
  </outline>
</glyph>
<glyph name="cheabkhasian-cy" format="2">
  <advance width="782"/>
  <unicode hex="04BD"/>
  <anchor x="426" y="0" name="bottom"/>
  <anchor x="517" y="530" name="top"/>
  <outline>
    <contour>
      <point x="237" y="231" type="line"/>
      <point x="251" y="310" type="line"/>
      <point x="193" y="310" type="line" smooth="yes"/>
      <point x="125" y="310"/>
      <point x="116" y="355"/>
      <point x="163" y="418" type="curve"/>
      <point x="74" y="436" type="line"/>
      <point x="-1" y="318"/>
      <point x="29" y="231"/>
      <point x="165" y="231" type="curve" smooth="yes"/>
    </contour>
    <contour>
      <point x="451" y="-6" type="curve" smooth="yes"/>
      <point x="537" y="-6"/>
      <point x="618" y="19"/>
      <point x="674" y="68" type="curve"/>
      <point x="626" y="148" type="line"/>
      <point x="587" y="110"/>
      <point x="527" y="90"/>
      <point x="461" y="90" type="curve" smooth="yes"/>
      <point x="348" y="90"/>
      <point x="296" y="141"/>
      <point x="296" y="232" type="curve" smooth="yes"/>
      <point x="296" y="361"/>
      <point x="374" y="446"/>
      <point x="492" y="446" type="curve" smooth="yes"/>
      <point x="592" y="446"/>
      <point x="655" y="388"/>
      <point x="639" y="283" type="curve"/>
      <point x="685" y="310" type="line"/>
      <point x="281" y="310" type="line"/>
      <point x="268" y="231" type="line"/>
      <point x="739" y="231" type="line"/>
      <point x="744" y="254"/>
      <point x="747" y="279"/>
      <point x="747" y="305" type="curve" smooth="yes"/>
      <point x="747" y="451"/>
      <point x="647" y="538"/>
      <point x="497" y="538" type="curve" smooth="yes"/>
      <point x="317" y="538"/>
      <point x="185" y="407"/>
      <point x="185" y="226" type="curve" smooth="yes"/>
      <point x="185" y="86"/>
      <point x="287" y="-6"/>
    </contour>
  </outline>
</glyph>
<glyph name="Palochka-cy" format="2">
  <advance width="322"/>
  <unicode hex="04C0"/>
  <anchor x="108" y="0" name="bottom"/>
  <anchor x="165" y="0" name="ogonek"/>
  <anchor x="248" y="700" name="top"/>
  <anchor x="111" y="699" name="topleft"/>
  <outline>
    <contour>
      <point x="51" y="0" type="line"/>
      <point x="165" y="0" type="line"/>
      <point x="305" y="700" type="line"/>
      <point x="191" y="700" type="line"/>
    </contour>
  </outline>
</glyph>
<glyph name="Enhook-cy" format="2">
  <advance width="815"/>
  <unicode hex="04C7"/>
  <outline>
    <contour>
      <point x="331" y="-166" type="line"/>
      <point x="438" y="-237"/>
      <point x="617" y="-202"/>
      <point x="651" y="-35" type="curve" smooth="yes"/>
      <point x="798" y="700" type="line"/>
      <point x="685" y="700" type="line"/>
      <point x="625" y="399" type="line"/>
      <point x="244" y="399" type="line"/>
      <point x="304" y="700" type="line"/>
      <point x="191" y="700" type="line"/>
      <point x="51" y="0" type="line"/>
      <point x="164" y="0" type="line"/>
      <point x="224" y="299" type="line"/>
      <point x="605" y="299" type="line"/>
      <point x="540" y="-23" type="line" smooth="yes"/>
      <point x="524" y="-104"/>
      <point x="431" y="-129"/>
      <point x="373" y="-87" type="curve"/>
    </contour>
  </outline>
</glyph>
<glyph name="enhook-cy" format="2">
  <advance width="689"/>
  <unicode hex="04C8"/>
  <outline>
    <contour>
      <point x="334" y="-200" type="curve" smooth="yes"/>
      <point x="445" y="-200"/>
      <point x="521" y="-130"/>
      <point x="542" y="-22" type="curve"/>
      <point x="653" y="532" type="line"/>
      <point x="543" y="532" type="line"/>
      <point x="499" y="311" type="line"/>
      <point x="208" y="311" type="line"/>
      <point x="252" y="532" type="line"/>
      <point x="142" y="532" type="line"/>
      <point x="36" y="0" type="line"/>
      <point x="146" y="0" type="line"/>
      <point x="189" y="216" type="line"/>
      <point x="480" y="216" type="line"/>
      <point x="433" y="-19" type="line" smooth="yes"/>
      <point x="421" y="-78"/>
      <point x="386" y="-108"/>
      <point x="337" y="-108" type="curve" smooth="yes"/>
      <point x="309" y="-108"/>
      <point x="286" y="-100"/>
      <point x="270" y="-85" type="curve"/>
      <point x="221" y="-168" type="line"/>
      <point x="246" y="-190"/>
      <point x="289" y="-200"/>
    </contour>
  </outline>
</glyph>
<glyph name="Chekhakassian-cy" format="2">
  <advance width="733"/>
  <unicode hex="04CB"/>
  <outline>
    <contour>
      <point x="327" y="254" type="curve" smooth="yes"/>
      <point x="389" y="254"/>
      <point x="464" y="268"/>
      <point x="546" y="300" type="curve"/>
      <point x="558" y="404" type="line"/>
      <point x="487" y="373"/>
      <point x="413" y="354"/>
      <point x="342" y="354" type="curve" smooth="yes"/>
      <point x="236" y="354"/>
      <point x="187" y="403"/>
      <point x="206" y="498" type="curve" smooth="yes"/>
      <point x="247" y="700" type="line"/>
      <point x="134" y="700" type="line"/>
      <point x="92" y="493" type="line" smooth="yes"/>
      <point x="62" y="342"/>
      <point x="148" y="254"/>
    </contour>
    <contour>
      <point x="311" y="-151" type="line"/>
      <point x="417" y="-151" type="line"/>
      <point x="451" y="29" type="line"/>
      <point x="436" y="0" type="line"/>
      <point x="576" y="0" type="line"/>
      <point x="596" y="99" type="line"/>
      <point x="361" y="99" type="line"/>
    </contour>
    <contour>
      <point x="463" y="0" type="line"/>
      <point x="576" y="0" type="line"/>
      <point x="716" y="700" type="line"/>
      <point x="603" y="700" type="line"/>
    </contour>
  </outline>
</glyph>
<glyph name="schwa-cy" format="2">
  <advance width="623"/>
  <unicode hex="04D9"/>
  <anchor x="365" y="532" name="top"/>
  <outline>
    <contour>
      <point x="323" y="538" type="curve" smooth="yes"/>
      <point x="242" y="538"/>
      <point x="161" y="513"/>
      <point x="107" y="464" type="curve"/>
      <point x="153" y="384" type="line"/>
      <point x="191" y="420"/>
      <point x="249" y="442"/>
      <point x="313" y="442" type="curve" smooth="yes"/>
      <point x="423" y="442"/>
      <point x="473" y="391"/>
      <point x="473" y="300" type="curve" smooth="yes"/>
      <point x="473" y="171"/>
      <point x="398" y="86"/>
      <point x="283" y="86" type="curve" smooth="yes"/>
      <point x="186" y="86"/>
      <point x="125" y="144"/>
      <point x="141" y="249" type="curve"/>
      <point x="96" y="222" type="line"/>
      <point x="488" y="222" type="line"/>
      <point x="501" y="301" type="line"/>
      <point x="44" y="301" type="line"/>
      <point x="39" y="278"/>
      <point x="36" y="253"/>
      <point x="36" y="227" type="curve" smooth="yes"/>
      <point x="36" y="81"/>
      <point x="133" y="-6"/>
      <point x="278" y="-6" type="curve" smooth="yes"/>
      <point x="453" y="-6"/>
      <point x="581" y="125"/>
      <point x="581" y="306" type="curve" smooth="yes"/>
      <point x="581" y="446"/>
      <point x="482" y="538"/>
    </contour>
  </outline>
</glyph>
<glyph name="Dzeabkhasian-cy" format="2">
  <advance width="606"/>
  <unicode hex="04E0"/>
  <outline>
    <contour>
      <point x="242" y="-9" type="curve" smooth="yes"/>
      <point x="424" y="-9"/>
      <point x="546" y="90"/>
      <point x="546" y="228" type="curve" smooth="yes"/>
      <point x="546" y="342"/>
      <point x="463" y="411"/>
      <point x="318" y="411" type="curve" smooth="yes"/>
      <point x="292" y="411" type="line"/>
      <point x="349" y="376" type="line"/>
      <point x="600" y="622" type="line"/>
      <point x="614" y="700" type="line"/>
      <point x="145" y="700" type="line"/>
      <point x="125" y="601" type="line"/>
      <point x="507" y="601" type="line"/>
      <point x="494" y="645" type="line"/>
      <point x="244" y="400" type="line"/>
      <point x="228" y="319" type="line"/>
      <point x="286" y="319" type="line" smooth="yes"/>
      <point x="383" y="319"/>
      <point x="431" y="287"/>
      <point x="431" y="222" type="curve" smooth="yes"/>
      <point x="431" y="142"/>
      <point x="365" y="93"/>
      <point x="249" y="93" type="curve" smooth="yes"/>
      <point x="164" y="93"/>
      <point x="93" y="123"/>
      <point x="53" y="166" type="curve"/>
      <point x="-6" y="77" type="line"/>
      <point x="46" y="23"/>
      <point x="136" y="-9"/>
    </contour>
  </outline>
</glyph>
<glyph name="Hastroke-cy" format="2">
  <advance width="693"/>
  <unicode hex="04FE"/>
  <outline>
    <contour>
      <point x="101" y="313" type="line"/>
      <point x="606" y="313" type="line"/>
      <point x="623" y="398" type="line"/>
      <point x="118" y="398" type="line"/>
    </contour>
    <contour>
      <point x="128" y="700" type="line"/>
      <point x="297" y="359" type="line"/>
      <point x="-32" y="0" type="line"/>
      <point x="104" y="0" type="line"/>
      <point x="349" y="266" type="line"/>
      <point x="486" y="0" type="line"/>
      <point x="619" y="0" type="line"/>
      <point x="438" y="364" type="line"/>
      <point x="742" y="700" type="line"/>
      <point x="606" y="700" type="line"/>
      <point x="381" y="456" type="line"/>
      <point x="257" y="700" type="line"/>
    </contour>
  </outline>
</glyph>
<glyph name="we-cy" format="2">
  <advance width="925"/>
  <unicode hex="051D"/>
  <anchor x="476" y="0" name="bottom"/>
  <anchor x="476" y="532" name="top"/>
  <outline>
    <contour>
      <point x="160" y="0" type="line"/>
      <point x="266" y="0" type="line"/>
      <point x="511" y="427" type="line"/>
      <point x="478" y="427" type="line"/>
      <point x="563" y="0" type="line"/>
      <point x="671" y="0" type="line"/>
      <point x="969" y="532" type="line"/>
      <point x="865" y="532" type="line"/>
      <point x="597" y="57" type="line"/>
      <point x="648" y="57" type="line"/>
      <point x="560" y="532" type="line"/>
      <point x="466" y="532" type="line"/>
      <point x="195" y="57" type="line"/>
      <point x="246" y="57" type="line"/>
      <point x="160" y="532" type="line"/>
      <point x="60" y="532" type="line"/>
    </contour>
  </outline>
</glyph>
<glyph name="shhadescender-cy" format="2">
  <advance width="702"/>
  <unicode hex="0527"/>
  <outline>
    <contour>
      <point x="504" y="-111" type="line"/>
      <point x="607" y="-111" type="line"/>
      <point x="648" y="96" type="line"/>
      <point x="459" y="96" type="line"/>
      <point x="440" y="0" type="line"/>
      <point x="579" y="0" type="line"/>
      <point x="532" y="28" type="line"/>
    </contour>
    <contour>
      <point x="420" y="538" type="curve" smooth="yes"/>
      <point x="327" y="538"/>
      <point x="248" y="504"/>
      <point x="197" y="429" type="curve"/>
      <point x="221" y="380" type="line"/>
      <point x="293" y="742" type="line"/>
      <point x="183" y="742" type="line"/>
      <point x="35" y="0" type="line"/>
      <point x="145" y="0" type="line"/>
      <point x="201" y="279" type="line" smooth="yes"/>
      <point x="223" y="388"/>
      <point x="290" y="440"/>
      <point x="387" y="440" type="curve" smooth="yes"/>
      <point x="481" y="440"/>
      <point x="516" y="387"/>
      <point x="498" y="296" type="curve" smooth="yes"/>
      <point x="439" y="0" type="line"/>
      <point x="549" y="0" type="line"/>
      <point x="608" y="295" type="line" smooth="yes"/>
      <point x="639" y="451"/>
      <point x="559" y="538"/>
    </contour>
  </outline>
</glyph>
<glyph name="EnLeftHook-cy" format="2">
  <advance width="815"/>
  <unicode hex="0528"/>
  <outline>
    <contour>
      <point x="-162" y="-166" type="line"/>
      <point x="-56" y="-237"/>
      <point x="123" y="-202"/>
      <point x="157" y="-35" type="curve" smooth="yes"/>
      <point x="224" y="299" type="line"/>
      <point x="605" y="299" type="line"/>
      <point x="545" y="0" type="line"/>
      <point x="658" y="0" type="line"/>
      <point x="798" y="700" type="line"/>
      <point x="685" y="700" type="line"/>
      <point x="625" y="399" type="line"/>
      <point x="244" y="399" type="line"/>
      <point x="304" y="700" type="line"/>
      <point x="191" y="700" type="line"/>
      <point x="46" y="-23" type="line" smooth="yes"/>
      <point x="30" y="-104"/>
      <point x="-63" y="-129"/>
      <point x="-120" y="-87" type="curve"/>
    </contour>
  </outline>
</glyph>
<glyph name="figuredash" format="2">
  <advance width="700"/>
  <unicode hex="2012"/>
  <outline>
    <contour>
      <point x="56" y="318" type="line"/>
      <point x="664" y="318" type="line"/>
      <point x="679" y="393" type="line"/>
      <point x="70" y="393" type="line"/>
    </contour>
  </outline>
</glyph>
<glyph name="emdash" format="2">
  <advance width="1000"/>
  <unicode hex="2014"/>
  <outline>
    <contour>
      <point x="-5" y="239" type="line"/>
      <point x="995" y="239" type="line"/>
      <point x="1010" y="314" type="line"/>
      <point x="10" y="314" type="line"/>
    </contour>
  </outline>
</glyph>
<glyph name="guilsinglleft" format="2">
  <advance width="319"/>
  <unicode hex="2039"/>
  <outline>
    <contour>
      <point x="148" y="74" type="line"/>
      <point x="246" y="74" type="line"/>
      <point x="123" y="315" type="line"/>
      <point x="117" y="226" type="line"/>
      <point x="328" y="459" type="line"/>
      <point x="225" y="459" type="line"/>
      <point x="44" y="266" type="line"/>
    </contour>
  </outline>
</glyph>
<glyph name="fraction" format="2">
  <advance width="176"/>
  <unicode hex="2044"/>
  <outline>
    <contour>
      <point x="-247" y="0" type="line"/>
      <point x="-156" y="0" type="line"/>
      <point x="457" y="700" type="line"/>
      <point x="365" y="700" type="line"/>
    </contour>
  </outline>
</glyph>
<glyph name="franc" format="2">
  <advance width="668"/>
  <unicode hex="20A3"/>
  <outline>
    <contour>
      <point x="-1" y="110" type="line"/>
      <point x="436" y="110" type="line"/>
      <point x="449" y="174" type="line"/>
      <point x="12" y="174" type="line"/>
    </contour>
    <contour>
      <point x="258" y="374" type="line"/>
      <point x="238" y="275" type="line"/>
      <point x="593" y="275" type="line"/>
      <point x="613" y="374" type="line"/>
    </contour>
    <contour>
      <point x="193" y="0" type="line"/>
      <point x="313" y="601" type="line"/>
      <point x="701" y="601" type="line"/>
      <point x="721" y="700" type="line"/>
      <point x="219" y="700" type="line"/>
      <point x="79" y="0" type="line"/>
    </contour>
  </outline>
</glyph>
<glyph name="euro" format="2">
  <advance width="811"/>
  <unicode hex="20AC"/>
  <outline>
    <contour>
      <point x="27" y="249" type="line"/>
      <point x="564" y="249" type="line"/>
      <point x="577" y="313" type="line"/>
      <point x="40" y="313" type="line"/>
    </contour>
    <contour>
      <point x="55" y="387" type="line"/>
      <point x="592" y="387" type="line"/>
      <point x="605" y="451" type="line"/>
      <point x="68" y="451" type="line"/>
    </contour>
    <contour>
      <point x="481" y="-9" type="curve" smooth="yes"/>
      <point x="595" y="-9"/>
      <point x="696" y="26"/>
      <point x="762" y="100" type="curve"/>
      <point x="695" y="175" type="line"/>
      <point x="641" y="120"/>
      <point x="571" y="93"/>
      <point x="489" y="93" type="curve" smooth="yes"/>
      <point x="338" y="93"/>
      <point x="259" y="174"/>
      <point x="259" y="295" type="curve" smooth="yes"/>
      <point x="259" y="464"/>
      <point x="376" y="607"/>
      <point x="566" y="607" type="curve" smooth="yes"/>
      <point x="651" y="607"/>
      <point x="713" y="578"/>
      <point x="753" y="525" type="curve"/>
      <point x="835" y="596" type="line"/>
      <point x="787" y="669"/>
      <point x="692" y="709"/>
      <point x="574" y="709" type="curve" smooth="yes"/>
      <point x="313" y="709"/>
      <point x="144" y="523"/>
      <point x="144" y="288" type="curve" smooth="yes"/>
      <point x="144" y="112"/>
      <point x="269" y="-9"/>
    </contour>
  </outline>
</glyph>
<glyph name="peso" format="2">
  <advance width="849"/>
  <unicode hex="20B1"/>
  <outline>
    <contour>
      <point x="85" y="0" type="line"/>
      <point x="199" y="0" type="line"/>
      <point x="252" y="262" type="line"/>
      <point x="191" y="207" type="line"/>
      <point x="420" y="207" type="line" smooth="yes"/>
      <point x="624" y="207"/>
      <point x="751" y="313"/>
      <point x="751" y="492" type="curve" smooth="yes"/>
      <point x="751" y="623"/>
      <point x="655" y="700"/>
      <point x="489" y="700" type="curve" smooth="yes"/>
      <point x="225" y="700" type="line"/>
    </contour>
    <contour>
      <point x="48" y="353" type="line"/>
      <point x="837" y="353" type="line"/>
      <point x="850" y="416" type="line"/>
      <point x="61" y="416" type="line"/>
    </contour>
    <contour>
      <point x="249" y="249" type="line"/>
      <point x="331" y="659" type="line"/>
      <point x="271" y="601" type="line"/>
      <point x="478" y="601" type="line" smooth="yes"/>
      <point x="579" y="601"/>
      <point x="636" y="561"/>
      <point x="636" y="481" type="curve" smooth="yes"/>
      <point x="636" y="366"/>
      <point x="558" y="306"/>
      <point x="423" y="306" type="curve" smooth="yes"/>
      <point x="209" y="306" type="line"/>
    </contour>
    <contour>
      <point x="76" y="491" type="line"/>
      <point x="865" y="491" type="line"/>
      <point x="878" y="554" type="line"/>
      <point x="89" y="554" type="line"/>
    </contour>
  </outline>
</glyph>
<glyph name="hryvnia" format="2">
  <advance width="824"/>
  <unicode hex="20B4"/>
  <outline>
    <contour>
      <point x="123" y="44"/>
      <point x="235" y="-10"/>
      <point x="368" y="-10" type="curve" smooth="yes"/>
      <point x="462" y="-10"/>
      <point x="565" y="17"/>
      <point x="648" y="65" type="curve"/>
      <point x="627" y="160" type="line"/>
      <point x="570" y="119"/>
      <point x="457" y="88"/>
      <point x="367" y="88" type="curve" smooth="yes"/>
      <point x="293" y="88"/>
      <point x="234" y="109"/>
      <point x="234" y="162" type="curve" smooth="yes"/>
      <point x="234" y="224"/>
      <point x="292" y="249"/>
      <point x="358" y="273" type="curve"/>
      <point x="167" y="279" type="line"/>
      <point x="139" y="251"/>
      <point x="123" y="211"/>
      <point x="123" y="163" type="curve" smooth="yes"/>
    </contour>
    <contour>
      <point x="78" y="252" type="line"/>
      <point x="732" y="252" type="line"/>
      <point x="745" y="315" type="line"/>
      <point x="91" y="315" type="line"/>
    </contour>
    <contour>
      <point x="106" y="390" type="line"/>
      <point x="760" y="390" type="line"/>
      <point x="773" y="453" type="line"/>
      <point x="119" y="453" type="line"/>
    </contour>
    <contour>
      <point x="473" y="421" type="curve"/>
      <point x="673" y="415" type="line"/>
      <point x="700" y="443"/>
      <point x="723" y="488"/>
      <point x="723" y="535" type="curve" smooth="yes"/>
      <point x="723" y="655"/>
      <point x="612" y="710"/>
      <point x="480" y="710" type="curve" smooth="yes"/>
      <point x="404" y="710"/>
      <point x="322" y="692"/>
      <point x="249" y="659" type="curve"/>
      <point x="266" y="563" type="line"/>
      <point x="325" y="592"/>
      <point x="409" y="612"/>
      <point x="480" y="612" type="curve" smooth="yes"/>
      <point x="553" y="612"/>
      <point x="612" y="590"/>
      <point x="612" y="535" type="curve" smooth="yes"/>
      <point x="612" y="469"/>
      <point x="542" y="447"/>
    </contour>
  </outline>
</glyph>
<glyph name="rupeeIndian" format="2">
  <advance width="721"/>
  <unicode hex="20B9"/>
  <outline>
    <contour>
      <point x="95" y="237" type="line"/>
      <point x="277" y="237" type="line" smooth="yes"/>
      <point x="477" y="237"/>
      <point x="618" y="334"/>
      <point x="618" y="515" type="curve" smooth="yes"/>
      <point x="618" y="578"/>
      <point x="588" y="641"/>
      <point x="520" y="671" type="curve"/>
      <point x="487" y="636" type="line"/>
      <point x="745" y="636" type="line"/>
      <point x="758" y="700" type="line"/>
      <point x="120" y="700" type="line"/>
      <point x="107" y="636" type="line"/>
      <point x="349" y="636" type="line" smooth="yes"/>
      <point x="451" y="636"/>
      <point x="506" y="591"/>
      <point x="506" y="514" type="curve" smooth="yes"/>
      <point x="506" y="396"/>
      <point x="426" y="336"/>
      <point x="287" y="336" type="curve" smooth="yes"/>
      <point x="115" y="336" type="line"/>
    </contour>
    <contour>
      <point x="414" y="0" type="line"/>
      <point x="534" y="0" type="line"/>
      <point x="401" y="279" type="line"/>
      <point x="281" y="279" type="line"/>
    </contour>
    <contour>
      <point x="79" y="497" type="line"/>
      <point x="717" y="497" type="line"/>
      <point x="730" y="561" type="line"/>
      <point x="92" y="561" type="line"/>
    </contour>
  </outline>
</glyph>
<glyph name="liraTurkish" format="2">
  <advance width="721"/>
  <unicode hex="20BA"/>
  <outline>
    <contour>
      <point x="84" y="0" type="line"/>
      <point x="231" y="0" type="line" smooth="yes"/>
      <point x="499" y="0"/>
      <point x="652" y="124"/>
      <point x="698" y="354" type="curve"/>
      <point x="584" y="354" type="line"/>
      <point x="549" y="183"/>
      <point x="445" y="98"/>
      <point x="260" y="98" type="curve" smooth="yes"/>
      <point x="218" y="98" type="line"/>
      <point x="338" y="700" type="line"/>
      <point x="224" y="700" type="line"/>
    </contour>
    <contour>
      <point x="18" y="202" type="line"/>
      <point x="550" y="456" type="line"/>
      <point x="563" y="524" type="line"/>
      <point x="32" y="270" type="line"/>
    </contour>
    <contour>
      <point x="46" y="344" type="line"/>
      <point x="578" y="598" type="line"/>
      <point x="591" y="666" type="line"/>
      <point x="60" y="412" type="line"/>
    </contour>
  </outline>
</glyph>
<glyph name="manat" format="2">
  <advance width="915"/>
  <unicode hex="20BC"/>
  <outline>
    <contour>
      <point x="46" y="0" type="line"/>
      <point x="152" y="0" type="line"/>
      <point x="214" y="310" type="line" smooth="yes"/>
      <point x="256" y="522"/>
      <point x="371" y="609"/>
      <point x="526" y="609" type="curve" smooth="yes"/>
      <point x="681" y="609"/>
      <point x="757" y="515"/>
      <point x="716" y="305" type="curve" smooth="yes"/>
      <point x="656" y="0" type="line"/>
      <point x="762" y="0" type="line"/>
      <point x="823" y="305" type="line" smooth="yes"/>
      <point x="874" y="565"/>
      <point x="753" y="709"/>
      <point x="539" y="709" type="curve" smooth="yes"/>
      <point x="324" y="709"/>
      <point x="161" y="574"/>
      <point x="108" y="313" type="curve" smooth="yes"/>
    </contour>
    <contour>
      <point x="393" y="120" type="line"/>
      <point x="465" y="120" type="line"/>
      <point x="605" y="820" type="line"/>
      <point x="533" y="820" type="line"/>
    </contour>
  </outline>
</glyph>
<glyph name="numero" format="2">
  <advance width="1209"/>
  <unicode hex="2116"/>
  <outline>
    <contour>
      <point x="47" y="0" type="line"/>
      <point x="161" y="0" type="line"/>
      <point x="272" y="555" type="line"/>
      <point x="237" y="560" type="line"/>
      <point x="564" y="0" type="line"/>
      <point x="658" y="0" type="line"/>
      <point x="798" y="700" type="line"/>
      <point x="684" y="700" type="line"/>
      <point x="573" y="145" type="line"/>
      <point x="608" y="140" type="line"/>
      <point x="281" y="700" type="line"/>
      <point x="187" y="700" type="line"/>
    </contour>
    <contour>
      <point x="811" y="233" type="line"/>
      <point x="1132" y="233" type="line"/>
      <point x="1147" y="306" type="line"/>
      <point x="826" y="306" type="line"/>
    </contour>
    <contour>
      <point x="1013" y="381" type="curve" smooth="yes"/>
      <point x="1129" y="381"/>
      <point x="1215" y="457"/>
      <point x="1215" y="564" type="curve" smooth="yes"/>
      <point x="1215" y="648"/>
      <point x="1150" y="706"/>
      <point x="1054" y="706" type="curve" smooth="yes"/>
      <point x="938" y="706"/>
      <point x="851" y="630"/>
      <point x="851" y="524" type="curve" smooth="yes"/>
      <point x="851" y="440"/>
      <point x="916" y="381"/>
    </contour>
    <contour>
      <point x="1019" y="446" type="curve" smooth="yes"/>
      <point x="964" y="446"/>
      <point x="928" y="478"/>
      <point x="928" y="527" type="curve" smooth="yes"/>
      <point x="928" y="591"/>
      <point x="975" y="641"/>
      <point x="1048" y="641" type="curve" smooth="yes"/>
      <point x="1101" y="641"/>
      <point x="1138" y="610"/>
      <point x="1138" y="560" type="curve" smooth="yes"/>
      <point x="1138" y="494"/>
      <point x="1089" y="446"/>
    </contour>
  </outline>
</glyph>
<glyph name="angstrom" format="2">
  <advance width="740"/>
  <unicode hex="212B"/>
  <anchor x="317" y="0" name="bottom"/>
  <anchor x="690" y="0" name="ogonek"/>
  <anchor x="505" y="941" name="top"/>
  <anchor x="200" y="700" name="topleft"/>
  <outline>
    <contour>
      <point x="-56" y="0" type="line"/>
      <point x="67" y="0" type="line"/>
      <point x="471" y="639" type="line"/>
      <point x="425" y="639" type="line"/>
      <point x="576" y="0" type="line"/>
      <point x="690" y="0" type="line"/>
      <point x="514" y="700" type="line"/>
      <point x="401" y="700" type="line"/>
    </contour>
    <contour>
      <point x="118" y="168" type="line"/>
      <point x="568" y="168" type="line"/>
      <point x="553" y="260" type="line"/>
      <point x="167" y="260" type="line"/>
    </contour>
    <contour>
      <point x="491" y="762" type="curve" smooth="yes"/>
      <point x="556" y="762"/>
      <point x="605" y="811"/>
      <point x="605" y="873" type="curve" smooth="yes"/>
      <point x="605" y="935"/>
      <point x="556" y="986"/>
      <point x="491" y="986" type="curve" smooth="yes"/>
      <point x="427" y="986"/>
      <point x="378" y="935"/>
      <point x="378" y="873" type="curve" smooth="yes"/>
      <point x="378" y="811"/>
      <point x="427" y="762"/>
    </contour>
    <contour>
      <point x="491" y="808" type="curve" smooth="yes"/>
      <point x="454" y="808"/>
      <point x="427" y="836"/>
      <point x="427" y="873" type="curve" smooth="yes"/>
      <point x="427" y="911"/>
      <point x="455" y="939"/>
      <point x="491" y="939" type="curve" smooth="yes"/>
      <point x="528" y="939"/>
      <point x="556" y="910"/>
      <point x="556" y="873" type="curve" smooth="yes"/>
      <point x="556" y="836"/>
      <point x="529" y="808"/>
    </contour>
  </outline>
</glyph>
<glyph name="rightArrow" format="2">
  <advance width="600"/>
  <unicode hex="2192"/>
  <outline>
    <contour>
      <point x="368" y="485" type="line"/>
      <point x="270" y="485" type="line"/>
      <point x="402" y="274" type="line"/>
      <point x="270" y="62" type="line"/>
      <point x="368" y="62" type="line"/>
      <point x="509" y="274" type="line"/>
    </contour>
    <contour>
      <point x="424" y="315" type="line"/>
      <point x="63" y="315" type="line"/>
      <point x="63" y="233" type="line"/>
      <point x="424" y="233" type="line"/>
    </contour>
  </outline>
</glyph>
<glyph name="partialdiff" format="2">
  <advance width="700"/>
  <unicode hex="2202"/>
  <outline>
    <contour>
      <point x="294" y="-9" type="curve" smooth="yes"/>
      <point x="521" y="-9"/>
      <point x="652" y="201"/>
      <point x="652" y="444" type="curve" smooth="yes"/>
      <point x="652" y="635"/>
      <point x="528" y="729"/>
      <point x="349" y="729" type="curve" smooth="yes"/>
      <point x="298" y="729"/>
      <point x="247" y="723"/>
      <point x="203" y="710" type="curve"/>
      <point x="203" y="612" type="line"/>
      <point x="243" y="625"/>
      <point x="292" y="632"/>
      <point x="337" y="632" type="curve" smooth="yes"/>
      <point x="476" y="632"/>
      <point x="541" y="563"/>
      <point x="541" y="445" type="curve" smooth="yes"/>
      <point x="541" y="385"/>
      <point x="528" y="307"/>
      <point x="502" y="255" type="curve"/>
      <point x="554" y="287" type="line"/>
      <point x="539" y="383"/>
      <point x="453" y="441"/>
      <point x="341" y="441" type="curve" smooth="yes"/>
      <point x="174" y="441"/>
      <point x="56" y="340"/>
      <point x="56" y="193" type="curve" smooth="yes"/>
      <point x="56" y="72"/>
      <point x="156" y="-9"/>
    </contour>
    <contour>
      <point x="302" y="84" type="curve" smooth="yes"/>
      <point x="216" y="84"/>
      <point x="165" y="129"/>
      <point x="165" y="201" type="curve" smooth="yes"/>
      <point x="165" y="290"/>
      <point x="237" y="349"/>
      <point x="345" y="349" type="curve" smooth="yes"/>
      <point x="430" y="349"/>
      <point x="482" y="304"/>
      <point x="482" y="232" type="curve" smooth="yes"/>
      <point x="482" y="145"/>
      <point x="398" y="84"/>
    </contour>
  </outline>
</glyph>
<glyph name="emptyset" format="2">
  <advance width="586"/>
  <unicode hex="2205"/>
  <outline>
    <contour>
      <point x="80" y="88" type="line"/>
      <point x="565" y="543" type="line"/>
      <point x="533" y="579" type="line"/>
      <point x="48" y="124" type="line"/>
    </contour>
    <contour>
      <point x="307" y="114" type="curve" smooth="yes"/>
      <point x="430" y="114"/>
      <point x="529" y="214"/>
      <point x="529" y="336" type="curve" smooth="yes"/>
      <point x="529" y="458"/>
      <point x="430" y="556"/>
      <point x="307" y="556" type="curve" smooth="yes"/>
      <point x="185" y="556"/>
      <point x="86" y="458"/>
      <point x="86" y="336" type="curve" smooth="yes"/>
      <point x="86" y="214"/>
      <point x="185" y="114"/>
    </contour>
    <contour>
      <point x="307" y="189" type="curve" smooth="yes"/>
      <point x="226" y="189"/>
      <point x="162" y="255"/>
      <point x="162" y="336" type="curve" smooth="yes"/>
      <point x="162" y="416"/>
      <point x="226" y="481"/>
      <point x="307" y="481" type="curve" smooth="yes"/>
      <point x="389" y="481"/>
      <point x="454" y="416"/>
      <point x="454" y="336" type="curve" smooth="yes"/>
      <point x="454" y="255"/>
      <point x="389" y="189"/>
    </contour>
  </outline>
</glyph>
<glyph name="minus" format="2">
  <advance width="587"/>
  <unicode hex="2212"/>
  <outline>
    <contour>
      <point x="74" y="305" type="line"/>
      <point x="529" y="305" type="line"/>
      <point x="547" y="395" type="line"/>
      <point x="93" y="395" type="line"/>
    </contour>
  </outline>
</glyph>
<glyph name="infinity" format="2">
  <advance width="923"/>
  <unicode hex="221E"/>
  <outline>
    <contour>
      <point x="676" y="149" type="curve" smooth="yes"/>
      <point x="805" y="149"/>
      <point x="903" y="243"/>
      <point x="903" y="374" type="curve" smooth="yes"/>
      <point x="903" y="481"/>
      <point x="828" y="551"/>
      <point x="718" y="551" type="curve" smooth="yes"/>
      <point x="459" y="551"/>
      <point x="453" y="234"/>
      <point x="253" y="234" type="curve" smooth="yes"/>
      <point x="186" y="234"/>
      <point x="144" y="274"/>
      <point x="144" y="335" type="curve" smooth="yes"/>
      <point x="144" y="413"/>
      <point x="204" y="466"/>
      <point x="282" y="466" type="curve" smooth="yes"/>
      <point x="486" y="466"/>
      <point x="408" y="149"/>
    </contour>
    <contour>
      <point x="239" y="149" type="curve" smooth="yes"/>
      <point x="498" y="149"/>
      <point x="504" y="466"/>
      <point x="704" y="466" type="curve" smooth="yes"/>
      <point x="772" y="466"/>
      <point x="814" y="427"/>
      <point x="814" y="366" type="curve" smooth="yes"/>
      <point x="814" y="288"/>
      <point x="753" y="234"/>
      <point x="675" y="234" type="curve" smooth="yes"/>
      <point x="472" y="234"/>
      <point x="549" y="551"/>
      <point x="281" y="551" type="curve" smooth="yes"/>
      <point x="150" y="551"/>
      <point x="54" y="455"/>
      <point x="54" y="325" type="curve" smooth="yes"/>
      <point x="54" y="220"/>
      <point x="129" y="149"/>
    </contour>
  </outline>
</glyph>
<glyph name="approxequal" format="2">
  <advance width="586"/>
  <unicode hex="2248"/>
  <outline>
    <contour>
      <point x="433" y="379" type="curve" smooth="yes"/>
      <point x="503" y="379"/>
      <point x="569" y="434"/>
      <point x="586" y="551" type="curve"/>
      <point x="515" y="551" type="line"/>
      <point x="504" y="498"/>
      <point x="473" y="463"/>
      <point x="429" y="463" type="curve" smooth="yes"/>
      <point x="363" y="463"/>
      <point x="343" y="558"/>
      <point x="235" y="558" type="curve" smooth="yes"/>
      <point x="165" y="558"/>
      <point x="97" y="504"/>
      <point x="81" y="387" type="curve"/>
      <point x="152" y="387" type="line"/>
      <point x="163" y="440"/>
      <point x="194" y="474"/>
      <point x="238" y="474" type="curve" smooth="yes"/>
      <point x="304" y="474"/>
      <point x="325" y="379"/>
    </contour>
    <contour>
      <point x="385" y="141" type="curve" smooth="yes"/>
      <point x="455" y="141"/>
      <point x="521" y="196"/>
      <point x="538" y="313" type="curve"/>
      <point x="467" y="313" type="line"/>
      <point x="456" y="260"/>
      <point x="425" y="225"/>
      <point x="381" y="225" type="curve" smooth="yes"/>
      <point x="315" y="225"/>
      <point x="295" y="320"/>
      <point x="187" y="320" type="curve" smooth="yes"/>
      <point x="117" y="320"/>
      <point x="49" y="266"/>
      <point x="33" y="149" type="curve"/>
      <point x="104" y="149" type="line"/>
      <point x="115" y="202"/>
      <point x="146" y="236"/>
      <point x="190" y="236" type="curve" smooth="yes"/>
      <point x="256" y="236"/>
      <point x="277" y="141"/>
    </contour>
  </outline>
</glyph>
<glyph name="blackSquare" format="2">
  <advance width="600"/>
  <unicode hex="25A0"/>
  <outline>
    <contour>
      <point x="106" y="71" type="line"/>
      <point x="494" y="71" type="line"/>
      <point x="494" y="459" type="line"/>
      <point x="106" y="459" type="line"/>
    </contour>
  </outline>
</glyph>
<glyph name="downWhiteTriangle" format="2">
  <advance width="600"/>
  <unicode hex="25BD"/>
  <outline>
    <contour>
      <point x="87" y="478" type="line"/>
      <point x="300" y="52" type="line"/>
      <point x="513" y="478" type="line"/>
    </contour>
    <contour>
      <point x="167" y="425" type="line"/>
      <point x="433" y="425" type="line"/>
      <point x="300" y="170" type="line"/>
    </contour>
  </outline>
</glyph>
<glyph name="leftWhiteTriangle" format="2">
  <advance width="600"/>
  <unicode hex="25C1"/>
  <outline>
    <contour>
      <point x="484" y="52" type="line"/>
      <point x="484" y="478" type="line"/>
      <point x="58" y="265" type="line"/>
    </contour>
    <contour>
      <point x="434" y="137" type="line"/>
      <point x="169" y="265" type="line"/>
      <point x="434" y="393" type="line"/>
    </contour>
  </outline>
</glyph>
<glyph name="rightanglebracket-math" format="2">
  <advance width="330"/>
  <unicode hex="27E9"/>
  <outline>
    <contour>
      <point x="230" y="742" type="line"/>
      <point x="130" y="742" type="line"/>
      <point x="194" y="274" type="line"/>
      <point x="-57" y="-194" type="line"/>
      <point x="43" y="-194" type="line"/>
      <point x="301" y="274" type="line"/>
    </contour>
  </outline>
</glyph>
<glyph name="Saltillo" format="2">
  <advance width="267"/>
  <unicode hex="A78B"/>
  <outline>
    <contour>
      <point x="83" y="297" type="line"/>
      <point x="183" y="297" type="line"/>
      <point x="276" y="700" type="line"/>
      <point x="164" y="700" type="line"/>
    </contour>
  </outline>
</glyph>
<glyph name="saltillo" format="2">
  <advance width="264"/>
  <unicode hex="A78C"/>
  <outline>
    <contour>
      <point x="83" y="297" type="line"/>
      <point x="179" y="297" type="line"/>
      <point x="265" y="666" type="line"/>
      <point x="156" y="666" type="line"/>
    </contour>
  </outline>
</glyph>
<glyph name="Adieresis.alt" format="2">
  <advance width="740"/>
  <outline>
    <contour>
      <point x="-56" y="0" type="line"/>
      <point x="67" y="0" type="line"/>
      <point x="471" y="639" type="line"/>
      <point x="425" y="639" type="line"/>
      <point x="576" y="0" type="line"/>
      <point x="690" y="0" type="line"/>
      <point x="514" y="700" type="line"/>
      <point x="401" y="700" type="line"/>
    </contour>
    <contour>
      <point x="118" y="168" type="line"/>
      <point x="568" y="168" type="line"/>
      <point x="553" y="260" type="line"/>
      <point x="167" y="260" type="line"/>
    </contour>
    <contour>
      <point x="241" y="590" type="curve" smooth="yes"/>
      <point x="274" y="590"/>
      <point x="300" y="615"/>
      <point x="300" y="652" type="curve" smooth="yes"/>
      <point x="300" y="680"/>
      <point x="279" y="702"/>
      <point x="248" y="702" type="curve" smooth="yes"/>
      <point x="214" y="702"/>
      <point x="188" y="676"/>
      <point x="188" y="639" type="curve" smooth="yes"/>
      <point x="188" y="611"/>
      <point x="210" y="590"/>
    </contour>
    <contour>
      <point x="644" y="590" type="curve" smooth="yes"/>
      <point x="677" y="590"/>
      <point x="703" y="615"/>
      <point x="703" y="652" type="curve" smooth="yes"/>
      <point x="703" y="680"/>
      <point x="682" y="702"/>
      <point x="651" y="702" type="curve" smooth="yes"/>
      <point x="617" y="702"/>
      <point x="591" y="676"/>
      <point x="591" y="639" type="curve" smooth="yes"/>
      <point x="591" y="611"/>
      <point x="613" y="590"/>
    </contour>
  </outline>
</glyph>
<glyph name="E.ss01" format="2">
  <advance width="649"/>
  <anchor x="301" y="0" name="bottom"/>
  <anchor x="547" y="0" name="ogonek"/>
  <anchor x="441" y="700" name="top"/>
  <anchor x="125" y="700" name="topleft"/>
  <outline>
    <contour>
      <point x="310" y="-9" type="curve" smooth="yes"/>
      <point x="425" y="-9"/>
      <point x="535" y="21"/>
      <point x="603" y="67" type="curve"/>
      <point x="567" y="157" type="line"/>
      <point x="512" y="116"/>
      <point x="422" y="89"/>
      <point x="323" y="89" type="curve" smooth="yes"/>
      <point x="203" y="89"/>
      <point x="147" y="126"/>
      <point x="147" y="191" type="curve" smooth="yes"/>
      <point x="147" y="263"/>
      <point x="215" y="305"/>
      <point x="321" y="305" type="curve" smooth="yes"/>
      <point x="518" y="305" type="line"/>
      <point x="538" y="403" type="line"/>
      <point x="355" y="403" type="line" smooth="yes"/>
      <point x="281" y="403"/>
      <point x="241" y="433"/>
      <point x="241" y="486" type="curve" smooth="yes"/>
      <point x="241" y="561"/>
      <point x="313" y="611"/>
      <point x="435" y="611" type="curve" smooth="yes"/>
      <point x="507" y="611"/>
      <point x="576" y="599"/>
      <point x="638" y="564" type="curve"/>
      <point x="677" y="655" type="line"/>
      <point x="620" y="690"/>
      <point x="537" y="709"/>
      <point x="443" y="709" type="curve" smooth="yes"/>
      <point x="252" y="709"/>
      <point x="126" y="621"/>
      <point x="126" y="485" type="curve" smooth="yes"/>
      <point x="126" y="402"/>
      <point x="184" y="344"/>
      <point x="269" y="344" type="curve"/>
      <point x="270" y="378" type="line"/>
      <point x="133" y="378"/>
      <point x="32" y="294"/>
      <point x="32" y="178" type="curve" smooth="yes"/>
      <point x="32" y="61"/>
      <point x="141" y="-9"/>
    </contour>
  </outline>
</glyph>
<glyph name="Ef-cy.loclBGR" format="2">
  <advance width="940"/>
  <outline>
    <contour>
      <point x="442" y="-9" type="curve" smooth="yes"/>
      <point x="729" y="-9"/>
      <point x="912" y="173"/>
      <point x="912" y="404" type="curve" smooth="yes"/>
      <point x="912" y="585"/>
      <point x="772" y="709"/>
      <point x="532" y="709" type="curve" smooth="yes"/>
      <point x="245" y="709"/>
      <point x="62" y="527"/>
      <point x="62" y="296" type="curve" smooth="yes"/>
      <point x="62" y="115"/>
      <point x="202" y="-9"/>
    </contour>
    <contour>
      <point x="450" y="93" type="curve" smooth="yes"/>
      <point x="272" y="93"/>
      <point x="177" y="177"/>
      <point x="177" y="301" type="curve" smooth="yes"/>
      <point x="177" y="467"/>
      <point x="311" y="607"/>
      <point x="524" y="607" type="curve" smooth="yes"/>
      <point x="702" y="607"/>
      <point x="798" y="523"/>
      <point x="798" y="399" type="curve" smooth="yes"/>
      <point x="798" y="233"/>
      <point x="664" y="93"/>
    </contour>
    <contour>
      <point x="348" y="-57" type="line"/>
      <point x="455" y="-57" type="line"/>
      <point x="616" y="752" type="line"/>
      <point x="509" y="752" type="line"/>
    </contour>
  </outline>
</glyph>
<glyph name="Ef-cy.ss01" format="2">
  <advance width="940"/>
  <outline>
    <contour>
      <point x="442" y="-9" type="curve" smooth="yes"/>
      <point x="729" y="-9"/>
      <point x="912" y="173"/>
      <point x="912" y="404" type="curve" smooth="yes"/>
      <point x="912" y="585"/>
      <point x="772" y="709"/>
      <point x="532" y="709" type="curve" smooth="yes"/>
      <point x="245" y="709"/>
      <point x="62" y="527"/>
      <point x="62" y="296" type="curve" smooth="yes"/>
      <point x="62" y="115"/>
      <point x="202" y="-9"/>
    </contour>
    <contour>
      <point x="382" y="98" type="line"/>
      <point x="248" y="117"/>
      <point x="177" y="194"/>
      <point x="177" y="301" type="curve" smooth="yes"/>
      <point x="177" y="457"/>
      <point x="295" y="589"/>
      <point x="485" y="605" type="curve"/>
    </contour>
    <contour>
      <point x="488" y="95" type="curve"/>
      <point x="591" y="603" type="line"/>
      <point x="726" y="584"/>
      <point x="798" y="506"/>
      <point x="798" y="399" type="curve" smooth="yes"/>
      <point x="798" y="243"/>
      <point x="680" y="110"/>
    </contour>
  </outline>
</glyph>
<glyph name="El-cy.loclBGR" format="2">
  <advance width="748"/>
  <outline>
    <contour>
      <point x="516" y="700" type="line"/>
      <point x="404" y="700" type="line"/>
      <point x="-42" y="0" type="line"/>
      <point x="76" y="0" type="line"/>
      <point x="486" y="643" type="line"/>
      <point x="414" y="643" type="line"/>
      <point x="564" y="0" type="line"/>
      <point x="684" y="0" type="line"/>
    </contour>
  </outline>
</glyph>
<glyph name="El-cy.ss01" format="2">
  <advance width="790"/>
  <anchor x="541" y="0" name="#exit"/>
  <anchor x="541" y="0" name="bottomleft"/>
  <outline>
    <contour>
      <point x="-2" y="99" type="line"/>
      <point x="-21" y="0" type="line"/>
      <point x="114" y="0" type="line"/>
      <point x="134" y="99" type="line"/>
    </contour>
    <contour>
      <point x="60" y="0" type="line"/>
      <point x="172" y="0" type="line"/>
      <point x="252" y="400" type="line" smooth="yes"/>
      <point x="281" y="546"/>
      <point x="353" y="607"/>
      <point x="471" y="607" type="curve" smooth="yes"/>
      <point x="592" y="607"/>
      <point x="647" y="535"/>
      <point x="619" y="394" type="curve" smooth="yes"/>
      <point x="541" y="0" type="line"/>
      <point x="655" y="0" type="line"/>
      <point x="732" y="387" type="line" smooth="yes"/>
      <point x="772" y="589"/>
      <point x="670" y="709"/>
      <point x="482" y="709" type="curve" smooth="yes"/>
      <point x="298" y="709"/>
      <point x="181" y="610"/>
      <point x="140" y="402" type="curve" smooth="yes"/>
    </contour>
  </outline>
</glyph>
<glyph name="Eng.ss01" format="2">
  <advance width="798"/>
  <outline>
    <contour>
      <point x="503" y="709" type="curve" smooth="yes"/>
      <point x="392" y="709"/>
      <point x="306" y="663"/>
      <point x="250" y="581" type="curve"/>
      <point x="263" y="530" type="line"/>
      <point x="297" y="700" type="line"/>
      <point x="187" y="700" type="line"/>
      <point x="47" y="0" type="line"/>
      <point x="161" y="0" type="line"/>
      <point x="242" y="405" type="line" smooth="yes"/>
      <point x="270" y="545"/>
      <point x="360" y="607"/>
      <point x="471" y="607" type="curve" smooth="yes"/>
      <point x="591" y="607"/>
      <point x="645" y="538"/>
      <point x="617" y="400" type="curve" smooth="yes"/>
      <point x="544" y="34" type="line" smooth="yes"/>
      <point x="524" y="-64"/>
      <point x="479" y="-101"/>
      <point x="412" y="-101" type="curve" smooth="yes"/>
      <point x="353" y="-101"/>
      <point x="310" y="-76"/>
      <point x="286" y="-40" type="curve"/>
      <point x="216" y="-122" type="line"/>
      <point x="253" y="-174"/>
      <point x="324" y="-200"/>
      <point x="404" y="-200" type="curve" smooth="yes"/>
      <point x="535" y="-200"/>
      <point x="622" y="-144"/>
      <point x="660" y="45" type="curve" smooth="yes"/>
      <point x="730" y="396" type="line" smooth="yes"/>
      <point x="770" y="595"/>
      <point x="671" y="709"/>
    </contour>
  </outline>
</glyph>
<glyph name="F.ss01" format="2">
  <advance width="608"/>
  <outline>
    <contour>
      <point x="41" y="0" type="line"/>
      <point x="155" y="0" type="line"/>
      <point x="245" y="450" type="line" smooth="yes"/>
      <point x="266" y="554"/>
      <point x="338" y="607"/>
      <point x="464" y="607" type="curve" smooth="yes"/>
      <point x="524" y="607"/>
      <point x="579" y="594"/>
      <point x="620" y="563" type="curve"/>
      <point x="671" y="655" type="line"/>
      <point x="622" y="691"/>
      <point x="545" y="709"/>
      <point x="469" y="709" type="curve" smooth="yes"/>
      <point x="273" y="709"/>
      <point x="164" y="618"/>
      <point x="131" y="447" type="curve" smooth="yes"/>
    </contour>
    <contour>
      <point x="167" y="274" type="line"/>
      <point x="522" y="274" type="line"/>
      <point x="542" y="374" type="line"/>
      <point x="187" y="374" type="line"/>
    </contour>
  </outline>
</glyph>
<glyph name="G.ss01" format="2">
  <advance width="772"/>
  <anchor x="353" y="1" name="bottom"/>
  <anchor x="498" y="701" name="top"/>
  <outline>
    <contour>
      <point x="375" y="-9" type="curve" smooth="yes"/>
      <point x="476" y="-9"/>
      <point x="560" y="25"/>
      <point x="622" y="102" type="curve"/>
      <point x="584" y="180" type="line"/>
      <point x="533" y="121"/>
      <point x="460" y="93"/>
      <point x="388" y="93" type="curve" smooth="yes"/>
      <point x="248" y="93"/>
      <point x="173" y="175"/>
      <point x="173" y="296" type="curve" smooth="yes"/>
      <point x="173" y="468"/>
      <point x="295" y="607"/>
      <point x="485" y="607" type="curve" smooth="yes"/>
      <point x="573" y="607"/>
      <point x="637" y="583"/>
      <point x="684" y="527" type="curve"/>
      <point x="766" y="597" type="line"/>
      <point x="710" y="669"/>
      <point x="616" y="709"/>
      <point x="491" y="709" type="curve" smooth="yes"/>
      <point x="227" y="709"/>
      <point x="58" y="523"/>
      <point x="58" y="287" type="curve" smooth="yes"/>
      <point x="58" y="106"/>
      <point x="187" y="-9"/>
    </contour>
    <contour>
      <point x="536" y="0" type="line"/>
      <point x="636" y="0" type="line"/>
      <point x="709" y="356" type="line"/>
      <point x="599" y="356" type="line"/>
      <point x="547" y="95" type="line"/>
      <point x="553" y="84" type="line"/>
    </contour>
  </outline>
</glyph>
<glyph name="Gstroke.ss01" format="2">
  <advance width="812"/>
  <outline>
    <contour>
      <point x="405.8" y="193" type="line"/>
      <point x="793.4" y="193" type="line"/>
      <point x="810.5" y="283" type="line"/>
      <point x="422.9" y="283" type="line"/>
    </contour>
    <component base="G.ss01"/>
  </outline>
</glyph>
<glyph name="IJ.ss01" format="2">
  <advance width="721"/>
  <anchor x="253" y="700" name="top"/>
  <outline>
    <contour>
      <point x="276" y="-109" type="curve" smooth="yes"/>
      <point x="461" y="-109"/>
      <point x="572" y="-10"/>
      <point x="613" y="197" type="curve" smooth="yes"/>
      <point x="712" y="700" type="line"/>
      <point x="598" y="700" type="line"/>
      <point x="500" y="203" type="line" smooth="yes"/>
      <point x="471" y="54"/>
      <point x="404" y="-7"/>
      <point x="284" y="-7" type="curve" smooth="yes"/>
      <point x="207" y="-7"/>
      <point x="136" y="15"/>
      <point x="79" y="56" type="curve"/>
      <point x="22" y="-36" type="line"/>
      <point x="81" y="-80"/>
      <point x="166" y="-109"/>
    </contour>
    <contour>
      <point x="83" y="212" type="line"/>
      <point x="197" y="212" type="line"/>
      <point x="294" y="700" type="line"/>
      <point x="180" y="700" type="line"/>
    </contour>
  </outline>
</glyph>
<glyph name="Iacute_J.loclNLD" format="2">
  <advance width="721"/>
  <outline>
    <contour>
      <point x="292" y="-9" type="curve" smooth="yes"/>
      <point x="479" y="-9"/>
      <point x="591" y="89"/>
      <point x="633" y="297" type="curve" smooth="yes"/>
      <point x="713" y="700" type="line"/>
      <point x="599" y="700" type="line"/>
      <point x="520" y="303" type="line" smooth="yes"/>
      <point x="490" y="155"/>
      <point x="421" y="92"/>
      <point x="297" y="92" type="curve" smooth="yes"/>
      <point x="223" y="92"/>
      <point x="155" y="115"/>
      <point x="99" y="156" type="curve"/>
      <point x="42" y="65" type="line"/>
      <point x="102" y="21"/>
      <point x="184" y="-9"/>
    </contour>
    <contour>
      <point x="102" y="312" type="line"/>
      <point x="217" y="312" type="line"/>
      <point x="295" y="700" type="line"/>
      <point x="180" y="700" type="line"/>
    </contour>
    <contour>
      <point x="194" y="757" type="line"/>
      <point x="277" y="757" type="line"/>
      <point x="474" y="891" type="line"/>
      <point x="357" y="891" type="line"/>
    </contour>
    <contour>
      <point x="614" y="757" type="line"/>
      <point x="696" y="757" type="line"/>
      <point x="893" y="891" type="line"/>
      <point x="777" y="891" type="line"/>
    </contour>
  </outline>
</glyph>
<glyph name="Lje-cy.ss01" format="2">
  <advance width="1185"/>
  <outline>
    <contour>
      <point x="29" y="-9" type="curve" smooth="yes"/>
      <point x="201" y="-9"/>
      <point x="259" y="226"/>
      <point x="301" y="408" type="curve" smooth="yes"/>
      <point x="353" y="631" type="line"/>
      <point x="321" y="601" type="line"/>
      <point x="648" y="601" type="line"/>
      <point x="754" y="700" type="line"/>
      <point x="269" y="700" type="line"/>
      <point x="201" y="412" type="line" smooth="yes"/>
      <point x="177" y="311"/>
      <point x="128" y="98"/>
      <point x="8" y="98" type="curve" smooth="yes"/>
      <point x="1" y="98"/>
      <point x="-8" y="98"/>
      <point x="-18" y="101" type="curve"/>
      <point x="-38" y="1" type="line"/>
      <point x="-14" y="-5"/>
      <point x="6" y="-9"/>
    </contour>
    <contour>
      <point x="798" y="-9" type="curve" smooth="yes"/>
      <point x="1002" y="-9"/>
      <point x="1144" y="106"/>
      <point x="1144" y="276" type="curve" smooth="yes"/>
      <point x="1144" y="407"/>
      <point x="1062" y="480"/>
      <point x="912" y="480" type="curve" smooth="yes"/>
      <point x="824" y="480"/>
      <point x="743" y="455"/>
      <point x="670" y="405" type="curve"/>
      <point x="663" y="316" type="line"/>
      <point x="732" y="364"/>
      <point x="804" y="388"/>
      <point x="877" y="388" type="curve" smooth="yes"/>
      <point x="975" y="388"/>
      <point x="1027" y="345"/>
      <point x="1027" y="262" type="curve" smooth="yes"/>
      <point x="1027" y="158"/>
      <point x="940" y="85"/>
      <point x="811" y="85" type="curve" smooth="yes"/>
      <point x="692" y="85"/>
      <point x="643" y="147"/>
      <point x="663" y="247" type="curve" smooth="yes"/>
      <point x="753" y="700" type="line"/>
      <point x="641" y="700" type="line"/>
      <point x="552" y="255" type="line" smooth="yes"/>
      <point x="519" y="91"/>
      <point x="607" y="-9"/>
    </contour>
  </outline>
</glyph>
<glyph name="N.ss01" format="2">
  <advance width="798"/>
  <anchor x="348" y="0" name="bottom"/>
  <anchor x="489" y="700" name="top"/>
  <outline>
    <contour>
      <point x="503" y="709" type="curve" smooth="yes"/>
      <point x="392" y="709"/>
      <point x="306" y="663"/>
      <point x="250" y="581" type="curve"/>
      <point x="263" y="530" type="line"/>
      <point x="297" y="700" type="line"/>
      <point x="187" y="700" type="line"/>
      <point x="47" y="0" type="line"/>
      <point x="161" y="0" type="line"/>
      <point x="242" y="405" type="line" smooth="yes"/>
      <point x="270" y="545"/>
      <point x="360" y="607"/>
      <point x="471" y="607" type="curve" smooth="yes"/>
      <point x="591" y="607"/>
      <point x="645" y="538"/>
      <point x="617" y="400" type="curve" smooth="yes"/>
      <point x="537" y="0" type="line"/>
      <point x="651" y="0" type="line"/>
      <point x="730" y="396" type="line" smooth="yes"/>
      <point x="770" y="595"/>
      <point x="671" y="709"/>
    </contour>
  </outline>
</glyph>
<glyph name="Nje-cy.ss01" format="2">
  <advance width="1164"/>
  <outline>
    <contour>
      <point x="803" y="-9" type="curve" smooth="yes"/>
      <point x="999" y="-9"/>
      <point x="1121" y="98"/>
      <point x="1121" y="245" type="curve" smooth="yes"/>
      <point x="1121" y="365"/>
      <point x="1040" y="429"/>
      <point x="907" y="429" type="curve" smooth="yes"/>
      <point x="711" y="429" type="line"/>
      <point x="766" y="700" type="line"/>
      <point x="654" y="700" type="line"/>
      <point x="598" y="426" type="line"/>
      <point x="248" y="426" type="line"/>
      <point x="304" y="700" type="line"/>
      <point x="191" y="700" type="line"/>
      <point x="51" y="0" type="line"/>
      <point x="164" y="0" type="line"/>
      <point x="229" y="329" type="line"/>
      <point x="579" y="329" type="line"/>
      <point x="559" y="224" type="line" smooth="yes"/>
      <point x="532" y="80"/>
      <point x="624" y="-9"/>
    </contour>
    <contour>
      <point x="813" y="79" type="curve" smooth="yes"/>
      <point x="710" y="79"/>
      <point x="652" y="132"/>
      <point x="669" y="213" type="curve" smooth="yes"/>
      <point x="695" y="340" type="line"/>
      <point x="867" y="340" type="line" smooth="yes"/>
      <point x="957" y="340"/>
      <point x="1006" y="308"/>
      <point x="1006" y="236" type="curve" smooth="yes"/>
      <point x="1006" y="147"/>
      <point x="930" y="79"/>
    </contour>
  </outline>
</glyph>
<glyph name="Q.ss01.BRACKET.170" format="2">
  <advance width="841"/>
  <anchor x="508" y="700" name="top"/>
  <outline>
    <contour>
      <point x="390" y="-9" type="curve" smooth="yes"/>
      <point x="648" y="-9"/>
      <point x="817" y="177"/>
      <point x="817" y="412" type="curve" smooth="yes"/>
      <point x="817" y="588"/>
      <point x="695" y="709"/>
      <point x="485" y="709" type="curve" smooth="yes"/>
      <point x="227" y="709"/>
      <point x="58" y="523"/>
      <point x="58" y="288" type="curve" smooth="yes"/>
      <point x="58" y="112"/>
      <point x="180" y="-9"/>
    </contour>
    <contour>
      <point x="283" y="-135" type="line"/>
      <point x="397" y="-135" type="line"/>
      <point x="427" y="13" type="line"/>
      <point x="312" y="10" type="line"/>
    </contour>
    <contour>
      <point x="400" y="93" type="curve" smooth="yes"/>
      <point x="252" y="93"/>
      <point x="173" y="175"/>
      <point x="173" y="295" type="curve" smooth="yes"/>
      <point x="173" y="464"/>
      <point x="290" y="607"/>
      <point x="475" y="607" type="curve" smooth="yes"/>
      <point x="623" y="607"/>
      <point x="702" y="525"/>
      <point x="702" y="405" type="curve" smooth="yes"/>
      <point x="702" y="236"/>
      <point x="585" y="93"/>
    </contour>
  </outline>
</glyph>
<glyph name="Schwa.ss01" format="2">
  <advance width="817"/>
  <anchor x="355" y="0" name="bottom"/>
  <anchor x="495" y="700" name="top"/>
  <outline>
    <contour>
      <point x="378" y="-9" type="curve" smooth="yes"/>
      <point x="629" y="-9"/>
      <point x="793" y="177"/>
      <point x="793" y="412" type="curve" smooth="yes"/>
      <point x="793" y="588"/>
      <point x="675" y="709"/>
      <point x="464" y="709" type="curve" smooth="yes"/>
      <point x="353" y="709"/>
      <point x="247" y="675"/>
      <point x="176" y="612" type="curve"/>
      <point x="232" y="528" type="line"/>
      <point x="289" y="579"/>
      <point x="371" y="607"/>
      <point x="455" y="607" type="curve" smooth="yes"/>
      <point x="604" y="607"/>
      <point x="678" y="525"/>
      <point x="678" y="405" type="curve" smooth="yes"/>
      <point x="678" y="236"/>
      <point x="565" y="90"/>
      <point x="389" y="90" type="curve" smooth="yes"/>
      <point x="262" y="90"/>
      <point x="186" y="151"/>
      <point x="171" y="249" type="curve"/>
      <point x="131" y="155" type="line"/>
      <point x="704" y="371" type="line"/>
      <point x="690" y="472" type="line"/>
      <point x="60" y="234" type="line"/>
      <point x="90" y="74"/>
      <point x="211" y="-9"/>
    </contour>
  </outline>
</glyph>
<glyph name="Semisoftsign-cy.ss01" format="2">
  <advance width="755"/>
  <anchor x="261" y="585" name="center"/>
  <outline>
    <contour>
      <point x="83" y="555" type="line"/>
      <point x="505" y="555" type="line"/>
      <point x="522" y="640" type="line"/>
      <point x="100" y="640" type="line"/>
    </contour>
    <contour>
      <point x="368" y="-9" type="curve" smooth="yes"/>
      <point x="572" y="-9"/>
      <point x="714" y="106"/>
      <point x="714" y="276" type="curve" smooth="yes"/>
      <point x="714" y="407"/>
      <point x="632" y="480"/>
      <point x="482" y="480" type="curve" smooth="yes"/>
      <point x="394" y="480"/>
      <point x="313" y="455"/>
      <point x="240" y="405" type="curve"/>
      <point x="233" y="316" type="line"/>
      <point x="302" y="364"/>
      <point x="374" y="388"/>
      <point x="447" y="388" type="curve" smooth="yes"/>
      <point x="545" y="388"/>
      <point x="597" y="345"/>
      <point x="597" y="262" type="curve" smooth="yes"/>
      <point x="597" y="158"/>
      <point x="510" y="85"/>
      <point x="381" y="85" type="curve" smooth="yes"/>
      <point x="265" y="85"/>
      <point x="213" y="144"/>
      <point x="233" y="247" type="curve" smooth="yes"/>
      <point x="331" y="742" type="line"/>
      <point x="219" y="742" type="line"/>
      <point x="122" y="255" type="line" smooth="yes"/>
      <point x="89" y="91"/>
      <point x="177" y="-9"/>
    </contour>
  </outline>
</glyph>
<glyph name="Udieresis.alt.BRACKET.133" format="2">
  <advance width="790"/>
  <outline>
    <contour>
      <point x="362" y="-9" type="curve" smooth="yes"/>
      <point x="546" y="-9"/>
      <point x="661" y="93"/>
      <point x="702" y="298" type="curve" smooth="yes"/>
      <point x="782" y="700" type="line"/>
      <point x="670" y="700" type="line"/>
      <point x="591" y="306" type="line" smooth="yes"/>
      <point x="561" y="158"/>
      <point x="490" y="93"/>
      <point x="373" y="93" type="curve" smooth="yes"/>
      <point x="247" y="93"/>
      <point x="188" y="163"/>
      <point x="216" y="305" type="curve" smooth="yes"/>
      <point x="295" y="700" type="line"/>
      <point x="181" y="700" type="line"/>
      <point x="102" y="304" type="line" smooth="yes"/>
      <point x="64" y="112"/>
      <point x="166" y="-9"/>
    </contour>
    <contour>
      <point x="443" y="461" type="curve" smooth="yes"/>
      <point x="477" y="461"/>
      <point x="503" y="487"/>
      <point x="503" y="524" type="curve" smooth="yes"/>
      <point x="503" y="552"/>
      <point x="481" y="573"/>
      <point x="450" y="573" type="curve" smooth="yes"/>
      <point x="417" y="573"/>
      <point x="391" y="548"/>
      <point x="391" y="511" type="curve" smooth="yes"/>
      <point x="391" y="482"/>
      <point x="413" y="461"/>
    </contour>
    <contour>
      <point x="469" y="594" type="curve" smooth="yes"/>
      <point x="502" y="594"/>
      <point x="529" y="620"/>
      <point x="529" y="657" type="curve" smooth="yes"/>
      <point x="529" y="685"/>
      <point x="507" y="706"/>
      <point x="476" y="706" type="curve" smooth="yes"/>
      <point x="443" y="706"/>
      <point x="417" y="681"/>
      <point x="417" y="644" type="curve" smooth="yes"/>
      <point x="417" y="615"/>
      <point x="438" y="594"/>
    </contour>
  </outline>
</glyph>
<glyph name="Udieresis.alt" format="2">
  <advance width="790"/>
  <outline>
    <contour>
      <point x="362" y="-9" type="curve" smooth="yes"/>
      <point x="546" y="-9"/>
      <point x="661" y="93"/>
      <point x="702" y="298" type="curve" smooth="yes"/>
      <point x="782" y="700" type="line"/>
      <point x="670" y="700" type="line"/>
      <point x="591" y="306" type="line" smooth="yes"/>
      <point x="561" y="158"/>
      <point x="490" y="93"/>
      <point x="373" y="93" type="curve" smooth="yes"/>
      <point x="247" y="93"/>
      <point x="188" y="163"/>
      <point x="216" y="305" type="curve" smooth="yes"/>
      <point x="295" y="700" type="line"/>
      <point x="181" y="700" type="line"/>
      <point x="102" y="304" type="line" smooth="yes"/>
      <point x="64" y="112"/>
      <point x="166" y="-9"/>
    </contour>
    <contour>
      <point x="392" y="594" type="curve" smooth="yes"/>
      <point x="425" y="594"/>
      <point x="452" y="620"/>
      <point x="452" y="657" type="curve" smooth="yes"/>
      <point x="452" y="685"/>
      <point x="430" y="706"/>
      <point x="399" y="706" type="curve" smooth="yes"/>
      <point x="366" y="706"/>
      <point x="340" y="681"/>
      <point x="340" y="644" type="curve" smooth="yes"/>
      <point x="340" y="615"/>
      <point x="361" y="594"/>
    </contour>
    <contour>
      <point x="546" y="594" type="curve" smooth="yes"/>
      <point x="580" y="594"/>
      <point x="606" y="620"/>
      <point x="606" y="657" type="curve" smooth="yes"/>
      <point x="606" y="685"/>
      <point x="584" y="706"/>
      <point x="553" y="706" type="curve" smooth="yes"/>
      <point x="520" y="706"/>
      <point x="494" y="681"/>
      <point x="494" y="644" type="curve" smooth="yes"/>
      <point x="494" y="615"/>
      <point x="516" y="594"/>
    </contour>
  </outline>
</glyph>
<glyph name="W.ss01" format="2">
  <advance width="1201"/>
  <anchor x="552" y="0" name="bottom"/>
  <anchor x="690" y="700" name="top"/>
  <outline>
    <contour>
      <point x="339" y="-9" type="curve" smooth="yes"/>
      <point x="443" y="-9"/>
      <point x="536" y="30"/>
      <point x="593" y="116" type="curve"/>
      <point x="553" y="116" type="line"/>
      <point x="579" y="33"/>
      <point x="657" y="-9"/>
      <point x="768" y="-9" type="curve" smooth="yes"/>
      <point x="961" y="-9"/>
      <point x="1063" y="80"/>
      <point x="1105" y="280" type="curve" smooth="yes"/>
      <point x="1194" y="700" type="line"/>
      <point x="1080" y="700" type="line"/>
      <point x="991" y="279" type="line" smooth="yes"/>
      <point x="963" y="149"/>
      <point x="897" y="93"/>
      <point x="785" y="93" type="curve" smooth="yes"/>
      <point x="681" y="93"/>
      <point x="629" y="149"/>
      <point x="655" y="270" type="curve" smooth="yes"/>
      <point x="747" y="700" type="line"/>
      <point x="634" y="700" type="line"/>
      <point x="545" y="284" type="line" smooth="yes"/>
      <point x="516" y="149"/>
      <point x="442" y="93"/>
      <point x="341" y="93" type="curve" smooth="yes"/>
      <point x="237" y="93"/>
      <point x="183" y="149"/>
      <point x="209" y="270" type="curve" smooth="yes"/>
      <point x="301" y="700" type="line"/>
      <point x="186" y="700" type="line"/>
      <point x="97" y="281" type="line" smooth="yes"/>
      <point x="57" y="94"/>
      <point x="160" y="-9"/>
    </contour>
  </outline>
</glyph>
<glyph name="Yat-cy.ss01" format="2">
  <advance width="835"/>
  <anchor x="339" y="585" name="center"/>
  <outline>
    <contour>
      <point x="77" y="555" type="line"/>
      <point x="585" y="555" type="line"/>
      <point x="602" y="640" type="line"/>
      <point x="94" y="640" type="line"/>
    </contour>
    <contour>
      <point x="448" y="-9" type="curve" smooth="yes"/>
      <point x="652" y="-9"/>
      <point x="794" y="106"/>
      <point x="794" y="276" type="curve" smooth="yes"/>
      <point x="794" y="407"/>
      <point x="712" y="480"/>
      <point x="562" y="480" type="curve" smooth="yes"/>
      <point x="474" y="480"/>
      <point x="393" y="455"/>
      <point x="320" y="405" type="curve"/>
      <point x="313" y="316" type="line"/>
      <point x="382" y="364"/>
      <point x="454" y="388"/>
      <point x="527" y="388" type="curve" smooth="yes"/>
      <point x="625" y="388"/>
      <point x="677" y="345"/>
      <point x="677" y="262" type="curve" smooth="yes"/>
      <point x="677" y="158"/>
      <point x="590" y="85"/>
      <point x="461" y="85" type="curve" smooth="yes"/>
      <point x="345" y="85"/>
      <point x="293" y="144"/>
      <point x="313" y="247" type="curve" smooth="yes"/>
      <point x="411" y="742" type="line"/>
      <point x="299" y="742" type="line"/>
      <point x="202" y="255" type="line" smooth="yes"/>
      <point x="169" y="90"/>
      <point x="257" y="-9"/>
    </contour>
  </outline>
</glyph>
<glyph name="Yeru-cy.ss01" format="2">
  <advance width="1000"/>
  <anchor x="587" y="700" name="top"/>
  <outline>
    <contour>
      <point x="730" y="0" type="line"/>
      <point x="843" y="0" type="line"/>
      <point x="983" y="700" type="line"/>
      <point x="870" y="700" type="line"/>
    </contour>
    <contour>
      <point x="332" y="-9" type="curve" smooth="yes"/>
      <point x="536" y="-9"/>
      <point x="678" y="106"/>
      <point x="678" y="276" type="curve" smooth="yes"/>
      <point x="678" y="407"/>
      <point x="596" y="480"/>
      <point x="446" y="480" type="curve" smooth="yes"/>
      <point x="358" y="480"/>
      <point x="277" y="455"/>
      <point x="204" y="405" type="curve"/>
      <point x="197" y="316" type="line"/>
      <point x="266" y="364"/>
      <point x="338" y="388"/>
      <point x="411" y="388" type="curve" smooth="yes"/>
      <point x="509" y="388"/>
      <point x="561" y="345"/>
      <point x="561" y="262" type="curve" smooth="yes"/>
      <point x="561" y="158"/>
      <point x="474" y="85"/>
      <point x="345" y="85" type="curve" smooth="yes"/>
      <point x="226" y="85"/>
      <point x="177" y="147"/>
      <point x="197" y="247" type="curve" smooth="yes"/>
      <point x="287" y="700" type="line"/>
      <point x="175" y="700" type="line"/>
      <point x="86" y="255" type="line" smooth="yes"/>
      <point x="53" y="91"/>
      <point x="141" y="-9"/>
    </contour>
  </outline>
</glyph>
